<?xml version="1.0" encoding="UTF-8"?>
<svg id="Layer_1" data-name="Layer 1" xmlns="http://www.w3.org/2000/svg" xmlns:xlink="http://www.w3.org/1999/xlink" viewBox="0 0 629 811">
  <defs>
    <style>
      .cls-1 {
        fill: url(#GradientFill_5-3);
      }

      .cls-1, .cls-2, .cls-3, .cls-4, .cls-5, .cls-6, .cls-7, .cls-8, .cls-9, .cls-10, .cls-11, .cls-12, .cls-13, .cls-14, .cls-15, .cls-16, .cls-17 {
        fill-rule: evenodd;
      }

      .cls-2 {
        fill: #f38155;
      }

      .cls-3 {
        fill: url(#GradientFill_4-4);
      }

      .cls-18 {
        fill: #490420;
      }

      .cls-19 {
        fill: #62062b;
      }

      .cls-20 {
        fill: #3b031a;
      }

      .cls-4 {
        fill: url(#GradientFill_4);
      }

      .cls-21 {
        fill: #3f041c;
      }

      .cls-5 {
        fill: url(#GradientFill_2-2);
      }

      .cls-22 {
        fill: #40041c;
      }

      .cls-23 {
        fill: #750733;
      }

      .cls-24 {
        fill: #45041e;
      }

      .cls-25 {
        fill: #5c0528;
      }

      .cls-6 {
        fill: url(#GradientFill_4-5);
      }

      .cls-7 {
        fill: #fdc095;
      }

      .cls-26 {
        fill: #360318;
      }

      .cls-27 {
        fill: #3c031b;
      }

      .cls-28 {
        fill: #480420;
      }

      .cls-29 {
        fill: #69062e;
      }

      .cls-30 {
        fill: #370319;
      }

      .cls-8 {
        fill: url(#GradientFill_11);
      }

      .cls-9 {
        fill: url(#GradientFill_5-2);
      }

      .cls-31 {
        fill: #5f0629;
      }

      .cls-10 {
        fill: #43262a;
      }

      .cls-32 {
        fill: #4d0422;
      }

      .cls-33 {
        fill: #510524;
      }

      .cls-34 {
        fill: #3e031b;
      }

      .cls-35 {
        fill: #42041d;
      }

      .cls-36 {
        fill: #590527;
      }

      .cls-37 {
        fill: #540525;
      }

      .cls-38 {
        fill: #560526;
      }

      .cls-39 {
        clip-rule: evenodd;
        fill: none;
      }

      .cls-11 {
        fill: url(#GradientFill_10);
      }

      .cls-40 {
        fill: #41041d;
      }

      .cls-41 {
        fill: #3d031b;
      }

      .cls-42 {
        fill: #43041e;
      }

      .cls-12 {
        fill: url(#GradientFill_5);
      }

      .cls-13 {
        fill: url(#GradientFill_2);
      }

      .cls-14 {
        fill: #e36b00;
      }

      .cls-43 {
        fill: #710731;
      }

      .cls-44 {
        fill: #370318;
      }

      .cls-45 {
        fill: #4f0523;
      }

      .cls-46 {
        fill: #380319;
      }

      .cls-47 {
        fill: #3a031a;
      }

      .cls-48 {
        fill: #6d062f;
      }

      .cls-15 {
        fill: url(#GradientFill_4-2);
      }

      .cls-49 {
        fill: #46041f;
      }

      .cls-50 {
        fill: #390319;
      }

      .cls-51 {
        clip-path: url(#clippath);
      }

      .cls-16 {
        fill: url(#GradientFill_4-3);
      }

      .cls-52 {
        fill: #65062c;
      }

      .cls-53 {
        fill: #4b0421;
      }

      .cls-17 {
        fill: #d23c41;
      }
    </style>
    <clipPath id="clippath">
      <path class="cls-39" d="M116.84,361.46s50.58-72.71,90.62-63.22c40.04,9.48,68.49,32.67,123.29,55.85,54.79,23.18,121.18,43.2,119.07,150.69-2.11,107.48-48.73,198.89-84.04,210.75-35.3,11.86-87.99-7.9-109.59-14.23-21.6-6.32-85.35-19.5-100.11-32.67-14.75-13.17-45.84-76.92-61.64-159.12-15.81-82.19,22.39-148.05,22.39-148.05Z"/>
    </clipPath>
    <linearGradient id="GradientFill_2" data-name="GradientFill 2" x1="255.21" y1="507.41" x2="191.2" y2="491.56" gradientUnits="userSpaceOnUse">
      <stop offset="0" stop-color="#d43d42"/>
      <stop offset="1" stop-color="#f47856"/>
    </linearGradient>
    <linearGradient id="GradientFill_4" data-name="GradientFill 4" x1="217.63" y1="447.67" x2="218.3" y2="509.97" gradientUnits="userSpaceOnUse">
      <stop offset="0" stop-color="#f9a976"/>
      <stop offset="1" stop-color="#f58759"/>
    </linearGradient>
    <linearGradient id="GradientFill_2-2" data-name="GradientFill 2" x1="318.68" y1="668.53" x2="335.87" y2="477.83" xlink:href="#GradientFill_2"/>
    <linearGradient id="GradientFill_10" data-name="GradientFill 10" x1="279.27" y1="530.35" x2="287.18" y2="880.93" gradientUnits="userSpaceOnUse">
      <stop offset="0" stop-color="#f47e5c"/>
      <stop offset="1" stop-color="#f47856"/>
    </linearGradient>
    <linearGradient id="GradientFill_4-2" data-name="GradientFill 4" x1="318.79" y1="601.06" x2="201.16" y2="556.81" xlink:href="#GradientFill_4"/>
    <linearGradient id="GradientFill_5" data-name="GradientFill 5" x1="212.91" y1="588.42" x2="225.43" y2="528.42" gradientUnits="userSpaceOnUse">
      <stop offset="0" stop-color="#f9a976"/>
      <stop offset="1" stop-color="#fcc9a4"/>
    </linearGradient>
    <linearGradient id="GradientFill_5-2" data-name="GradientFill 5" x1="381.41" y1="568.48" x2="333.55" y2="596.15" xlink:href="#GradientFill_5"/>
    <linearGradient id="GradientFill_4-3" data-name="GradientFill 4" x1="399.11" y1="391.08" x2="403.03" y2="514.65" xlink:href="#GradientFill_4"/>
    <linearGradient id="GradientFill_11" data-name="GradientFill 11" x1="303.33" y1="460.72" x2="306.23" y2="439.42" gradientUnits="userSpaceOnUse">
      <stop offset="0" stop-color="#f68b65"/>
      <stop offset="1" stop-color="#f58762"/>
    </linearGradient>
    <linearGradient id="GradientFill_4-4" data-name="GradientFill 4" x1="293.16" y1="453.44" x2="326.24" y2="261.48" xlink:href="#GradientFill_4"/>
    <linearGradient id="GradientFill_5-3" data-name="GradientFill 5" x1="215.7" y1="321.59" x2="362.87" y2="289.55" xlink:href="#GradientFill_5"/>
    <linearGradient id="GradientFill_4-5" data-name="GradientFill 4" x1="295.34" y1="443.66" x2="315.45" y2="365.41" xlink:href="#GradientFill_4"/>
  </defs>
  <path class="cls-10" d="M238.76,709.65c-19.45-5.94-62.66-2.7-79.95-19.45-17.29-16.75-68.07-75.09-76.71-170.7-8.64-95.61,32.41-212.3,74.55-261.45,42.13-49.16,117.04-98.34,176.1-96.16,59.06,2.19,142.54,77.82,169.62,207.98,27.08,130.15-1.08,247.41-30.79,292.25-29.71,44.84-75.63,72.39-125.33,74.55-49.7,2.16-83.73-22.15-107.5-27.01Z"/>
  <g class="cls-51">
    <rect class="cls-23" x="78.64" y="288.75" width="373.28" height="438.62"/>
    <path class="cls-23" d="M443.48,571.53c-12.11,57.5-48.09,104.29-96.46,133.46-24.19,14.58-51.47,24.76-80.42,29.67v-6.28h-90.41v4.32c-30.85-6.5-59.01-18.52-83.52-34.68-6.13-4.04-12.03-8.34-17.68-12.88h2.66v-329.44h-2.09c5.64-4.18,11.49-8.1,17.54-11.75,48.37-29.17,109.14-40.71,170.83-27.71,61.7,13,112.64,48.07,145.14,94.27s46.54,103.53,34.42,161.03Z"/>
    <path class="cls-43" d="M439.93,570.79c-11.92,56.59-47.32,102.64-94.93,131.34-23.8,14.35-50.65,24.37-79.14,29.19v-2.94h-88.98v1.02c-30.36-6.4-58.07-18.22-82.19-34.13-6.03-3.98-11.84-8.21-17.4-12.68h.35v-321.07h-3.92c1.36-1.06,2.73-2.11,4.12-3.14,5.55-4.12,11.31-7.98,17.26-11.56,47.6-28.7,107.4-40.06,168.12-27.27,60.72,12.79,110.86,47.31,142.83,92.77,31.98,45.47,45.8,101.88,33.88,158.47Z"/>
    <path class="cls-48" d="M436.39,570.04c-11.73,55.68-46.56,100.98-93.4,129.22-23.42,14.12-49.84,23.97-77.87,28.72-28.03,4.75-57.67,4.4-87.54-1.89-29.87-6.29-57.14-17.93-80.87-33.58-5.93-3.91-11.65-8.08-17.12-12.47-2.74-2.2-5.42-4.45-8.04-6.76h6.09v-305.95h-5.53c2.62-2.15,5.3-4.24,8.03-6.26,5.46-4.05,11.12-7.85,16.98-11.38,46.83-28.24,105.67-39.41,165.41-26.83,119.48,25.17,197.32,135.84,173.86,247.19Z"/>
    <path class="cls-29" d="M432.84,569.29c-11.54,54.76-45.8,99.33-91.86,127.1s-103.94,38.77-162.7,26.39c-29.38-6.19-56.2-17.63-79.54-33.03-5.84-3.85-11.45-7.95-16.84-12.27-2.69-2.16-5.33-4.38-7.9-6.65h3.65v-300.94h-3.1c2.58-2.11,5.21-4.17,7.9-6.16,5.37-3.98,10.94-7.72,16.7-11.19,46.07-27.78,103.94-38.77,162.7-26.39,117.52,24.76,194.08,133.61,171.01,243.14Z"/>
    <path class="cls-52" d="M429.29,568.54c-11.34,53.85-45.03,97.67-90.33,124.98-45.3,27.31-102.21,38.12-159.99,25.95-28.89-6.09-55.26-17.34-78.22-32.48-5.74-3.79-11.26-7.81-16.56-12.07-2.65-2.13-5.24-4.31-7.77-6.54h1.22v-295.92h-.68c2.54-2.08,5.12-4.1,7.76-6.06,5.28-3.92,10.76-7.59,16.42-11,45.3-27.31,102.21-38.12,159.99-25.95,115.56,24.34,190.85,131.39,168.16,239.09Z"/>
    <path class="cls-19" d="M425.75,567.8c-11.15,52.94-44.27,96.01-88.8,122.87s-100.47,37.48-157.28,25.51c-28.4-5.98-54.33-17.05-76.89-31.93-11.28-7.44-21.73-15.84-31.22-25.04h6.08v-277.85h-5.57c9.54-8.64,19.96-16.37,31.09-23.08,44.53-26.85,100.47-37.48,157.28-25.51,113.6,23.93,187.61,129.16,165.31,235.04Z"/>
    <path class="cls-31" d="M422.2,567.05c-10.96,52.03-43.51,94.36-87.27,120.75-43.76,26.39-98.74,36.83-154.56,25.07-27.91-5.88-53.39-16.75-75.57-31.38-11.09-7.31-21.35-15.57-30.68-24.6h3.52v-273.06h-3.02c9.38-8.49,19.62-16.09,30.56-22.68,43.76-26.39,98.74-36.83,154.56-25.07,111.64,23.52,184.38,126.93,162.46,230.98Z"/>
    <path class="cls-25" d="M418.66,566.3c-21.53,102.23-127.91,166.36-237.59,143.26-27.42-5.78-52.45-16.46-74.24-30.83-10.89-7.19-20.98-15.29-30.14-24.17h.96v-268.27h-.47c9.21-8.34,19.27-15.8,30.02-22.28,43-25.92,97.01-36.18,151.85-24.63,109.68,23.11,181.14,124.71,159.61,226.93Z"/>
    <path class="cls-36" d="M415.11,565.56c-21.15,100.4-125.62,163.39-233.35,140.7-26.93-5.67-51.52-16.16-72.91-30.28-10.7-7.06-20.6-15.02-29.6-23.74-2.25-2.18-4.44-4.41-6.58-6.68h4.98v-250.5h-4.55c2.16-2.16,4.37-4.26,6.63-6.31,9.05-8.19,18.93-15.52,29.49-21.89,42.23-25.46,95.28-35.54,149.14-24.19,107.73,22.69,177.91,122.48,156.76,222.88Z"/>
    <path class="cls-38" d="M411.56,564.81c-20.77,98.57-123.34,160.42-229.11,138.14-26.44-5.57-50.58-15.87-71.59-29.73-10.5-6.93-20.23-14.75-29.06-23.31-2.21-2.14-4.36-4.33-6.46-6.56h2.3v-245.94h-1.87c2.12-2.12,4.29-4.18,6.51-6.19,8.88-8.05,18.58-15.24,28.95-21.49,41.46-25,93.55-34.89,146.43-23.75,105.77,22.28,174.67,120.25,153.91,218.83Z"/>
    <path class="cls-37" d="M408.02,564.06c-20.38,96.75-121.06,157.45-224.86,135.58-25.95-5.47-49.64-15.58-70.26-29.18-10.31-6.8-19.85-14.47-28.53-22.88-4.34-4.2-8.46-8.58-12.35-13.13h5.62v-228.31h-5.27c3.94-4.35,8.1-8.51,12.46-12.46,8.72-7.9,18.24-14.96,28.41-21.09,40.69-24.54,91.81-34.24,143.72-23.31,103.81,21.87,171.44,118.03,151.06,214.78Z"/>
    <path class="cls-33" d="M404.47,563.31c-20,94.92-118.77,154.48-220.62,133.03-25.46-5.36-48.71-15.28-68.94-28.63-10.12-6.67-19.48-14.2-27.99-22.45-4.25-4.12-8.3-8.42-12.11-12.88h2.83v-224h-2.49c3.86-4.27,7.95-8.35,12.22-12.23,8.55-7.75,17.9-14.68,27.88-20.69,39.92-24.07,90.08-33.6,141.01-22.87,101.85,21.46,168.2,115.8,148.21,210.72Z"/>
    <path class="cls-45" d="M400.92,562.57c-19.61,93.1-116.49,151.51-216.38,130.47-24.97-5.26-47.77-14.99-67.61-28.08-9.92-6.54-19.1-13.93-27.45-22.01-4.17-4.04-8.14-8.26-11.88-12.64h.04v-213.27h-5.22c1.79-2.19,3.63-4.33,5.53-6.43,3.79-4.19,7.79-8.19,11.99-11.99,8.39-7.6,17.55-14.39,27.34-20.3,39.16-23.61,88.35-32.95,138.29-22.43,99.89,21.04,164.97,113.57,145.36,206.67Z"/>
    <path class="cls-32" d="M397.38,561.82c-19.23,91.27-114.2,148.54-212.14,127.91-24.48-5.16-46.83-14.7-66.29-27.53-9.73-6.42-18.73-13.66-26.91-21.58-4.09-3.96-7.98-8.1-11.65-12.39-1.83-2.15-3.62-4.33-5.34-6.55h2.58v-202.53h-2.33c1.75-2.15,3.56-4.25,5.42-6.3,3.72-4.11,7.64-8.03,11.75-11.75,8.23-7.45,17.21-14.11,26.8-19.9,38.39-23.15,86.62-32.31,135.58-21.99,97.93,20.63,161.73,111.35,142.51,202.62Z"/>
    <path class="cls-53" d="M393.83,561.07c-18.84,89.45-111.92,145.57-207.89,125.35-47.99-10.11-87.61-37.39-112.88-73.32h4.59v-185.41h-4.43c12.88-17.52,29.28-32.29,48.09-43.64,37.62-22.68,84.88-31.66,132.87-21.55,95.97,20.22,158.5,109.12,139.66,198.57Z"/>
    <path class="cls-18" d="M390.28,560.33c-18.46,87.62-109.64,142.6-203.65,122.79-47.01-9.9-85.82-36.63-110.58-71.83h1.59v-181.62h-1.43c12.61-17.17,28.68-31.63,47.1-42.74,36.85-22.22,83.15-31.01,130.16-21.11,94.01,19.8,155.27,106.89,136.81,194.51Z"/>
    <path class="cls-28" d="M386.74,559.58c-18.07,85.8-107.35,139.63-199.41,120.24-46.03-9.7-84.04-35.86-108.28-70.33-1.52-2.15-2.98-4.34-4.38-6.56h2.97v-164.86h-2.9c1.44-2.18,2.93-4.32,4.47-6.43,12.35-16.81,28.08-30.98,46.12-41.85,36.09-21.76,81.42-30.37,127.45-20.67,92.06,19.39,152.03,104.66,133.96,190.46Z"/>
    <path class="cls-49" d="M383.19,558.83c-17.69,83.97-105.07,136.66-195.17,117.68-45.05-9.49-82.25-35.1-105.97-68.83-2.97-4.22-5.72-8.56-8.25-13.02h3.84v-148.23h-3.86c2.59-4.43,5.41-8.7,8.43-12.81,12.09-16.45,27.48-30.32,45.14-40.96,35.32-21.3,79.69-29.72,124.74-20.23,90.1,18.98,148.8,102.44,131.11,186.41Z"/>
    <path class="cls-24" d="M379.64,558.09c-17.3,82.15-102.78,133.69-190.92,115.12-44.07-9.28-80.46-34.34-103.67-67.34-2.9-4.12-5.6-8.37-8.08-12.73h.67v-145.01h-.68c2.54-4.33,5.29-8.51,8.25-12.53,11.82-16.09,26.89-29.66,44.16-40.07,34.55-20.83,77.95-29.08,122.02-19.79,88.14,18.57,145.56,100.21,128.26,182.36Z"/>
    <path class="cls-42" d="M376.1,557.34c-16.92,80.32-100.5,130.72-186.68,112.56-43.09-9.08-78.67-33.57-101.37-65.84-5.67-8.07-10.54-16.62-14.52-25.54h4.11v-115.57h-4.29c4.07-9.03,9.06-17.52,14.84-25.38,11.56-15.74,26.29-29,43.18-39.18,33.78-20.37,76.22-28.43,119.31-19.35,86.18,18.15,142.33,97.98,125.41,178.3Z"/>
    <path class="cls-35" d="M372.55,556.59c-16.54,78.49-98.22,127.74-182.44,110-42.11-8.87-76.88-32.81-99.06-64.34-5.54-7.88-10.3-16.24-14.19-24.96h.78v-112.94h-.95c3.98-8.82,8.86-17.12,14.51-24.81,11.3-15.38,25.69-28.34,42.2-38.29,33.01-19.91,74.49-27.78,116.6-18.91,84.22,17.74,139.09,95.76,122.56,174.25Z"/>
    <path class="cls-40" d="M369.01,555.84c-16.15,76.67-95.93,124.77-178.19,107.44-41.13-8.66-75.1-32.05-96.76-62.85-10.83-15.4-18.59-32.65-22.63-50.85h6.22v-56.5h-6.54c16.15-76.67,95.93-124.77,178.19-107.44,82.26,17.33,135.86,93.53,119.71,170.2Z"/>
    <path class="cls-22" d="M365.46,555.1c-15.77,74.84-93.65,121.8-173.95,104.89-40.15-8.46-73.31-31.28-94.45-61.35-10.57-15.03-18.14-31.88-22.09-49.64h2.68v-55.16h-2.99c15.77-74.84,93.65-121.8,173.95-104.89,80.3,16.92,132.62,91.3,116.86,166.15Z"/>
    <path class="cls-21" d="M361.91,554.35c-15.38,73.02-91.36,118.83-169.71,102.33-39.17-8.25-71.52-30.52-92.15-59.85-10.32-14.67-17.7-31.1-21.55-48.43-3.85-17.33-4.15-35.56-.31-53.81,15.38-73.02,91.36-118.83,169.71-102.33,78.35,16.5,129.39,89.08,114.01,162.09Z"/>
    <path class="cls-34" d="M358.37,553.6c-15,71.19-89.08,115.86-165.47,99.77-38.19-8.05-69.73-29.76-89.85-58.36-20.12-28.6-28.81-64.09-21.31-99.68,15-71.19,89.08-115.86,165.47-99.77,76.39,16.09,126.15,86.85,111.16,158.04Z"/>
    <ellipse class="cls-41" cx="220.05" cy="524.47" rx="128.36" ry="137.72" transform="translate(-338.51 631.68) rotate(-78.1)"/>
    <ellipse class="cls-27" cx="220.05" cy="524.47" rx="124.98" ry="134.1" transform="translate(-338.51 631.68) rotate(-78.1)"/>
    <ellipse class="cls-20" cx="220.05" cy="524.47" rx="121.6" ry="130.47" transform="translate(-338.51 631.68) rotate(-78.1)"/>
    <ellipse class="cls-20" cx="220.05" cy="524.47" rx="118.22" ry="126.85" transform="translate(-338.51 631.68) rotate(-78.1)"/>
    <ellipse class="cls-47" cx="220.05" cy="524.47" rx="114.85" ry="123.23" transform="translate(-338.51 631.68) rotate(-78.1)"/>
    <ellipse class="cls-47" cx="220.05" cy="524.47" rx="111.47" ry="119.6" transform="translate(-338.51 631.68) rotate(-78.1)"/>
    <ellipse class="cls-50" cx="220.05" cy="524.47" rx="108.09" ry="115.98" transform="translate(-338.51 631.68) rotate(-78.1)"/>
    <ellipse class="cls-50" cx="220.05" cy="524.47" rx="104.71" ry="112.35" transform="translate(-338.51 631.68) rotate(-78.1)"/>
    <ellipse class="cls-46" cx="220.05" cy="524.47" rx="101.33" ry="108.73" transform="translate(-338.51 631.69) rotate(-78.1)"/>
    <ellipse class="cls-46" cx="220.05" cy="524.47" rx="97.96" ry="105.1" transform="translate(-338.51 631.69) rotate(-78.1)"/>
    <ellipse class="cls-46" cx="220.05" cy="524.47" rx="94.58" ry="101.48" transform="translate(-338.51 631.69) rotate(-78.1)"/>
    <ellipse class="cls-46" cx="220.05" cy="524.47" rx="91.2" ry="97.86" transform="translate(-338.51 631.68) rotate(-78.1)"/>
    <ellipse class="cls-30" cx="220.05" cy="524.47" rx="87.82" ry="94.23" transform="translate(-338.51 631.68) rotate(-78.1)"/>
    <ellipse class="cls-44" cx="220.05" cy="524.47" rx="84.45" ry="90.61" transform="translate(-338.51 631.68) rotate(-78.1)"/>
    <ellipse class="cls-44" cx="220.05" cy="524.47" rx="81.07" ry="86.98" transform="translate(-338.51 631.69) rotate(-78.1)"/>
    <ellipse class="cls-44" cx="220.05" cy="524.47" rx="77.69" ry="83.36" transform="translate(-338.51 631.69) rotate(-78.1)"/>
    <ellipse class="cls-44" cx="220.05" cy="524.47" rx="74.31" ry="79.73" transform="translate(-338.51 631.69) rotate(-78.1)"/>
    <ellipse class="cls-44" cx="220.05" cy="524.47" rx="70.93" ry="76.11" transform="translate(-338.51 631.69) rotate(-78.1)"/>
    <ellipse class="cls-26" cx="220.05" cy="524.47" rx="67.56" ry="72.49" transform="translate(-338.51 631.68) rotate(-78.1)"/>
    <ellipse class="cls-26" cx="220.05" cy="524.47" rx="64.18" ry="68.86" transform="translate(-338.51 631.68) rotate(-78.1)"/>
    <ellipse class="cls-26" cx="220.05" cy="524.47" rx="60.8" ry="65.24" transform="translate(-338.51 631.69) rotate(-78.1)"/>
    <ellipse class="cls-26" cx="220.05" cy="524.47" rx="57.42" ry="61.61" transform="translate(-338.51 631.68) rotate(-78.1)"/>
    <ellipse class="cls-26" cx="220.05" cy="524.47" rx="54.05" ry="57.99" transform="translate(-338.51 631.68) rotate(-78.1)"/>
    <ellipse class="cls-26" cx="220.05" cy="524.47" rx="50.67" ry="54.36" transform="translate(-338.51 631.69) rotate(-78.1)"/>
    <ellipse class="cls-26" cx="220.05" cy="524.47" rx="47.29" ry="50.74" transform="translate(-338.51 631.68) rotate(-78.1)"/>
    <ellipse class="cls-26" cx="220.05" cy="524.47" rx="43.91" ry="47.12" transform="translate(-338.51 631.68) rotate(-78.1)"/>
    <ellipse class="cls-26" cx="220.05" cy="524.47" rx="40.53" ry="43.49" transform="translate(-338.51 631.69) rotate(-78.1)"/>
    <ellipse class="cls-26" cx="220.05" cy="524.47" rx="37.16" ry="39.87" transform="translate(-338.51 631.69) rotate(-78.1)"/>
    <ellipse class="cls-26" cx="220.05" cy="524.47" rx="33.78" ry="36.24" transform="translate(-338.51 631.69) rotate(-78.1)"/>
    <ellipse class="cls-26" cx="220.05" cy="524.47" rx="30.4" ry="32.62" transform="translate(-338.51 631.68) rotate(-78.1)"/>
    <ellipse class="cls-26" cx="220.05" cy="524.47" rx="27.02" ry="28.99" transform="translate(-338.51 631.68) rotate(-78.1)"/>
    <ellipse class="cls-26" cx="220.05" cy="524.47" rx="23.64" ry="25.37" transform="translate(-338.51 631.68) rotate(-78.1)"/>
    <ellipse class="cls-26" cx="220.05" cy="524.47" rx="20.27" ry="21.75" transform="translate(-338.51 631.7) rotate(-78.11)"/>
    <ellipse class="cls-26" cx="220.05" cy="524.47" rx="16.89" ry="18.12" transform="translate(-338.51 631.68) rotate(-78.1)"/>
    <ellipse class="cls-26" cx="220.05" cy="524.47" rx="13.51" ry="14.5" transform="translate(-338.51 631.68) rotate(-78.1)"/>
    <path class="cls-26" d="M230.69,526.71c-1.15,5.48-6.85,8.91-12.73,7.67-5.88-1.24-9.7-6.68-8.55-12.16,1.15-5.48,6.85-8.91,12.73-7.67,5.88,1.24,9.7,6.68,8.55,12.16Z"/>
    <path class="cls-26" d="M227.15,525.96c-.77,3.65-4.57,5.94-8.49,5.12-3.92-.83-6.47-4.45-5.7-8.1.77-3.65,4.57-5.94,8.49-5.12,3.92.83,6.47,4.45,5.7,8.1Z"/>
    <path class="cls-26" d="M223.6,525.21c-.38,1.83-2.28,2.97-4.24,2.56-1.96-.41-3.23-2.23-2.85-4.05.38-1.83,2.28-2.97,4.24-2.56,1.96.41,3.23,2.23,2.85,4.05Z"/>
  </g>
  <path class="cls-2" d="M355.58,142.11c-2.11-8.69,10.54-25.03,26.08-39.52,15.54-14.49,57.69-40.31,96.68-38.99,38.99,1.32,82.19,12.91,82.45,41.89.26,28.98-24.24,32.14-25.29,46.1-1.05,13.96,15.54,42.94.53,69.29-15.02,26.34-56.64,19.49-72.45,1.05-15.81-18.44-50.58-50.84-67.97-61.12-17.39-10.27-38.73-13.7-40.04-18.7Z"/>
  <path class="cls-14" d="M283.4,140c-3.16-5.8,15.02-21.86,20.28-15.81,5.27,6.06-13.96,19.49-20.28,15.81h0ZM355.58,142.11c-2.11-8.69,10.54-25.03,26.08-39.52,7.85-7.32,22.48-17.52,40.07-25.66,8.62.04,17.39,1.68,21.5,7.4,9.48,13.17.53,20.02,20.02,32.67,19.49,12.65,45.31,33.72,36.88,69.02-6.83,28.61-28.9,29.5-49.07,22.38-17.49-17.87-41.81-39.53-55.44-47.59-17.39-10.27-38.73-13.7-40.04-18.7h0ZM318.44,139.73c7.11,5.27,30.03-8.43,36.35-22.92,6.32-14.49-4.22-15.28-14.23-11.33-10.01,3.95-26.08,29.77-22.13,34.25Z"/>
  <path class="cls-14" d="M498.56,77.21c-1.32,4.61,4.22,11.2,13.96,18.05,9.75,6.85,14.36,18.7,18.31,24.5,3.95,5.79,13.3.92,15.02-6.59,1.71-7.51,1.84-18.97-6.45-24.63-8.3-5.66-16.2-8.96-20.42-11.46-4.21-2.5-14.49-7.38-20.42.13Z"/>
  <path class="cls-13" d="M181.31,477.05c6.99,6.28,14.69,18.67,21.01,28.63,6.32,9.96,21.97,24.97,31.45,25.13,9.48.16,35.41-17.7,35.41-17.7,0,0,5.53-25.29,4.11-29.71-1.42-4.43-25.29,12.33-39.04,12.49-13.75.16-32.72-5.22-52.94-18.83Z"/>
  <path class="cls-4" d="M276.3,465.84s-21.5,9.49-34.14,18.02c-12.65,8.53-12.01,7.59-18.02,3.79-6.01-3.79-30.03-29.08-42.04-31.3-12.01-2.21-21.5-1.9-22.44.63-.95,2.53,1.42,3.64,1.42,3.64,0,0-7.27,2.69-7.11,5.53.16,2.84,5.85.16,5.85.16,0,0-4.74,6.32-1.26,7.74,3.48,1.42,10.27-4.27,17.86-.47,7.59,3.79,23.71,23.39,38.72,31.3,15.02,7.9,27.03,8.85,39.2.95,12.17-7.9,20.07-20.71,20.07-20.71,0,0,15.17-20.55,1.9-19.28Z"/>
  <path class="cls-7" d="M183.2,462.21s-14.86,0-14.86,3.48,8.69,1.74,13.28,3.16c4.58,1.42,6.8,3.95,9.33,3.48,2.53-.47-2.21-9.96-7.75-10.12Z"/>
  <path class="cls-5" d="M281.04,465.06s-13.28,11.38-16.12,36.35c-2.84,24.97-7.08,47.26-12.64,54.69-5.56,7.43-18.97-5.06-28.13,6.95-9.17,12.01,2.84,70.18,16.44,85.67,13.59,15.49,35.72,28.14,56.27,30.03,20.55,1.9,41.1,6.95,49.32,7.27,8.22.32,11.38-.63,22.13-15.17,10.75-14.54,17.07-39.52,18.34-47.74,1.26-8.22-5.69-50.58-7.59-61.96-1.9-11.38-1.9-39.52-1.58-42.99.32-3.48,18.65,19.92,35.72,20.55,17.07.63,29.71-57.54,29.4-69.23-.32-11.7-6.95-10.43-10.75-8.85s-16.44,45.52-23.71,48.68c-7.27,3.16-15.49-6.64-20.23-13.59-4.74-6.95-23.08-31.3-32.88-36.04-9.8-4.74-67.33-3.79-73.97,5.37Z"/>
  <path class="cls-14" d="M238.83,709.33c-19.42-5.94-62.59-2.7-79.85-19.42-17.26-16.72-67.98-75-76.61-170.49-8.63-95.5,32.37-212.03,74.45-261.13,42.08-49.1,116.89-98.22,175.88-96.04,58.99,2.18,142.37,77.73,169.41,207.72,27.05,129.99-1.08,247.1-30.75,291.88-29.67,44.78-75.53,72.3-125.17,74.46-49.64,2.16-83.63-22.12-107.37-26.98h0ZM128.43,530.86c7.64,7.37,17.65,2.9,26.87,4.48,9.22,1.58,16.07.79,29.24,20.28,8.57,12.68,25.95,14.32,41.17,12.55l1.11,17.98c-16.58.66-22.63,6.65-35.69,4.78-14.75-2.11-32.67-31.09-46.89-21.07-14.22,10.01-11.59,56.37,15.28,87.46,26.87,31.09,51.11,16.33,80.61,24.24,29.5,7.9,80.08,34.25,100.11,32.67,20.02-1.58,78.5-16.86,110.64-65.33,32.14-48.47,47.95-145.42,33.19-248.16-14.75-102.74-59.54-168.6-109.06-197.05-49.53-28.45-91.15-17.92-131.72,9.48-40.57,27.4-75.87,70.07-96.94,115.91-21.07,45.84-36.35,106.96-35.3,139.62,1.05,32.67,5.79,51.11,17.39,62.17h0ZM261.15,577.64c9.26-6.6,15.76-16.01,16.91-24.65,2.11-15.81,7.38-53.74,30.03-55.32,22.65-1.58,22.13,33.19,12.12,52.16-10.01,18.97-28.45,25.82-32.14,38.99-3.69,13.17,3.42,25.03,11.06,21.87,7.64-3.16,3.95-20.02,13.17-24.76,9.22-4.74,28.19-18.97,31.09-47.15,2.9-28.19-9.22-57.17-37.15-56.64-27.92.53-32.93,23.45-35.3,45.84-2.14,20.19-7.91,28.81-20.03,33.98l10.24,15.69Z"/>
  <path class="cls-11" d="M233.31,549.93s3.16,26.87,3.16,53.43,1.58,54.22.16,59.43c-1.42,5.22-9.17,5.69-14.23,6.64-5.06.95-19.44-.32-27.34-2.69-7.9-2.37-9.33-4.58-10.43-6.32s2.69-2.53,2.69-2.53c0,0-4.74-3-3.95-5.06.79-2.05,5.69-1.42,5.69-1.42,0,0,1.9-3,4.58-3s10.75,4.74,15.02-.47c4.27-5.22-1.9-20.86-3.32-29.87-1.42-9.01,9.01-70.81,27.98-68.12h0ZM324.82,615.53c-.95,12.33-1.26,30.03-3.48,40.46-2.21,10.43-2.21,13.91-5.06,16.44-2.84,2.53-10.43,5.85-9.33,12.33,1.11,6.48,16.6,18.34,23.71,19.28,7.11.95,19.28-3.48,21.65-8.69,2.37-5.22,2.21-21.65,5.06-30.35,2.84-8.69,18.63-41.16,22.13-59.9,3.5-18.75-46.79-13.6-54.69,10.43Z"/>
  <path class="cls-15" d="M386.62,623.12s4.75-31.93.95-51.53c-3.79-19.6-10.43-27.19-26.24-26.24-15.81.95-37.15,43-36.52,70.18.63,27.18,18.34,34.3,27.35,31.29,9.01-3,17.7-15.65,21.65-27.66,3.95-12.01,5.85-16.42,5.85-16.42,0,0,5.75,1.32,6.95,20.38h0ZM316.29,672.43c8.54-2.69,16.28.47,21.34,4.58,5.06,4.11,8.53,9.01,8.53,9.01,0,0-1.58-10.28-10.27-15.33-8.69-5.06-18.03-.23-19.6,1.74h0ZM273.77,606.36s-18.33-53.42-27.19-64.8c-8.85-11.38-22.45-21.81-37.62-14.86-15.17,6.95-16.12,34.77-13.59,47.1,2.53,12.33,8.1,35.99,9.95,44.26,1.85,8.27,9.81,11.22,13.92,3.32,4.11-7.9,9.96-21.97,9.96-34.14s.56-21.69,8.58-21.2c8.02.49,21.29,6.34,35.99,40.32Z"/>
  <path class="cls-12" d="M203.23,608.86s12.74-1.17,8.46-29.31c-4.27-28.14,12.33-59.19,36.34-35.91-.5-.8-.99-1.5-1.44-2.09-8.85-11.38-22.45-21.81-37.62-14.86-15.17,6.95-16.12,34.77-13.59,47.1,1.87,9.1,5.39,24.37,7.85,35.07h0Z"/>
  <path class="cls-9" d="M373.25,546.89c-3.26-1.34-7.17-1.82-11.91-1.54-8.36.5-18.26,12.49-25.65,27.7-6.48,16.25-10.04,49.18,5.13,52.65,15.17,3.48,49.36-53.94,32.43-78.81Z"/>
  <path class="cls-16" d="M357.87,460.86s-1.58,5.3,3.63,13.51c5.22,8.22,15.02,16.12,19.92,22.44,4.9,6.32,14.22,18.81,21.65,20.55,7.43,1.74,15.33-5.22,20.23-17.7,4.9-12.49,9.01-27.66,13.44-31.14,4.43-3.48,5.84.96,5.84.96,0,0,.17-8.7.32-12.97.16-4.27,2.06-7.11,1.42-18.49-.63-11.38-.63-20.23-2.53-21.65-1.9-1.42-2.37,5.21-2.37,5.21,0,0-.63-10.43-2.84-12.8-2.21-2.37-1.9,4.74-1.9,4.74,0,0-2.69-9.48-5.06-10.12-2.37-.63.16,11.22.16,11.22,0,0-3.32-10.11-5.69-9.64-2.37.47,3.63,24.34,4.11,27.82.47,3.48-7.59-10.12-9.17-12.49-1.58-2.37-3.16,5.69,0,11.7,3.16,6.01,6.96,15.01,5.22,26.4-1.74,11.38-5.22,17.86-9.8,25.45-4.58,7.59-7.43,9.8-9.01,13.12-1.58,3.32-1.9,7.9-1.9,7.9,0,0-2.37-15.17-10.27-22.92-7.9-7.75-29.24-22.21-35.41-21.1Z"/>
  <path class="cls-8" d="M222.09,429.48s15.33,23.08,36.04,33.03c20.71,9.96,54.06,15.18,84.56,6.17,30.5-9.01,50.58-40.62,50.58-40.62,0,0-155.69-16.76-171.18,1.42Z"/>
  <path class="cls-3" d="M222.09,429.48c-6.01-9.01-6.48-20.86-6.8-27.19-.32-6.32-9.96-29.4-7.75-34.62,2.21-5.22,8.22,13.44,8.22,13.44,0,0-4.42-26.87-2.53-49.95,1.9-23.08,11.06-46.15,25.92-58.48,14.86-12.33,41.41-32.56,84.09-30.03,42.68,2.53,75.55,42.68,79.03,63.86,3.48,21.18.95,54.69.95,54.69,0,0,1.9-12.01,5.22-10.43,3.32,1.58-2.37,37.14-3.95,44.89-1.58,7.75-4.05,22.86-11.22,32.4-7.17,9.54-22.92,28.61-61.49,33.35-38.57,4.74-77.61,1.26-109.69-31.93Z"/>
  <path class="cls-1" d="M213.15,356.2c-.46-7.88-.6-16.7.09-25.04,1.9-23.08,11.06-46.15,25.92-58.48,14.86-12.33,41.41-32.56,84.09-30.03,42.68,2.53,75.55,42.68,79.03,63.86,1.67,10.2,1.96,23.25,1.8,34.05h0c-.62-14.5-20.79-67.13-90.7-72.39-69.91-5.26-101.48,53.74-100.23,88.03h0Z"/>
  <path class="cls-6" d="M231.82,367.75c-4.43,15.49-4.74,42.2,19.92,47.74,24.66,5.54,45.2-10.43,59.11-8.22s61.96,22.44,76.5-4.74c14.54-27.19-.63-42.04-16.12-47.1-15.49-5.06-57.53,13.28-73.97,13.59-16.44.32-61.64-27.5-65.44-1.26Z"/>
  <path class="cls-17" d="M305.07,447.82c.32-2.53,8.06-5.69,9.8-4.9,1.74.79,3.16,4.43,1.98,6.01-1.19,1.58-3.16-1.19-4.66-1.42-1.5-.24-6.8,2.29-7.11.32h0ZM241.53,387.6s6.16,7.59,18.97,9.8c12.8,2.21,20.07.16,20.07.16,0,0-28.61,14.54-39.04-9.96h0ZM303.65,424.03s4.27,4.19,10.04,2.69c5.77-1.5,8.68-4.31,8.68-4.31,0,0-1.73,5.73-7.89,7.47-6.16,1.74-11.22-3.48-10.83-5.85h0ZM331.31,394.23s10.43,2.85,20.55,0c10.12-2.84,17.23-8.85,17.23-8.85,0,0-5.85,10.27-15.96,13.44-10.12,3.16-20.39-1.74-21.81-4.58Z"/>
  <path class="cls-2" d="M233.35,716.4c-15.81-4.22-52.69.53-73.23-11.59-20.55-12.12-71.65-64.81-87.46-168.07-15.81-103.27,15.8-173.34,42.15-233.93,26.34-60.59,93.78-114.86,148.05-138.04,54.27-23.18,104.85-20.02,159.12,32.14,54.27,52.16,90.09,110.11,100.11,248.16,10.01,138.04-25.29,199.16-66.39,248.16-41.09,49-85.88,55.32-118.54,54.8-32.67-.53-83.77-22.13-103.79-31.61h0ZM240.2,703.23c23.18,4.74,56.38,28.45,104.85,26.34,48.47-2.11,93.26-28.98,122.23-72.71,28.98-43.73,56.44-158.1,30.03-285.04-26.41-126.94-107.83-200.71-165.44-202.85-57.61-2.13-130.66,45.84-171.76,93.78-41.1,47.95-81.14,161.75-72.71,255.01,8.43,93.26,57.96,150.16,74.82,166.49,16.86,16.33,59.01,13.17,77.98,18.97Z"/>
  <path class="cls-2" d="M108.16,424.33s-14.22,81.88,8.54,104.95c22.76,23.08,30.66,6.95,44.57,13.91,13.91,6.95,24.97,25.29,24.97,25.29,0,0-23.71-22.44-43.31-15.49-19.6,6.96-22.23,26.28-17.07,50.26,5.16,23.98,17.17,47.49,17.17,47.49,0,0-75.02-119.57-34.87-226.42Z"/>
</svg>