<?xml version="1.0" encoding="UTF-8"?>
<svg id="Layer_1" data-name="Layer 1" xmlns="http://www.w3.org/2000/svg" xmlns:xlink="http://www.w3.org/1999/xlink" viewBox="0 0 605 729">
  <defs>
    <style>
      .cls-1 {
        fill: url(#GradientFill_5-3);
      }

      .cls-1, .cls-2, .cls-3, .cls-4, .cls-5, .cls-6, .cls-7, .cls-8, .cls-9, .cls-10, .cls-11, .cls-12, .cls-13, .cls-14, .cls-15, .cls-16, .cls-17, .cls-18, .cls-19 {
        fill-rule: evenodd;
      }

      .cls-2 {
        fill: #f38155;
      }

      .cls-20 {
        fill: #490420;
      }

      .cls-21 {
        fill: #62062b;
      }

      .cls-22 {
        fill: #3b031a;
      }

      .cls-3 {
        fill: url(#GradientFill_4);
      }

      .cls-4 {
        fill: url(#GradientFill_2-4);
      }

      .cls-23 {
        fill: #3f041c;
      }

      .cls-5 {
        fill: url(#GradientFill_2-2);
      }

      .cls-24 {
        fill: #40041c;
      }

      .cls-25 {
        fill: #750733;
      }

      .cls-26 {
        fill: #45041e;
      }

      .cls-6 {
        fill: url(#GradientFill_3-2);
      }

      .cls-7 {
        fill: url(#GradientFill_3-3);
      }

      .cls-27 {
        fill: #5c0528;
      }

      .cls-28 {
        fill: #360318;
      }

      .cls-29 {
        fill: #3c031b;
      }

      .cls-30 {
        fill: #480420;
      }

      .cls-31 {
        fill: #69062e;
      }

      .cls-32 {
        fill: #370319;
      }

      .cls-8 {
        fill: url(#GradientFill_5-2);
      }

      .cls-33 {
        fill: #5f0629;
      }

      .cls-9 {
        fill: #43262a;
      }

      .cls-10 {
        fill: url(#GradientFill_3-4);
      }

      .cls-34 {
        fill: #4d0422;
      }

      .cls-35 {
        fill: #510524;
      }

      .cls-36 {
        fill: #3e031b;
      }

      .cls-37 {
        fill: #42041d;
      }

      .cls-11 {
        fill: url(#GradientFill_2-5);
      }

      .cls-38 {
        fill: #590527;
      }

      .cls-39 {
        fill: #540525;
      }

      .cls-40 {
        fill: #560526;
      }

      .cls-12 {
        fill: url(#GradientFill_3);
      }

      .cls-41 {
        clip-rule: evenodd;
        fill: none;
      }

      .cls-42 {
        fill: #41041d;
      }

      .cls-43 {
        fill: #3d031b;
      }

      .cls-44 {
        fill: #43041e;
      }

      .cls-13 {
        fill: url(#GradientFill_5);
      }

      .cls-14 {
        fill: url(#GradientFill_2);
      }

      .cls-15 {
        fill: #e36b00;
      }

      .cls-45 {
        fill: #710731;
      }

      .cls-46 {
        fill: #370318;
      }

      .cls-47 {
        fill: #4f0523;
      }

      .cls-48 {
        fill: #380319;
      }

      .cls-16 {
        fill: url(#GradientFill_8);
      }

      .cls-49 {
        fill: #3a031a;
      }

      .cls-50 {
        fill: #6d062f;
      }

      .cls-17 {
        fill: url(#GradientFill_4-2);
      }

      .cls-18 {
        fill: url(#GradientFill_2-3);
      }

      .cls-51 {
        fill: #46041f;
      }

      .cls-52 {
        fill: #390319;
      }

      .cls-53 {
        clip-path: url(#clippath);
      }

      .cls-54 {
        fill: #65062c;
      }

      .cls-55 {
        fill: #4b0421;
      }

      .cls-19 {
        fill: #d23c41;
      }
    </style>
    <clipPath id="clippath">
      <path class="cls-41" d="M158.3,328.65s31.36-61.53,81.06-71.59c49.7-10.06,154.43,76.33,179.28,130.76,24.85,54.43,37.87,84.61,30.18,150.88-7.69,66.27-18.34,97.63-49.7,112.42-31.36,14.79-99.4-2.96-118.34-7.69-18.93-4.73-87.23-5.03-113.01-55.03-25.78-50-56.8-156.21-9.47-259.75Z"/>
    </clipPath>
    <linearGradient id="GradientFill_2" data-name="GradientFill 2" x1="324.78" y1="440.93" x2="258.72" y2="446.99" gradientUnits="userSpaceOnUse">
      <stop offset="0" stop-color="#d43d42"/>
      <stop offset="1" stop-color="#f47856"/>
    </linearGradient>
    <linearGradient id="GradientFill_3" data-name="GradientFill 3" x1="293.88" y1="292.26" x2="298.54" y2="455.48" gradientUnits="userSpaceOnUse">
      <stop offset="0" stop-color="#f68f69"/>
      <stop offset="1" stop-color="#f47856"/>
    </linearGradient>
    <linearGradient id="GradientFill_3-2" data-name="GradientFill 3" x1="333.84" y1="66.99" x2="357.02" y2="567.62" xlink:href="#GradientFill_3"/>
    <linearGradient id="GradientFill_2-2" data-name="GradientFill 2" x1="346.47" y1="557.48" x2="254.14" y2="564.35" xlink:href="#GradientFill_2"/>
    <linearGradient id="GradientFill_2-3" data-name="GradientFill 2" x1="296.88" y1="569.36" x2="247.52" y2="571.13" xlink:href="#GradientFill_2"/>
    <linearGradient id="GradientFill_4" data-name="GradientFill 4" x1="341.02" y1="395.1" x2="371.19" y2="223.56" gradientUnits="userSpaceOnUse">
      <stop offset="0" stop-color="#f9a976"/>
      <stop offset="1" stop-color="#f58759"/>
    </linearGradient>
    <linearGradient id="GradientFill_4-2" data-name="GradientFill 4" x1="282.09" y1="389.84" x2="330.53" y2="300.71" xlink:href="#GradientFill_4"/>
    <linearGradient id="GradientFill_5" data-name="GradientFill 5" x1="282.58" y1="281.88" x2="405.59" y2="255.35" gradientUnits="userSpaceOnUse">
      <stop offset="0" stop-color="#f9a976"/>
      <stop offset="1" stop-color="#fcc9a4"/>
    </linearGradient>
    <linearGradient id="GradientFill_3-3" data-name="GradientFill 3" x1="268.5" y1="408.5" x2="273.34" y2="564.67" xlink:href="#GradientFill_3"/>
    <linearGradient id="GradientFill_2-4" data-name="GradientFill 2" x1="445.55" y1="428.24" x2="332.09" y2="463.69" xlink:href="#GradientFill_2"/>
    <linearGradient id="GradientFill_3-4" data-name="GradientFill 3" x1="315.19" y1="430.31" x2="317.49" y2="607.02" xlink:href="#GradientFill_3"/>
    <linearGradient id="GradientFill_8" data-name="GradientFill 8" x1="367.21" y1="566.22" x2="315.02" y2="443.94" gradientUnits="userSpaceOnUse">
      <stop offset="0" stop-color="#f9a976"/>
      <stop offset=".27" stop-color="#f79a69"/>
      <stop offset=".67" stop-color="#f58c5d"/>
      <stop offset="1" stop-color="#f58759"/>
    </linearGradient>
    <linearGradient id="GradientFill_5-2" data-name="GradientFill 5" x1="347.3" y1="515.09" x2="306.92" y2="578.48" xlink:href="#GradientFill_5"/>
    <linearGradient id="GradientFill_5-3" data-name="GradientFill 5" x1="390.28" y1="388.51" x2="349.23" y2="429.86" xlink:href="#GradientFill_5"/>
    <linearGradient id="GradientFill_2-5" data-name="GradientFill 2" x1="383.48" y1="545.6" x2="373.69" y2="545.91" xlink:href="#GradientFill_2"/>
  </defs>
  <path class="cls-9" d="M214.57,650.48c-22.36-5.08-53.87-37.61-74.71-97.58-20.84-59.97-21.35-106.73-8.13-173.81,13.21-67.09,42.69-140.78,89.45-186.52,46.76-45.74,100.63-66.58,127.57-58.45,26.94,8.13,96.56,46.25,133.66,119.43,37.1,73.18,43.71,138.75,42.18,194.65-1.53,55.91-23.89,148.91-52.35,178.39-28.46,29.48-89.96,56.41-122.99,54.89-33.03-1.53-45.23-23.38-65.05-24.4-19.82-1.02-50.82-.51-69.63-6.61Z"/>
  <g class="cls-53">
    <rect class="cls-25" x="110.96" y="246.99" width="345.54" height="418.91"/>
    <path class="cls-25" d="M205.84,264.77c40.09-16.06,85.65-7.46,126.9,19.42,41.26,26.88,78.21,72.05,101.07,129.13,22.87,57.08,27.32,115.27,16.03,163.2-5.64,23.97-15.22,45.37-28.4,62.78-6.59,8.71-14.08,16.42-22.42,22.96-4.17,3.27-8.56,6.25-13.16,8.91v-4.26h-125.67v1.06c-5.27-2.78-10.5-5.85-15.65-9.21-41.26-26.88-78.21-72.05-101.07-129.13-22.87-57.08-27.32-115.27-16.03-163.2,11.29-47.93,38.31-85.61,78.4-101.66Z"/>
    <path class="cls-45" d="M207.15,268.05c39.45-15.8,84.29-7.34,124.89,19.11,40.6,26.46,76.96,70.91,99.47,127.08s26.89,113.44,15.78,160.61c-5.55,23.58-14.98,44.65-27.95,61.79-6.48,8.57-13.85,16.16-22.07,22.6-4.11,3.22-8.43,6.15-12.95,8.77v-1.09h-107.98v5.24c-10.53-4.27-20.94-9.76-31.09-16.37-40.6-26.46-76.96-70.91-99.47-127.08-22.5-56.17-26.89-113.44-15.78-160.61,11.11-47.17,37.7-84.25,77.15-100.05Z"/>
    <path class="cls-50" d="M208.46,271.33c77.63-31.1,176.46,33.3,220.74,143.83,22.14,55.27,26.45,111.61,15.52,158.01-10.93,46.41-37.09,82.89-75.91,98.44v-4.71h-92.28v2.01c-10.36-4.2-20.61-9.6-30.59-16.11-39.95-26.03-75.72-69.76-97.86-125.03-44.28-110.54-17.25-225.35,60.38-256.45Z"/>
    <path class="cls-31" d="M209.78,274.61c76.36-30.59,173.56,32.75,217.12,141.48,21.78,54.36,26.02,109.78,15.27,155.42-10.75,45.65-36.49,81.53-74.66,96.82v-1.43h-75.42v4.07c-5.13-1.46-10.25-3.23-15.35-5.29-10.19-4.13-20.27-9.44-30.09-15.84-39.29-25.6-74.48-68.62-96.26-122.98-43.55-108.72-16.96-221.66,59.39-252.25Z"/>
    <path class="cls-54" d="M211.09,277.89c75.08-30.08,170.67,32.21,213.5,139.12,21.41,53.46,25.58,107.95,15.02,152.83-10.57,44.89-35.88,80.17-73.42,95.21-9.39,3.76-19.09,6.08-28.97,7.04v-5.19h-30.04v4.13c-20.19-3.28-40.52-11.59-59.83-24.17-38.64-25.18-73.24-67.48-94.65-120.93-42.83-106.91-16.68-217.96,58.4-248.04Z"/>
    <path class="cls-21" d="M212.41,281.17c73.81-29.57,167.78,31.66,209.88,136.76,42.1,105.1,16.4,214.27-57.41,243.84-18.45,7.39-38.17,9.11-58.01,5.89-19.85-3.22-39.83-11.39-58.82-23.76-37.98-24.75-72-66.33-93.05-118.88-42.1-105.1-16.4-214.27,57.41-243.84Z"/>
    <path class="cls-33" d="M213.72,284.45c72.54-29.06,164.89,31.12,206.26,134.4,41.38,103.29,16.12,210.58-56.42,239.64-36.27,14.53-77.49,6.75-114.82-17.57-37.33-24.32-70.76-65.19-91.45-116.83-41.38-103.29-16.12-210.58,56.42-239.64Z"/>
    <path class="cls-27" d="M215.04,287.73c71.27-28.55,161.99,30.57,202.64,132.05s15.83,206.88-55.43,235.43c-35.63,14.27-76.13,6.63-112.8-17.26-36.67-23.9-69.52-64.04-89.84-114.78-40.65-101.48-15.83-206.88,55.43-235.43Z"/>
    <path class="cls-38" d="M216.35,291.02c69.99-28.04,159.1,30.02,199.03,129.69,39.93,99.66,15.55,203.19-54.44,231.23-35,14.02-74.77,6.51-110.79-16.95-36.02-23.47-68.27-62.9-88.24-112.73-39.93-99.66-15.55-203.19,54.44-231.23Z"/>
    <path class="cls-40" d="M217.66,294.3c68.72-27.53,156.21,29.48,195.41,127.33,39.2,97.85,15.27,199.49-53.45,227.02-34.36,13.76-73.41,6.4-108.77-16.65-35.36-23.04-67.03-61.76-86.63-110.68-39.2-97.85-15.27-199.49,53.45-227.02Z"/>
    <ellipse class="cls-39" cx="288.64" cy="471.47" rx="131.56" ry="187.33" transform="translate(-154.63 141.15) rotate(-21.83)"/>
    <ellipse class="cls-35" cx="288.64" cy="471.47" rx="129.08" ry="183.79" transform="translate(-154.63 141.15) rotate(-21.83)"/>
    <ellipse class="cls-47" cx="288.64" cy="471.47" rx="126.6" ry="180.26" transform="translate(-154.63 141.15) rotate(-21.83)"/>
    <ellipse class="cls-34" cx="288.64" cy="471.47" rx="124.11" ry="176.73" transform="translate(-154.63 141.15) rotate(-21.83)"/>
    <ellipse class="cls-55" cx="288.64" cy="471.47" rx="121.63" ry="173.19" transform="translate(-154.63 141.15) rotate(-21.83)"/>
    <ellipse class="cls-20" cx="288.64" cy="471.47" rx="119.15" ry="169.66" transform="translate(-154.63 141.15) rotate(-21.83)"/>
    <ellipse class="cls-30" cx="288.64" cy="471.47" rx="116.67" ry="166.12" transform="translate(-154.63 141.15) rotate(-21.83)"/>
    <ellipse class="cls-51" cx="288.64" cy="471.47" rx="114.19" ry="162.59" transform="translate(-154.63 141.15) rotate(-21.83)"/>
    <ellipse class="cls-26" cx="288.64" cy="471.47" rx="111.7" ry="159.05" transform="translate(-154.63 141.15) rotate(-21.83)"/>
    <ellipse class="cls-44" cx="288.64" cy="471.47" rx="109.22" ry="155.52" transform="translate(-154.63 141.15) rotate(-21.83)"/>
    <ellipse class="cls-37" cx="288.64" cy="471.47" rx="106.74" ry="151.98" transform="translate(-154.63 141.15) rotate(-21.83)"/>
    <ellipse class="cls-42" cx="288.64" cy="471.47" rx="104.26" ry="148.45" transform="translate(-154.63 141.15) rotate(-21.83)"/>
    <ellipse class="cls-24" cx="288.64" cy="471.47" rx="101.77" ry="144.92" transform="translate(-154.63 141.15) rotate(-21.83)"/>
    <ellipse class="cls-23" cx="288.64" cy="471.47" rx="99.29" ry="141.38" transform="translate(-154.63 141.15) rotate(-21.83)"/>
    <ellipse class="cls-36" cx="288.64" cy="471.47" rx="96.81" ry="137.85" transform="translate(-154.63 141.15) rotate(-21.83)"/>
    <ellipse class="cls-43" cx="288.64" cy="471.47" rx="94.33" ry="134.31" transform="translate(-154.63 141.15) rotate(-21.83)"/>
    <ellipse class="cls-29" cx="288.64" cy="471.47" rx="91.84" ry="130.78" transform="translate(-154.63 141.15) rotate(-21.83)"/>
    <ellipse class="cls-22" cx="288.64" cy="471.47" rx="89.36" ry="127.24" transform="translate(-154.63 141.15) rotate(-21.83)"/>
    <ellipse class="cls-22" cx="288.64" cy="471.47" rx="86.88" ry="123.71" transform="translate(-154.63 141.15) rotate(-21.83)"/>
    <ellipse class="cls-49" cx="288.64" cy="471.47" rx="84.4" ry="120.17" transform="translate(-154.63 141.15) rotate(-21.83)"/>
    <ellipse class="cls-49" cx="288.64" cy="471.47" rx="81.92" ry="116.64" transform="translate(-154.63 141.15) rotate(-21.83)"/>
    <ellipse class="cls-52" cx="288.64" cy="471.47" rx="79.43" ry="113.1" transform="translate(-154.63 141.15) rotate(-21.83)"/>
    <ellipse class="cls-52" cx="288.64" cy="471.47" rx="76.95" ry="109.57" transform="translate(-154.63 141.15) rotate(-21.83)"/>
    <ellipse class="cls-48" cx="288.64" cy="471.47" rx="74.47" ry="106.04" transform="translate(-154.63 141.15) rotate(-21.83)"/>
    <ellipse class="cls-48" cx="288.64" cy="471.47" rx="71.99" ry="102.5" transform="translate(-154.63 141.15) rotate(-21.83)"/>
    <ellipse class="cls-48" cx="288.64" cy="471.47" rx="69.5" ry="98.97" transform="translate(-154.63 141.15) rotate(-21.83)"/>
    <ellipse class="cls-48" cx="288.64" cy="471.47" rx="67.02" ry="95.43" transform="translate(-154.63 141.15) rotate(-21.83)"/>
    <ellipse class="cls-32" cx="288.64" cy="471.47" rx="64.54" ry="91.9" transform="translate(-154.63 141.15) rotate(-21.83)"/>
    <ellipse class="cls-46" cx="288.64" cy="471.47" rx="62.06" ry="88.36" transform="translate(-154.63 141.15) rotate(-21.83)"/>
    <ellipse class="cls-46" cx="288.64" cy="471.47" rx="59.57" ry="84.83" transform="translate(-154.63 141.15) rotate(-21.83)"/>
    <ellipse class="cls-46" cx="288.64" cy="471.47" rx="57.09" ry="81.29" transform="translate(-154.63 141.15) rotate(-21.83)"/>
    <ellipse class="cls-46" cx="288.64" cy="471.47" rx="54.61" ry="77.76" transform="translate(-154.63 141.15) rotate(-21.83)"/>
    <ellipse class="cls-46" cx="288.64" cy="471.47" rx="52.13" ry="74.22" transform="translate(-154.63 141.15) rotate(-21.83)"/>
    <ellipse class="cls-28" cx="288.64" cy="471.47" rx="49.65" ry="70.69" transform="translate(-154.63 141.15) rotate(-21.83)"/>
    <ellipse class="cls-28" cx="288.64" cy="471.47" rx="47.16" ry="67.16" transform="translate(-154.63 141.15) rotate(-21.83)"/>
    <ellipse class="cls-28" cx="288.64" cy="471.47" rx="44.68" ry="63.62" transform="translate(-154.63 141.15) rotate(-21.83)"/>
    <ellipse class="cls-28" cx="288.64" cy="471.47" rx="42.2" ry="60.09" transform="translate(-154.63 141.15) rotate(-21.83)"/>
    <ellipse class="cls-28" cx="288.64" cy="471.47" rx="39.72" ry="56.55" transform="translate(-154.63 141.15) rotate(-21.83)"/>
    <ellipse class="cls-28" cx="288.64" cy="471.47" rx="37.23" ry="53.02" transform="translate(-154.63 141.15) rotate(-21.83)"/>
    <ellipse class="cls-28" cx="288.64" cy="471.47" rx="34.75" ry="49.48" transform="translate(-154.63 141.15) rotate(-21.83)"/>
    <ellipse class="cls-28" cx="288.64" cy="471.47" rx="32.27" ry="45.95" transform="translate(-154.63 141.15) rotate(-21.83)"/>
    <ellipse class="cls-28" cx="288.64" cy="471.47" rx="29.79" ry="42.41" transform="translate(-154.63 141.15) rotate(-21.83)"/>
    <ellipse class="cls-28" cx="288.64" cy="471.47" rx="27.31" ry="38.88" transform="translate(-154.63 141.15) rotate(-21.83)"/>
    <ellipse class="cls-28" cx="288.64" cy="471.47" rx="24.82" ry="35.35" transform="translate(-154.63 141.15) rotate(-21.83)"/>
    <ellipse class="cls-28" cx="288.64" cy="471.47" rx="22.34" ry="31.81" transform="translate(-154.63 141.15) rotate(-21.83)"/>
    <ellipse class="cls-28" cx="288.64" cy="471.47" rx="19.86" ry="28.28" transform="translate(-154.63 141.15) rotate(-21.83)"/>
    <ellipse class="cls-28" cx="288.64" cy="471.47" rx="17.38" ry="24.74" transform="translate(-154.63 141.15) rotate(-21.83)"/>
    <path class="cls-28" d="M280.76,451.79c7.64-3.06,17.36,3.28,21.71,14.15s1.7,22.17-5.94,25.22c-7.64,3.06-17.36-3.28-21.71-14.15-4.36-10.87-1.7-22.17,5.94-25.22Z"/>
    <path class="cls-28" d="M282.07,455.07c6.36-2.55,14.46,2.73,18.09,11.79,3.63,9.06,1.41,18.47-4.95,21.02-6.36,2.55-14.46-2.73-18.09-11.79s-1.41-18.47,4.95-21.02Z"/>
    <path class="cls-28" d="M283.38,458.35c5.09-2.04,11.57,2.18,14.47,9.43,2.9,7.25,1.13,14.78-3.96,16.82s-11.57-2.18-14.47-9.43c-2.9-7.25-1.13-14.78,3.96-16.82Z"/>
    <path class="cls-28" d="M284.7,461.63c3.82-1.53,8.68,1.64,10.86,7.07s.85,11.08-2.97,12.61c-3.82,1.53-8.68-1.64-10.86-7.07-2.18-5.44-.85-11.08,2.97-12.61Z"/>
    <path class="cls-28" d="M286.01,464.91c2.55-1.02,5.79,1.09,7.24,4.72,1.45,3.62.57,7.39-1.98,8.41-2.55,1.02-5.79-1.09-7.24-4.72-1.45-3.62-.57-7.39,1.98-8.41Z"/>
    <path class="cls-28" d="M287.33,468.19c1.27-.51,2.89.55,3.62,2.36.73,1.81.28,3.69-.99,4.2-1.27.51-2.89-.55-3.62-2.36-.73-1.81-.28-3.69.99-4.2Z"/>
  </g>
  <path class="cls-14" d="M264.82,418.82s9.02,38.02,16.42,47.93c7.4,9.91,31.51,1.78,41.86-5.92,10.35-7.69,7.84-26.04,7.84-26.04,0,0-35.06,25-66.12-15.98Z"/>
  <path class="cls-12" d="M327.39,442.78s-16.57,17.01-23.52,16.57c-6.95-.44-20.86-10.5-27.51-18.49-6.66-7.99-9.02-16.42-11.54-22.04-2.51-5.62-7.25-14.2-4.73-17.31,2.51-3.11,8.43,8.43,8.43,8.43,0,0-5.33-11.98-2.51-13.9,2.81-1.92,7.54,10.95,7.54,10.95,0,0-4.44-13.31-1.92-14.35,2.51-1.04,6.36,12.72,6.36,12.72,0,0-1.92-13.61.89-13.91,2.81-.29,2.07,13.76,3.99,15.09,1.92,1.33,4.88-8.28,7.4-5.62,2.51,2.66-4.29,10.5-2.07,16.12,2.22,5.62,10.5,18.78,14.35,20.71,3.85,1.92,14.5-18.64,19.08-22.78,4.59-4.14,9.32-4.29,11.98-2.51,2.66,1.77,2.96,24.11-6.21,30.32Z"/>
  <path class="cls-6" d="M277.45,382.82c10.14,8.5,20.2,14.85,30.85,18.55,10.65,3.7,19.82,4.73,21.6,8.28,1.78,3.55-8.58,46.74-13.32,60.94-4.73,14.2-16.27,34.91-16.27,53.55s6.8,28.11,6.8,28.11c0,0,43.19,27.81,61.54,27.22,18.34-.59,39.05-50.89,44.67-70.41,5.62-19.53,11.83-54.14,7.69-70.12-4.14-15.98-7.84-36.83-13.61-37.43-5.77-.59-16.12-.29-16.12-.29,0,0,20.97-17.7,27.57-26.75,6.6-9.05-135.41-7.12-141.4,8.34Z"/>
  <path class="cls-15" d="M214.57,650.48c-22.36-5.08-53.87-37.61-74.71-97.58-20.84-59.97-21.35-106.73-8.13-173.82,13.21-67.09,42.69-140.78,89.45-186.52,46.76-45.74,100.63-66.58,127.56-58.45,26.94,8.13,96.56,46.25,133.66,119.43,37.1,73.18,43.71,138.75,42.18,194.65-1.53,55.91-23.89,148.91-52.35,178.39-28.46,29.48-89.96,56.41-122.99,54.89-33.04-1.52-45.23-23.38-65.05-24.39-19.82-1.02-50.82-.51-69.63-6.61h0ZM154.16,484.85c15.38,17.45,42.01,7.1,47.33-6.81,5.33-13.91-11.24-34.32-20.71-46.74-9.47-12.43-16.57-39.94,7.69-52.96,24.26-13.02,40.83.59,53.84,12.72,13.02,12.13,14.2,34.32,13.31,52.66-.89,18.34,5.62,29.58,23.96,37.28,18.34,7.69,33.43,8.28,42.01,23.37,8.58,15.09-9.76,29.29-12.13,24.26-2.37-5.03-6.21-18.34-16.27-26.63-10.06-8.28-35.5-10.95-42.31-22.19-6.8-11.24-6.8-28.7-8.88-52.96-2.07-24.26-20.71-37.57-36.98-36.68-16.27.89-19.53,14.79-13.02,31.36,6.51,16.57,22.19,28.1,28.4,42.9,6.21,14.79-8.88,44.38-21.01,46.45-12.13,2.07-24.55,10.36-26.03,35.5-1.48,25.15,18.05,56.51,39.05,69.52,21.01,13.02,60.35,5.62,79.58,15.97,19.23,10.35,46.15,22.19,83.13,18.64,36.98-3.55,74.85-30.47,95.26-68.34,20.41-37.87,26.33-76.33,26.33-152.65s-10.95-111.24-36.69-165.97c-25.74-54.73-80.76-90.23-101.18-97.92-20.41-7.69-52.96-2.66-88.46,21-35.5,23.67-70.71,66.27-91.12,117.45-20.41,51.18-26.33,78.69-29.88,111.53-3.55,32.84-3.55,59.47,4.73,69.23Z"/>
  <path class="cls-2" d="M195.73,188.83c-5.62,0-4.73-20.12-18.34-33.73s-36.39-38.17-37.28-55.03c-.89-16.86,13.31-36.09,29.88-39.94,16.57-3.84,27.22,7.99,33.43,5.33,6.21-2.66,33.14-39.94,63.31-48.22,30.18-8.28,50.89,9.47,49.11,31.66-1.78,22.19-11.84,38.76-44.67,63.31-32.84,24.55-51.77,46.15-60.35,57.69-8.58,11.54-8.28,20.12-15.09,18.93Z"/>
  <path class="cls-15" d="M195.73,188.83c-5.62,0-4.73-20.12-18.34-33.73-5.74-5.74-13.12-13.44-19.8-21.68,2.17-10.34,6.87-23.75,16.84-27.43,16.86-6.21,22.15,6.9,37.87,1.48,15.71-5.42,39.05-34.61,61.83-30.47,15.33,2.79,10.43,18.17,2.43,31.09-1.72,1.35-3.52,2.72-5.39,4.12-32.84,24.55-51.77,46.15-60.35,57.69-8.58,11.54-8.28,20.12-15.09,18.93h0ZM355.78,117.24c-1.18-6.8,3.85-15.09,14.79-12.72,10.95,2.37,6.21,12.13-1.18,14.79-7.4,2.66-13.9,2.07-13.61-2.07h0ZM299.57,113.98c-2.96-11.24,24.56-28.7,37.28-24.55,12.72,4.14,7.99,19.23-.3,23.37-8.28,4.14-36.68,4.44-36.98,1.18Z"/>
  <path class="cls-15" d="M262.74,37.06c1.18,3.7,12.87,1.33,20.26,7.84,7.4,6.51,12.13,13.61,18.64,12.13s9.17-22.19-2.07-29.29c-11.24-7.1-38.02-4.14-36.83,9.32Z"/>
  <path class="cls-2" d="M288.83,666.89c-12.33-3.45-41.91,1.48-68.54-4.93-26.63-6.41-48.81-15.78-75.44-71.49-26.63-55.72-33.53-75.93-29.58-172.08,3.94-96.15,56.7-188.85,97.63-230.76,40.92-41.91,100.59-69.03,144.47-59.17,43.88,9.86,104.53,44.87,144.47,145.95,39.94,101.08,44.38,181.45,21.7,268.73-22.68,87.27-76.92,130.17-130.66,143.48-53.74,13.31-93.19-16.27-104.04-19.72h0ZM217.83,643.22c18.24,5.92,48.32,5.42,67.55,6.41,19.23.99,31.06,22.19,63.11,23.67,32.05,1.48,91.71-24.65,119.32-53.25,27.61-28.6,49.31-118.83,50.79-173.07,1.48-54.24-4.93-117.84-40.92-188.85-35.99-71-103.54-107.98-129.68-115.87-26.13-7.89-78.4,12.33-123.76,56.7-45.36,44.38-73.96,115.87-86.78,180.96-12.82,65.09-12.33,110.45,7.89,168.63,20.22,58.18,50.79,89.74,72.48,94.67Z"/>
  <path class="cls-5" d="M283.61,570.73s23.37,21.6,38.16,28.4c14.79,6.8,28.11,7.69,35.5,7.4,7.4-.3-9.17-41.71-9.17-41.71,0,0-39.64-24.26-52.66-34.02-13.02-9.76-18.64-20.41-27.51-16.86-8.87,3.55-4.73,39.64,15.68,56.8Z"/>
  <path class="cls-18" d="M272.96,519.26s7.69,20.71,14.79,39.94c7.1,19.23,13.02,30.47,14.5,39.05,1.48,8.58,1.33,13.91-.74,15.53-2.07,1.63-1.78-.74-4.14.74-2.37,1.48-.15,3.85-3.25,4.44-3.11.59-2.51-1.48-5.32-.44-2.81,1.04-1.63,1.77-6.21,2.37-4.59.59-1.48-7.69-5.92-16.71-4.44-9.02-10.95-24.85-17.46-33.43-6.51-8.58-14.2-52.36,13.76-51.48Z"/>
  <path class="cls-3" d="M291.15,391.6c-11.84-4.73-19.82-12.72-23.37-27.22-3.55-14.5,4.44-18.64,2.66-38.76-1.77-20.12.3-47.63,8.87-67.16,8.58-19.53,36.69-47.33,75.74-52.36,39.05-5.03,79.29,41.12,86.09,75.74,6.8,34.61-2.37,83.72-30.77,98.52-28.4,14.79-59.46,34.32-119.22,11.24Z"/>
  <path class="cls-17" d="M268.45,347.08c1.33-5.35,2.88-11.41,1.99-21.46-.71-8.03-.8-17.23-.12-26.64,12.36-1.65,30.04-3.42,42.79-2.19,21.6,2.07,60.35-7.1,66.57,13.31,6.21,20.41-19.23,34.91-44.08,30.18-24.85-4.73-39.13-8.7-52.66-2.96-6.84,2.9-10.62,6.88-14.48,9.75Z"/>
  <path class="cls-13" d="M273.27,277.83c1.48-6.89,3.47-13.48,6.04-19.35,8.58-19.53,36.69-47.33,75.74-52.36,39.05-5.03,79.29,41.12,86.09,75.74,1.58,8.05,2.3,16.87,2.11,25.87-4.76-35.52-25.42-58.55-63.29-73.93-37.85-15.38-97.59,1.76-106.69,44.04Z"/>
  <path class="cls-19" d="M290.11,376.74c-.37,2.29,5.33,4.88,9.02,3.48,3.7-1.41,5.69-2.59,5.03-3.92-.66-1.33-3.77.22-6.88.3-3.11.07-6.73-2.44-7.17.15h0ZM411.99,312.17s11.83-12.72,18.05-4.14c6.21,8.58-12.57,40.68-12.57,40.68,0,0,22.34-27.66,17.16-40.68-5.18-13.02-19.97-4.44-22.63,4.14h0ZM272.8,327.04s3.4,3.7,7.54,2.51c4.14-1.18,5.77-3.85,5.77-3.85,0,0-.59,4.73-4.44,5.99-3.85,1.26-8.87-.67-8.87-4.66h0ZM287,351.37c-.74,1.63.89,5.77,7.69,5.92,6.8.15,10.35-1.63,10.35-1.63,0,0-6.51,5.47-12.87,4.59-6.36-.89-7.99-6.95-5.18-8.87h0ZM331.82,319.72s1.63,4.29,11.24,5.18c9.62.89,13.31-3.85,13.31-3.85,0,0-4.88,8.58-12.57,8.14-7.69-.44-12.43-6.95-11.98-9.47Z"/>
  <path class="cls-7" d="M305.04,533.91s-18.49-20.41-32.84-27.81c-14.35-7.4-34.91.15-33.73,17.6,1.18,17.45,15.73,38.45,18.8,43.52,3.06,5.07,12.81-1.74,14.02-12.13,1.21-10.39-.53-33.78,1.67-35.84,2.2-2.06,19.95,15.84,24.68,21.75,4.73,5.92,10.95-3.11,7.4-7.1Z"/>
  <path class="cls-4" d="M331.71,425.58c1.76,6.59,3.42,33.27,8.3,45.26,4.88,11.98,18.79,22.93,32.39,18.49,13.61-4.44,40.83-38.02,42.68-43.42,1.85-5.4-26.85,3.92-26.85,3.92,0,0-25.29,20.12-33.87,14.94-8.58-5.18-15.09-26.03-22.65-39.19Z"/>
  <path class="cls-10" d="M252.52,582.28c-5.85,3.04-11.32,3.78-14.57,4.07-3.25.3-7.25-2.81-11.24-.15-3.99,2.66-1.04,6.95,1.04,8.73,2.07,1.78-1.18,4.29,2.37,6.95,3.55,2.66,6.51,5.33,7.84,7.4,1.33,2.07,11.98,3.7,15.09,2.66,3.11-1.04,6.95-.74,11.39-.89,4.44-.15,6.71-2.25,12.23-6.9,5.52-4.64,20.75-18.25,28.59-24.46,7.84-6.21,13.76-13.02,13.76-13.02,0,0,18.05,38.9,40.68,40.83,22.63,1.92,28.84-1.77,35.5-8.14,6.66-6.36,12.19-19.44,14.3-24.43,2.11-4.99-26.28-2.49-34.12-11.81-7.84-9.32-19.08-23.67-25.74-26.18-6.66-2.51-46.45,17.6-56.51,24.85-10.06,7.25-27.68,22.3-40.6,20.48Z"/>
  <path class="cls-16" d="M407.4,401.52c8.57,1.19,17.74,5.33,19.52,27.22,1.78,21.89-.3,71.3-5.03,101.18-4.73,29.88-15.38,60.35-26.63,60.94-11.24.59-28.7-20.12-36.68-29.58-7.99-9.47-14.5-16.86-22.48-16.27-7.99.59-26.29,13.17-34.91,23.37-8.62,10.21-23.08,15.83-32.1,15.83s-16.57-1.92-16.57-1.92c0,0,23.96-16.42,34.91-30.62,10.95-14.2,30.47-41.27,38.02-45.71,7.54-4.44,24.85,2.07,33.43,12.28,8.58,10.21,15.83,19.38,15.83,19.38,0,0,17.3-16.86,27.66-43.49,10.36-26.63,12.72-48.22,12.72-48.22,0,0-27.71,24.89-46.45,26.63-18.74,1.73-28.11-15.68-31.06-25.44-2.96-9.76-10.06-38.61-12.13-42.9-2.07-4.29-4.31-3.42-3.48-.96.83,2.46,1.04,7.1-.66,7.84-1.7.74-5.18-3.11-6.58-7.1-1.41-3.99-.89-8.65.37-10.28,1.26-1.63,3.7-.22,4.95-1.78,1.26-1.55,1.26-4.88,3.7-5.55,2.44-.66,5.55,1.04,7.17.44,1.63-.59,2.74-2.14,4.88-1.33,2.14.81,18.12,21.6,21.97,34.32,3.85,12.72,6.8,31.36,6.8,31.36,0,0,27.36-47.33,42.83-49.64Z"/>
  <path class="cls-8" d="M266.4,571.88c7.24-5.82,15.69-13.28,21.03-20.21,10.95-14.2,30.47-41.27,38.02-45.71,7.54-4.44,24.85,2.07,33.43,12.28,8.58,10.21,15.83,19.38,15.83,19.38-.67,13.46-9.14,13.84-21.46,1.46-12.32-12.38-21.95-21.13-37.62-5.45-15.67,15.67-49.18,38.23-49.22,38.25Z"/>
  <path class="cls-1" d="M335.8,385.48c2.14.81,18.12,21.6,21.97,34.32,3.85,12.72,6.8,31.36,6.8,31.36,0,0,27.36-47.33,42.83-49.64,3.92,1.03,10.43,5.78,3.48,20.86-6.95,15.09-42.6,42.9-48.37,38.31-5.77-4.59-9.02-26.77-10.65-41.72-1.63-14.94-16.06-33.5-16.06-33.5Z"/>
  <path class="cls-11" d="M374.71,537.61s1.3-1.26,3.39-3.64c5.01,9.13,6.74,23.4,6.74,23.4,0,0-5.92-12.28-10.13-19.75Z"/>
  <path class="cls-2" d="M143.44,422.09s-4.73,50,6.21,67.75c10.95,17.75,37.57,14.2,48.52.59,10.95-13.61,10.35-27.81,4.73-34.02-5.62-6.21-17.45-25.44-17.45-25.44,0,0,20.41,16.27,26.33,32.54,5.92,16.27-2.37,34.02-18.05,43.49-15.68,9.47-36.68,25.74-27.22,57.69,9.47,31.95,21.89,51.18,21.89,51.18,0,0-25.31-35.89-39.43-73.86-14.12-37.97-15.28-99.81-5.54-119.92Z"/>
</svg>