<?xml version="1.0" encoding="UTF-8"?>
<svg id="Layer_1" data-name="Layer 1" xmlns="http://www.w3.org/2000/svg" xmlns:xlink="http://www.w3.org/1999/xlink" viewBox="0 0 537 785">
  <defs>
    <style>
      .cls-1 {
        fill: url(#GradientFill_5-3);
      }

      .cls-1, .cls-2, .cls-3, .cls-4, .cls-5, .cls-6, .cls-7, .cls-8, .cls-9, .cls-10, .cls-11, .cls-12, .cls-13, .cls-14, .cls-15, .cls-16, .cls-17, .cls-18, .cls-19, .cls-20 {
        fill-rule: evenodd;
      }

      .cls-2 {
        fill: #f38155;
      }

      .cls-3 {
        fill: url(#GradientFill_4-4);
      }

      .cls-21 {
        fill: #490420;
      }

      .cls-22 {
        fill: #62062b;
      }

      .cls-23 {
        fill: #3b031a;
      }

      .cls-4 {
        fill: url(#GradientFill_4);
      }

      .cls-5 {
        fill: url(#GradientFill_2-4);
      }

      .cls-24 {
        fill: #3f041c;
      }

      .cls-6 {
        fill: url(#GradientFill_2-2);
      }

      .cls-25 {
        fill: #40041c;
      }

      .cls-26 {
        fill: #750733;
      }

      .cls-27 {
        fill: #45041e;
      }

      .cls-7 {
        fill: url(#GradientFill_3-2);
      }

      .cls-8 {
        fill: url(#GradientFill_3-3);
      }

      .cls-28 {
        fill: #5c0528;
      }

      .cls-9 {
        fill: url(#GradientFill_4-5);
      }

      .cls-29 {
        fill: #360318;
      }

      .cls-30 {
        fill: #3c031b;
      }

      .cls-31 {
        fill: #480420;
      }

      .cls-32 {
        fill: #69062e;
      }

      .cls-33 {
        fill: #370319;
      }

      .cls-10 {
        fill: url(#GradientFill_5-2);
      }

      .cls-34 {
        fill: #5f0629;
      }

      .cls-11 {
        fill: #43262a;
      }

      .cls-35 {
        fill: #4d0422;
      }

      .cls-36 {
        fill: #510524;
      }

      .cls-37 {
        fill: #3e031b;
      }

      .cls-38 {
        fill: #42041d;
      }

      .cls-39 {
        fill: #590527;
      }

      .cls-40 {
        fill: #540525;
      }

      .cls-41 {
        fill: #560526;
      }

      .cls-12 {
        fill: url(#GradientFill_3);
      }

      .cls-42 {
        clip-rule: evenodd;
        fill: none;
      }

      .cls-43 {
        fill: #41041d;
      }

      .cls-44 {
        fill: #3d031b;
      }

      .cls-45 {
        fill: #43041e;
      }

      .cls-13 {
        fill: url(#GradientFill_5);
      }

      .cls-14 {
        fill: url(#GradientFill_2);
      }

      .cls-15 {
        fill: #e36b00;
      }

      .cls-46 {
        fill: #710731;
      }

      .cls-47 {
        fill: #370318;
      }

      .cls-48 {
        fill: #4f0523;
      }

      .cls-49 {
        fill: #380319;
      }

      .cls-50 {
        fill: #3a031a;
      }

      .cls-51 {
        fill: #6d062f;
      }

      .cls-16 {
        fill: url(#GradientFill_4-2);
      }

      .cls-17 {
        fill: url(#GradientFill_2-3);
      }

      .cls-52 {
        fill: #46041f;
      }

      .cls-18 {
        fill: url(#GradientFill_5-4);
      }

      .cls-53 {
        fill: #390319;
      }

      .cls-54 {
        clip-path: url(#clippath);
      }

      .cls-19 {
        fill: url(#GradientFill_4-3);
      }

      .cls-55 {
        fill: #65062c;
      }

      .cls-56 {
        fill: #4b0421;
      }

      .cls-20 {
        fill: #d23c41;
      }
    </style>
    <clipPath id="clippath">
      <path class="cls-42" d="M106.08,377.56s33.64-57.42,75.98-66.7c42.34-9.28,142.09,17.98,174,75.98,31.9,58,49.81,106.06,38.86,189.07-10.95,83.02-43.53,115.61-75.4,122.38-31.86,6.77-137.94-14.25-160.32-23.66-22.38-9.41-68.19-79.01-75.74-118.15-7.54-39.14-8.54-121.64,22.62-178.92Z"/>
    </clipPath>
    <linearGradient id="GradientFill_2" data-name="GradientFill 2" x1="248.92" y1="482.77" x2="173.13" y2="490.49" gradientUnits="userSpaceOnUse">
      <stop offset="0" stop-color="#d43d42"/>
      <stop offset="1" stop-color="#f47856"/>
    </linearGradient>
    <linearGradient id="GradientFill_3" data-name="GradientFill 3" x1="217.41" y1="407.17" x2="218.78" y2="495.21" gradientUnits="userSpaceOnUse">
      <stop offset="0" stop-color="#f68f69"/>
      <stop offset="1" stop-color="#f47856"/>
    </linearGradient>
    <linearGradient id="GradientFill_3-2" data-name="GradientFill 3" x1="243.46" y1="36.25" x2="280.98" y2="638.68" xlink:href="#GradientFill_3"/>
    <linearGradient id="GradientFill_3-3" data-name="GradientFill 3" x1="203.92" y1="418.71" x2="210.87" y2="635.88" xlink:href="#GradientFill_3"/>
    <linearGradient id="GradientFill_2-2" data-name="GradientFill 2" x1="213" y1="596.49" x2="201.55" y2="639.05" xlink:href="#GradientFill_2"/>
    <linearGradient id="GradientFill_4" data-name="GradientFill 4" x1="217.83" y1="540.02" x2="219.22" y2="605.66" gradientUnits="userSpaceOnUse">
      <stop offset="0" stop-color="#f9a976"/>
      <stop offset="1" stop-color="#f58759"/>
    </linearGradient>
    <linearGradient id="GradientFill_5" data-name="GradientFill 5" x1="233.56" y1="549.72" x2="186.32" y2="590.41" gradientUnits="userSpaceOnUse">
      <stop offset="0" stop-color="#f9a976"/>
      <stop offset="1" stop-color="#fcc9a4"/>
    </linearGradient>
    <linearGradient id="GradientFill_4-2" data-name="GradientFill 4" x1="253.16" y1="440.14" x2="278.98" y2="287.38" xlink:href="#GradientFill_4"/>
    <linearGradient id="GradientFill_4-3" data-name="GradientFill 4" x1="216.5" y1="344.55" x2="247.83" y2="390.79" xlink:href="#GradientFill_4"/>
    <linearGradient id="GradientFill_5-2" data-name="GradientFill 5" x1="192.17" y1="343.43" x2="311.64" y2="316.91" xlink:href="#GradientFill_5"/>
    <linearGradient id="GradientFill_4-4" data-name="GradientFill 4" x1="285.13" y1="456.77" x2="290.07" y2="613.71" xlink:href="#GradientFill_4"/>
    <linearGradient id="GradientFill_5-3" data-name="GradientFill 5" x1="292.6" y1="559.89" x2="253.45" y2="611.7" xlink:href="#GradientFill_5"/>
    <linearGradient id="GradientFill_2-3" data-name="GradientFill 2" x1="375.54" y1="464.04" x2="258.82" y2="510.62" xlink:href="#GradientFill_2"/>
    <linearGradient id="GradientFill_4-5" data-name="GradientFill 4" x1="291.21" y1="427.78" x2="292.38" y2="502" xlink:href="#GradientFill_4"/>
    <linearGradient id="GradientFill_5-4" data-name="GradientFill 5" x1="313" y1="445.61" x2="287.79" y2="475.27" xlink:href="#GradientFill_5"/>
    <linearGradient id="GradientFill_2-4" data-name="GradientFill 2" x1="269.27" y1="612.27" x2="261.03" y2="653.49" xlink:href="#GradientFill_2"/>
  </defs>
  <path class="cls-11" d="M211.48,687.62c-21.52-5.67-64.27-.89-80.63-16.12-16.37-15.22-46.08-48.95-55.78-111.94-9.7-62.98-3.94-153.73,24.25-214.92,28.19-61.19,69.11-117.01,135.8-143.58,66.69-26.57,112.77-13.43,156.11,44.18,43.35,57.61,64.57,122.09,70.93,172.23,6.37,50.15,7.88,110.74-7.58,160.89-15.46,50.15-50.52,109.63-105.19,130.44-54.67,20.81-120.04-17.91-137.92-21.19Z"/>
  <g class="cls-54">
    <rect class="cls-26" x="74.92" y="301.58" width="330.94" height="403.48"/>
    <path class="cls-26" d="M172.14,335.9c83.22-28.52,178.76,30.28,213.4,131.33,17.32,50.53,16.13,102.06.21,144.51-15.92,42.46-46.57,75.85-88.18,90.11-20.81,7.13-42.38,8.8-63.58,5.72-21.2-3.08-42.03-10.91-61.34-22.8-38.62-23.77-71.16-63.73-88.48-114.26-8.66-25.26-12.69-50.78-12.57-75.28.12-24.51,4.4-48,12.36-69.23,15.92-42.46,46.57-75.85,88.18-90.11Z"/>
    <path class="cls-46" d="M173.13,338.8c81.9-28.07,175.93,29.8,210.01,129.25,17.04,49.73,15.88,100.44.21,142.22s-45.83,74.65-86.78,88.68c-40.95,14.04-84.93,6.59-122.94-16.8-38.01-23.39-70.03-62.72-87.08-112.45-17.04-49.73-15.88-100.44-.21-142.22s45.83-74.65,86.78-88.68Z"/>
    <path class="cls-51" d="M174.13,341.7c80.58-27.62,173.09,29.32,206.63,127.16,16.77,48.92,15.62,98.82.21,139.93-15.41,41.11-45.09,73.44-85.38,87.25-40.29,13.81-83.56,6.48-120.95-16.53-37.39-23.01-68.9-61.71-85.67-110.63-16.77-48.92-15.62-98.82-.21-139.93,15.41-41.11,45.09-73.44,85.38-87.25Z"/>
    <path class="cls-32" d="M175.13,344.61c79.26-27.17,170.25,28.83,203.24,125.08,32.99,96.25-4.52,196.29-83.78,223.46-39.63,13.58-82.19,6.37-118.97-16.26-36.78-22.64-67.77-60.7-84.27-108.82-16.49-48.12-15.36-97.2-.2-137.63,15.16-40.44,44.35-72.24,83.98-85.82Z"/>
    <path class="cls-55" d="M176.12,347.51c77.94-26.71,167.41,28.35,199.85,123,32.44,94.64-4.45,193.02-82.38,219.73-38.97,13.36-80.82,6.27-116.99-15.99s-66.65-59.68-82.86-107.01c-16.22-47.32-15.11-95.58-.2-135.34,14.91-39.76,43.61-71.04,82.58-84.39Z"/>
    <path class="cls-22" d="M177.12,350.42c76.62-26.26,164.58,27.87,196.47,120.91,31.89,93.04-4.37,189.75-80.99,216.01-38.31,13.13-79.45,6.16-115.01-15.72-35.55-21.88-65.52-58.67-81.46-105.19-15.94-46.52-14.85-93.96-.2-133.05,14.66-39.09,42.87-69.83,81.18-82.96Z"/>
    <ellipse class="cls-34" cx="234.86" cy="518.88" rx="144.12" ry="175.01" transform="translate(-155.55 104.18) rotate(-18.92)"/>
    <ellipse class="cls-28" cx="234.86" cy="518.88" rx="141.59" ry="171.94" transform="translate(-155.55 104.18) rotate(-18.92)"/>
    <ellipse class="cls-39" cx="234.86" cy="518.88" rx="139.06" ry="168.87" transform="translate(-155.55 104.18) rotate(-18.92)"/>
    <ellipse class="cls-41" cx="234.86" cy="518.88" rx="136.53" ry="165.8" transform="translate(-155.55 104.18) rotate(-18.92)"/>
    <ellipse class="cls-40" cx="234.86" cy="518.88" rx="134.01" ry="162.73" transform="translate(-155.55 104.18) rotate(-18.92)"/>
    <ellipse class="cls-36" cx="234.86" cy="518.88" rx="131.48" ry="159.66" transform="translate(-155.55 104.18) rotate(-18.92)"/>
    <ellipse class="cls-48" cx="234.86" cy="518.88" rx="128.95" ry="156.59" transform="translate(-155.55 104.18) rotate(-18.92)"/>
    <ellipse class="cls-35" cx="234.86" cy="518.88" rx="126.42" ry="153.52" transform="translate(-155.55 104.18) rotate(-18.92)"/>
    <ellipse class="cls-56" cx="234.86" cy="518.88" rx="123.89" ry="150.45" transform="translate(-155.55 104.18) rotate(-18.92)"/>
    <ellipse class="cls-21" cx="234.86" cy="518.88" rx="121.36" ry="147.38" transform="translate(-155.55 104.18) rotate(-18.92)"/>
    <ellipse class="cls-31" cx="234.86" cy="518.88" rx="118.84" ry="144.31" transform="translate(-155.55 104.18) rotate(-18.92)"/>
    <ellipse class="cls-52" cx="234.86" cy="518.88" rx="116.31" ry="141.24" transform="translate(-155.55 104.18) rotate(-18.92)"/>
    <ellipse class="cls-27" cx="234.86" cy="518.88" rx="113.78" ry="138.17" transform="translate(-155.55 104.18) rotate(-18.92)"/>
    <ellipse class="cls-45" cx="234.86" cy="518.88" rx="111.25" ry="135.09" transform="translate(-155.55 104.18) rotate(-18.92)"/>
    <ellipse class="cls-38" cx="234.86" cy="518.88" rx="108.72" ry="132.02" transform="translate(-155.55 104.18) rotate(-18.92)"/>
    <ellipse class="cls-43" cx="234.86" cy="518.88" rx="106.19" ry="128.95" transform="translate(-155.55 104.18) rotate(-18.92)"/>
    <ellipse class="cls-25" cx="234.86" cy="518.88" rx="103.67" ry="125.88" transform="translate(-155.55 104.18) rotate(-18.92)"/>
    <ellipse class="cls-24" cx="234.86" cy="518.88" rx="101.14" ry="122.81" transform="translate(-155.55 104.18) rotate(-18.92)"/>
    <ellipse class="cls-37" cx="234.86" cy="518.88" rx="98.61" ry="119.74" transform="translate(-155.55 104.18) rotate(-18.92)"/>
    <ellipse class="cls-44" cx="234.86" cy="518.88" rx="96.08" ry="116.67" transform="translate(-155.55 104.18) rotate(-18.92)"/>
    <ellipse class="cls-30" cx="234.86" cy="518.88" rx="93.55" ry="113.6" transform="translate(-155.55 104.18) rotate(-18.92)"/>
    <ellipse class="cls-23" cx="234.86" cy="518.88" rx="91.02" ry="110.53" transform="translate(-155.55 104.18) rotate(-18.92)"/>
    <ellipse class="cls-23" cx="234.86" cy="518.88" rx="88.49" ry="107.46" transform="translate(-155.55 104.18) rotate(-18.92)"/>
    <ellipse class="cls-50" cx="234.86" cy="518.88" rx="85.97" ry="104.39" transform="translate(-155.55 104.18) rotate(-18.92)"/>
    <ellipse class="cls-50" cx="234.86" cy="518.88" rx="83.44" ry="101.32" transform="translate(-155.55 104.18) rotate(-18.92)"/>
    <ellipse class="cls-53" cx="234.86" cy="518.88" rx="80.91" ry="98.25" transform="translate(-155.55 104.18) rotate(-18.92)"/>
    <ellipse class="cls-53" cx="234.86" cy="518.88" rx="78.38" ry="95.18" transform="translate(-155.55 104.18) rotate(-18.92)"/>
    <ellipse class="cls-49" cx="234.86" cy="518.88" rx="75.85" ry="92.11" transform="translate(-155.55 104.18) rotate(-18.92)"/>
    <ellipse class="cls-49" cx="234.86" cy="518.88" rx="73.32" ry="89.04" transform="translate(-155.55 104.18) rotate(-18.92)"/>
    <ellipse class="cls-49" cx="234.86" cy="518.88" rx="70.8" ry="85.97" transform="translate(-155.55 104.18) rotate(-18.92)"/>
    <ellipse class="cls-49" cx="234.86" cy="518.88" rx="68.27" ry="82.9" transform="translate(-155.55 104.18) rotate(-18.92)"/>
    <ellipse class="cls-33" cx="234.86" cy="518.88" rx="65.74" ry="79.83" transform="translate(-155.55 104.18) rotate(-18.92)"/>
    <ellipse class="cls-47" cx="234.86" cy="518.88" rx="63.21" ry="76.76" transform="translate(-155.55 104.18) rotate(-18.92)"/>
    <ellipse class="cls-47" cx="234.86" cy="518.88" rx="60.68" ry="73.69" transform="translate(-155.55 104.18) rotate(-18.92)"/>
    <ellipse class="cls-47" cx="234.86" cy="518.88" rx="58.15" ry="70.62" transform="translate(-155.55 104.18) rotate(-18.92)"/>
    <ellipse class="cls-47" cx="234.86" cy="518.88" rx="55.63" ry="67.55" transform="translate(-155.55 104.18) rotate(-18.92)"/>
    <ellipse class="cls-47" cx="234.86" cy="518.88" rx="53.1" ry="64.48" transform="translate(-155.55 104.18) rotate(-18.92)"/>
    <ellipse class="cls-29" cx="234.86" cy="518.88" rx="50.57" ry="61.41" transform="translate(-155.55 104.18) rotate(-18.92)"/>
    <ellipse class="cls-29" cx="234.86" cy="518.88" rx="48.04" ry="58.34" transform="translate(-155.55 104.18) rotate(-18.92)"/>
    <ellipse class="cls-29" cx="234.86" cy="518.88" rx="45.51" ry="55.27" transform="translate(-155.55 104.18) rotate(-18.92)"/>
    <ellipse class="cls-29" cx="234.86" cy="518.88" rx="42.98" ry="52.2" transform="translate(-155.55 104.18) rotate(-18.92)"/>
    <ellipse class="cls-29" cx="234.86" cy="518.88" rx="40.45" ry="49.13" transform="translate(-155.55 104.18) rotate(-18.92)"/>
    <ellipse class="cls-29" cx="234.86" cy="518.88" rx="37.93" ry="46.05" transform="translate(-155.55 104.18) rotate(-18.92)"/>
    <ellipse class="cls-29" cx="234.86" cy="518.88" rx="35.4" ry="42.98" transform="translate(-155.55 104.18) rotate(-18.92)"/>
    <ellipse class="cls-29" cx="234.86" cy="518.88" rx="32.87" ry="39.91" transform="translate(-155.55 104.18) rotate(-18.92)"/>
    <ellipse class="cls-29" cx="234.86" cy="518.88" rx="30.34" ry="36.84" transform="translate(-155.55 104.18) rotate(-18.92)"/>
    <ellipse class="cls-29" cx="234.86" cy="518.88" rx="27.81" ry="33.77" transform="translate(-155.55 104.18) rotate(-18.92)"/>
    <ellipse class="cls-29" cx="234.86" cy="518.88" rx="25.28" ry="30.7" transform="translate(-155.55 104.18) rotate(-18.92)"/>
    <ellipse class="cls-29" cx="234.86" cy="518.88" rx="22.76" ry="27.63" transform="translate(-155.55 104.18) rotate(-18.92)"/>
    <ellipse class="cls-29" cx="234.86" cy="518.88" rx="20.23" ry="24.56" transform="translate(-155.55 104.18) rotate(-18.92)"/>
    <ellipse class="cls-29" cx="234.86" cy="518.88" rx="17.7" ry="21.49" transform="translate(-155.55 104.18) rotate(-18.92)"/>
    <ellipse class="cls-29" cx="234.86" cy="518.88" rx="15.17" ry="18.42" transform="translate(-155.55 104.18) rotate(-18.92)"/>
    <ellipse class="cls-29" cx="234.86" cy="518.88" rx="12.64" ry="15.35" transform="translate(-155.55 104.18) rotate(-18.92)"/>
    <path class="cls-29" d="M230.87,507.26c5.28-1.81,11.35,1.92,13.55,8.34,2.2,6.42-.3,13.09-5.59,14.9-5.28,1.81-11.35-1.92-13.55-8.34-2.2-6.42.3-13.09,5.59-14.9Z"/>
    <path class="cls-29" d="M231.87,510.16c3.96-1.36,8.51,1.44,10.16,6.25,1.65,4.81-.23,9.81-4.19,11.17-3.96,1.36-8.51-1.44-10.16-6.25-1.65-4.81.23-9.81,4.19-11.17Z"/>
    <path class="cls-29" d="M232.86,513.07c2.64-.91,5.68.96,6.77,4.17,1.1,3.21-.15,6.54-2.79,7.45s-5.68-.96-6.77-4.17.15-6.54,2.79-7.45Z"/>
    <path class="cls-29" d="M233.86,515.97c1.32-.45,2.84.48,3.39,2.08.55,1.6-.08,3.27-1.4,3.72s-2.84-.48-3.39-2.08.08-3.27,1.4-3.72Z"/>
  </g>
  <path class="cls-14" d="M252.36,465.1s-25.95,17.98-31.9,20.73c-5.94,2.75-20.44-10.29-22.76-11.6-2.32-1.31-.58-9.72-3.19-11.31-2.61-1.6-3.63,5.94-3.63,5.94,0,0-1.59-7.54-3.77-7.97-2.17-.44-1.16,9.86-1.16,9.86,0,0-3.05-5.95-4.35-4.35-1.31,1.6,0,12.9,3.05,18.27,3.04,5.37,21.49,27.25,29,29,7.51,1.75,17.69-2.75,23.92-4.78,6.24-2.03,11.31-1.45,14.65-6.52,3.34-5.07,5.94-38.71.15-37.26Z"/>
  <path class="cls-12" d="M252.36,465.1s-25.95,17.98-31.9,20.73c-5.94,2.75-20.44-10.29-22.76-11.6-2.32-1.31-.58-9.72-3.19-11.31-2.61-1.6-3.63,5.94-3.63,5.94,0,0-1.59-7.54-3.77-7.97-2.17-.44-1.16,9.86-1.16,9.86,0,0-3.05-5.95-4.35-4.35-.81.98-.62,5.66.36,10.36,3.58,5.93,9.07,12.25,17.04,14.87,16.82,5.51,30.85,9.57,43.79-.58,5.71-4.48,9.99-9.46,12.99-13.64-.01-7.19-.96-12.93-3.43-12.32Z"/>
  <path class="cls-7" d="M207.12,437.99c7.83,7.83,22.62,11.6,29.29,13.34,6.67,1.74,13.05,2.03,13.05,2.03,0,0-.29,25.23-1.16,42.63-.87,17.4-14.35,43.97-12.76,62.64,1.59,18.67,14.79,32.19,14.79,32.19l-6.53,17.69s-7.69,4.79-11.45,10.73c-3.77,5.95-5.95,9.86-11.45,13.92-5.51,4.06-13.05,7.83-13.92,10.29-.87,2.47,2.9,2.32,4.35,4.78s4.35,2.9,6.38,5.66c2.03,2.75,7.97,4.06,11.74,2.46,3.77-1.6,8.99-.58,12.33-6.67,3.34-6.09,5.51-10.01,11.02-17.84,5.51-7.83,12.62-14.79,17.26-19.43,4.64-4.64,10.58.15,14.06,2.18,3.48,2.03,16.53,4.93,29.29-1.02,12.76-5.95,16.68-11.46,18.27-15.08,1.59-3.62,2.32-27.99,4.64-41.62,2.32-13.63,4.64-63.94,2.03-76.7-2.61-12.76-19.43-40.31-19.43-40.31,0,0,5.22-4.35,11.31-15.95,6.09-11.6,8.07-20.29,10.16-26.73,2.09-6.44-132.25,18.61-133.26,40.8Z"/>
  <path class="cls-8" d="M242.35,548.91s-20.3,5.8-35.67,12.18c-15.37,6.38-17.69,11.89-19.43,21.75-1.74,9.86-4.64,37.12-6.38,42.63-1.74,5.51-15.08,6.67-17.11,11.6-2.03,4.93,7.83,5.22,14.21,5.22s16.24-1.45,18.85-7.54c2.61-6.09,5.51-26.68,16.53-32.19,11.02-5.51,30.74-1.16,37.99-5.51,7.25-4.35,8.7-46.98-8.99-48.14Z"/>
  <path class="cls-6" d="M166.79,634.1c-1.43.85-2.54,1.8-3.02,2.96-2.03,4.93,7.83,5.22,14.21,5.22s16.24-1.45,18.85-7.54c2.61-6.09,5.51-26.68,16.53-32.19,10.08-5.04,27.45-1.83,35.88-4.58,2.79-5.6,5.36-11.18,4.09-10.37-2.47,1.56-31.03-4.06-43.37,7.99-12.34,12.05-12.17,36.4-24.78,41.31-7.02,2.73-13.78.08-18.39-2.8Z"/>
  <path class="cls-4" d="M236.17,546.67s-14.11,8.04-29.48,14.42c-15.37,6.38-17.69,11.89-19.43,21.75-.94,5.36-2.23,15.85-3.49,25.2,2.77-.41,6.2-1.87,9.58-5.77,7.54-8.7,13.05-18.56,25.23-22.33,12.18-3.77,24.45-1.1,28.71-5.8,2.01-2.22,4.8-8.12,6.48-14.36-2.19-6.06-12.04-12.75-17.59-13.11Z"/>
  <path class="cls-13" d="M236.17,546.67s-14.11,8.04-29.48,14.42c-15.37,6.38-17.69,11.89-19.43,21.75-.94,5.36-2.23,15.85-3.49,25.2,0,0,6.63-30,15.33-34.06,8.16-3.81,46.29-11.34,37.54-27.26-.16-.02-.31-.03-.47-.04Z"/>
  <path class="cls-15" d="M211.48,687.62c-21.52-5.67-64.27-.89-80.63-16.12-16.37-15.22-46.08-48.95-55.78-111.94-9.7-62.98-3.94-153.73,24.25-214.92,28.19-61.19,69.11-117.01,135.8-143.58,66.69-26.57,112.76-13.43,156.11,44.18,43.35,57.61,64.56,122.09,70.93,172.23,6.37,50.15,7.88,110.74-7.58,160.89-15.46,50.15-50.52,109.63-105.19,130.44-54.66,20.81-120.04-17.91-137.92-21.19h0ZM99.99,507.48c8.12,19.14,26.97,17.4,35.38,20.88,8.41,3.48,14.5,9.57,18.56,13.63,4.06,4.06,19.72,4.64,26.1-1.45,6.38-6.09,12.18-21.46,28.71-24.94,16.53-3.48,29.29,6.67,35.96,14.5,6.67,7.83,9.57,19.14,17.11,22.91,7.54,3.77,10.73,15.66,10.73,15.66,0,0-2.61,12.47-15.37,4.93-12.76-7.54-17.69-22.04-22.91-30.16-5.22-8.12-16.24-13.92-25.52-11.6-9.28,2.32-18.27,20.01-25.23,24.65-6.96,4.64-20.59,7.83-30.16,4.35-9.57-3.48-28.13-8.12-35.09,3.48-6.96,11.6.29,39.15,7.54,55.39,7.25,16.24,20.01,31.61,35.38,37.99,15.37,6.38,45.53,1.74,56.55,4.35,11.02,2.61,22.04,9.57,37.12,17.11,15.08,7.54,53.94,21.46,96.28,2.9,42.34-18.56,67.86-68.73,78.59-101.21,10.73-32.48,15.37-72.5,15.37-110.49s-8.7-80.33-30.45-138.91c-21.75-58.58-76.56-109.04-106.14-118.32-29.58-9.28-72.21,5.51-104.4,29-32.19,23.49-67.86,71.63-83.23,115.13-15.37,43.5-26.39,110.78-25.81,125.57.58,14.79,0,16.53,4.93,24.65Z"/>
  <path class="cls-2" d="M259.64,162.2c-3.19,9.57-13.92,4.93-38.28,17.4-24.36,12.47-73.37,54.23-88.16,60.61-14.79,6.38-35.09-4.64-39.15-22.04-4.06-17.4,5.51-27.55,5.8-38.28.29-10.73-26.39-24.94-29.29-49.01-2.9-24.07,13.63-60.32,53.07-66.7,39.44-6.38,130.5,53.94,136.01,98.02Z"/>
  <path class="cls-15" d="M259.64,162.2c-3.19,9.57-13.92,4.93-38.28,17.4-16.02,8.2-42.69,29.06-63.29,44.21-6.4-.19-14.22-2.15-15.88-10.28-2.9-14.21,6.38-23.49,14.79-34.22,8.41-10.73,7.83-27.26,3.19-44.66-4.64-17.4-5.51-31.9,6.38-42.05,9.27-7.91,27.18-2.96,42.04,4.7,26.52,19.38,48.43,43.97,51.05,64.9h0ZM318.8,153.5c-5.8,5.8,3.77,20.3,12.18,16.24,8.41-4.06-4.93-20.3-12.18-16.24h0ZM260.8,133.2c-9.86,11.02,21.17,41.18,35.38,30.16,14.21-11.02-24.65-40.6-35.38-30.16Z"/>
  <path class="cls-15" d="M118.71,82.46c2.9,5.51-7.83,19.43-9.28,35.96-1.45,16.53-4.93,26.39-18.27,20.88-13.34-5.51-10.73-31.03-5.51-41.18,5.22-10.15,24.07-24.07,33.06-15.66Z"/>
  <path class="cls-2" d="M215.99,698.29c-19.14-5.8-65.54,8.7-93.96-22.62-28.42-31.32-58-84.68-59.74-161.24-1.74-76.56,14.64-164.91,60.9-231.99,46.26-67.08,119.48-104.98,179.22-103.82,59.74,1.16,137.46,92.22,160.65,200.1,23.2,107.88,9.86,193.72-24.94,256.35-34.8,62.64-87.58,88.74-137.46,87-49.88-1.74-61.48-20.3-84.68-23.78h0ZM213.96,680.89c17.11,3.19,79.65,40.81,131.95,20.59,52.3-20.22,85.84-78.01,100.63-126.73,14.79-48.72,13.34-107.59,7.25-156.31-6.09-48.72-26.39-111.36-67.86-167.33-41.47-55.97-85.55-68.73-149.35-42.92-63.8,25.81-102.95,80.04-129.92,139.49-26.97,59.45-32.48,147.61-23.2,208.8,9.28,61.19,37.7,93.96,53.36,108.75,15.66,14.79,56.55,10.15,77.14,15.66Z"/>
  <path class="cls-16" d="M207.12,437.99c-9.86-7.25-15.08-24.36-13.63-32.48,1.45-8.12-4.35-19.72-6.09-35.38-1.74-15.66,2.03-50.75,13.34-65.54,11.31-14.79,42.34-34.51,75.98-32.19,33.64,2.32,62.06,30.45,66.99,58.29,4.93,27.84,3.48,66.41-13.05,82.07-16.53,15.66-35.38,27.84-52.49,28.42-17.11.58-26.97,0-34.8,0s-22.62,4.64-36.25-3.19Z"/>
  <path class="cls-19" d="M193.62,404.62c.91-8.07-4.54-19.39-6.22-34.49-.04-.39-.08-.8-.12-1.21,6.73-5.79,19.35-9.47,27.9-6.49,12.47,4.35,35.96-14.79,61.77-10.44,25.81,4.35,17.98,36.25-4.06,45.82-22.04,9.57-43.5-6.38-58-.58-6.97,2.79-14.34,5.91-21.27,7.4Z"/>
  <path class="cls-10" d="M187.07,357.48c.6-17.39,4.83-41.34,13.67-52.89,11.31-14.79,42.34-34.51,75.98-32.19,33.64,2.32,62.06,30.45,66.99,58.29,1.86,10.51,2.81,22.55,2.39,34.3-.74-41.2-25.95-64.92-77.56-70.14-51.62-5.22-77.24,32.02-81.46,62.63Z"/>
  <path class="cls-20" d="M220.32,428.42c-.15-3.09,6.96-5.07,11.02-3.48,4.06,1.6-1.45,3.77-3.08,3.95-1.63.18-3.7.14-4.75.76s-3.15-.4-3.19-1.23h0ZM310.69,370.24s12.61-15.23,16.97-3.48c4.35,11.74-5.9,30.8-5.9,30.8,0,0,17.46-21.08,9.52-33.99-7.94-12.91-19.43,1.6-20.59,6.67h0ZM211.91,404.49s4.21,3.77,7.98,3.19c3.77-.58,6.96-3.63,6.96-3.63,0,0-.87,6.23-6.82,7.25-5.94,1.01-8.99-3.77-8.12-6.81h0ZM192.62,380.71s2.61,4.79,8.7,3.92c6.09-.87,9.14-3.34,9.14-3.34,0,0-1.02,6.24-8.7,6.82-7.68.58-9.57-4.93-9.13-7.4h0ZM245.55,376.07s5.65,4.35,12.47,3.34c6.82-1.02,11.6-4.21,11.6-4.21,0,0-3.05,9.57-12.47,9.28-9.42-.29-11.6-8.41-11.6-8.41Z"/>
  <path class="cls-3" d="M338.98,472.21s6.65,29.69,6.21,60.28c-.43,30.59-6.85,57.86-13.52,66.01-6.67,8.15-24.47.25-30.27-3.52-5.8-3.77-16.97-6.96-32.63,2.9-15.66,9.86-21.46,15.95-27.84,19.14-6.38,3.19-8.59,2.21-8.59,2.21,0,0,8.59-15.7,13.23-26.71,4.64-11.02,11.17-26.53,18.56-31.03,7.39-4.49,26.1-3.19,33.06-.15,6.96,3.04,16.24,11.89,25.66,3.19,9.42-8.7,14.79-60.03,13.49-71.77-1.3-11.74-2.46-16.67-2.46-16.67,0,0,2.04-5.36,5.09-3.88Z"/>
  <path class="cls-1" d="M234.61,615.01c2.87-5.42,7.82-15.03,10.96-22.49,4.64-11.02,11.17-26.53,18.56-31.03,7.39-4.49,26.1-3.19,33.06-.15,3.83,1.67,8.36,5.1,13.23,6.4,1.41,3.67.89,7.12-2.87,9.13-8.12,4.35-22.62-10.73-35.55-9.89-10.66.69-30.67,35.72-37.39,48.02Z"/>
  <path class="cls-17" d="M253.03,480.99c2.59,2.22,11.4,10.46,19.09,17.42,7.68,6.96,26.82,23.92,36.1,24.36,9.28.43,18.12-15.23,21.31-22.04,3.19-6.81,8.63-20.91,11.02-24.89,2.39-3.97-8.99-6.43-8.99-6.43,0,0-27.26,22.33-39.15,21.75-11.89-.58-32.62-18.41-39.38-10.17Z"/>
  <path class="cls-9" d="M323.06,435.27c-1.86,2.26-12.09,3.7-12.81,9.5-.72,5.8,3.77,11.16-1.01,19.57-4.78,8.41-9.42,15.66-13.77,16.38-4.35.72-9.57-4.93-18.56-9.57-8.99-4.64-10.15-2.32-13.05-6.38-2.9-4.06-6.09-5.94-8.85-6.09-2.75-.15-12.04,4.64-13.63,7.25-1.59,2.61,1.88.58.87,2.61-1.02,2.03-3.94,2.72-2.04,4.84s4.36.67,4.36,2.41-4.06,6.09-1.88,7.83c2.18,1.74,7.66-2.73,10.35-2.63,2.69.1,8.5,1.47,13.29,3.79,4.79,2.32,9.28,6.81,17.69,11.02,8.41,4.2,21.6,9.43,29.29,7.25,7.68-2.17,18.89-19.37,21.75-22.04,2.86-2.66,7.98-5.65,8.99-13.34,1.01-7.68-5.37-33.78-20.97-32.41Z"/>
  <path class="cls-18" d="M310.36,444.16c-.05.2-.09.4-.11.61-.72,5.8,3.77,11.16-1.01,19.57-4.78,8.41-9.42,15.66-13.77,16.38-4.35.72-9.57-4.93-18.56-9.57-5.56-2.87-8.13-3.08-9.96-3.78,3.23,1.84,11.21,6.83,16.1,13.65,6.23,8.7,14.36,11.66,19.87,7.28,5.51-4.38,16.96-16.27,19.43-28.6,2.04-10.22-5.58-16.45-11.97-15.55Z"/>
  <path class="cls-5" d="M229.25,648.21c-7.72-.91-12.76-6.32-15.48-10.33-3.4,2.17-6.28,4.1-6.79,5.57-.87,2.47,2.9,2.32,4.35,4.78s4.35,2.9,6.38,5.66c2.03,2.75,7.97,4.06,11.74,2.46,3.77-1.6,8.99-.58,12.33-6.67,3.34-6.09,5.51-10.01,11.02-17.84,5.51-7.83,12.62-14.79,17.26-19.43,4.64-4.64,10.58.15,14.06,2.18,3.48,2.03,16.53,4.93,29.29-1.02,6.43-3,10.61-5.88,13.38-8.47-23.97,18.95-43.6-5.32-53.75-1.85-10.15,3.48-31.27,46.42-43.79,44.95Z"/>
  <path class="cls-2" d="M90.93,467.41s-2.9,46.69,8.99,55.68c11.89,8.99,22.04,1.45,32.48,10.15,10.44,8.7,20.59,15.95,30.45,17.4,9.86,1.45,24.07-10.73,29.58-19.43,5.51-8.7,10.29-11.17,14.5-11.31,4.2-.15-6.67,3.04-10.44,10.87-3.77,7.83-10.15,18.99-22.18,22.77-12.04,3.77-23.2,2.32-32.77-2.32-9.57-4.64-21.61-14.94-30.02-15.95-8.41-1.01-14.93,14.06-14.35,27.11.58,13.05,10.4,50.99,10.4,50.99,0,0-36.39-93.95-16.64-145.96Z"/>
</svg>