<?xml version="1.0" encoding="UTF-8"?>
<svg id="Layer_1" data-name="Layer 1" xmlns="http://www.w3.org/2000/svg" xmlns:xlink="http://www.w3.org/1999/xlink" viewBox="0 0 576 668">
  <defs>
    <style>
      .cls-1 {
        fill: url(#GradientFill_5-3);
      }

      .cls-1, .cls-2, .cls-3, .cls-4, .cls-5, .cls-6, .cls-7, .cls-8, .cls-9, .cls-10, .cls-11, .cls-12, .cls-13, .cls-14, .cls-15, .cls-16, .cls-17 {
        fill-rule: evenodd;
      }

      .cls-2 {
        fill: #f38155;
      }

      .cls-3 {
        fill: url(#GradientFill_4-4);
      }

      .cls-18 {
        fill: #490420;
      }

      .cls-19 {
        fill: #62062b;
      }

      .cls-20 {
        fill: #3b031a;
      }

      .cls-4 {
        fill: url(#GradientFill_4);
      }

      .cls-5 {
        fill: url(#GradientFill_2-4);
      }

      .cls-21 {
        fill: #3f041c;
      }

      .cls-6 {
        fill: url(#GradientFill_2-2);
      }

      .cls-22 {
        fill: #40041c;
      }

      .cls-23 {
        fill: #750733;
      }

      .cls-24 {
        fill: #45041e;
      }

      .cls-7 {
        fill: url(#GradientFill_3-2);
      }

      .cls-25 {
        fill: #5c0528;
      }

      .cls-26 {
        fill: #360318;
      }

      .cls-27 {
        fill: #3c031b;
      }

      .cls-28 {
        fill: #480420;
      }

      .cls-29 {
        fill: #69062e;
      }

      .cls-30 {
        fill: #370319;
      }

      .cls-8 {
        fill: url(#GradientFill_5-2);
      }

      .cls-31 {
        fill: #5f0629;
      }

      .cls-9 {
        fill: #43262a;
      }

      .cls-32 {
        fill: #4d0422;
      }

      .cls-33 {
        fill: #510524;
      }

      .cls-34 {
        fill: #3e031b;
      }

      .cls-35 {
        fill: #42041d;
      }

      .cls-36 {
        fill: #590527;
      }

      .cls-37 {
        fill: #540525;
      }

      .cls-38 {
        fill: #560526;
      }

      .cls-10 {
        fill: url(#GradientFill_3);
      }

      .cls-39 {
        clip-rule: evenodd;
        fill: none;
      }

      .cls-40 {
        fill: #41041d;
      }

      .cls-41 {
        fill: #3d031b;
      }

      .cls-42 {
        fill: #43041e;
      }

      .cls-11 {
        fill: url(#GradientFill_5);
      }

      .cls-12 {
        fill: url(#GradientFill_2);
      }

      .cls-13 {
        fill: #e36b00;
      }

      .cls-43 {
        fill: #710731;
      }

      .cls-44 {
        fill: #370318;
      }

      .cls-45 {
        fill: #4f0523;
      }

      .cls-46 {
        fill: #380319;
      }

      .cls-47 {
        fill: #3a031a;
      }

      .cls-48 {
        fill: #6d062f;
      }

      .cls-14 {
        fill: url(#GradientFill_4-2);
      }

      .cls-15 {
        fill: url(#GradientFill_2-3);
      }

      .cls-49 {
        fill: #46041f;
      }

      .cls-50 {
        fill: #390319;
      }

      .cls-51 {
        clip-path: url(#clippath);
      }

      .cls-16 {
        fill: url(#GradientFill_4-3);
      }

      .cls-52 {
        fill: #65062c;
      }

      .cls-53 {
        fill: #4b0421;
      }

      .cls-17 {
        fill: #d23c41;
      }
    </style>
    <clipPath id="clippath">
      <path class="cls-39" d="M134.9,315.46s19.46-34.06,78.38-36.22c58.92-2.16,139.47,52.98,168.12,143.25,28.65,90.27,12.3,160.13-14.06,181.09-26.35,20.95-89.17,5.13-110.53-2.03-21.36-7.16-76.95-9.08-98.08-32.44-21.13-23.36-77.35-160.13-23.83-253.64Z"/>
    </clipPath>
    <linearGradient id="GradientFill_3" data-name="GradientFill 3" x1="218.01" y1="379.01" x2="223.99" y2="544" gradientUnits="userSpaceOnUse">
      <stop offset="0" stop-color="#f68f69"/>
      <stop offset="1" stop-color="#f47856"/>
    </linearGradient>
    <linearGradient id="GradientFill_2" data-name="GradientFill 2" x1="225.92" y1="508.15" x2="213.98" y2="541.78" gradientUnits="userSpaceOnUse">
      <stop offset="0" stop-color="#d43d42"/>
      <stop offset="1" stop-color="#f47856"/>
    </linearGradient>
    <linearGradient id="GradientFill_4" data-name="GradientFill 4" x1="231.81" y1="474.07" x2="232.58" y2="512.25" gradientUnits="userSpaceOnUse">
      <stop offset="0" stop-color="#f9a976"/>
      <stop offset="1" stop-color="#f58759"/>
    </linearGradient>
    <linearGradient id="GradientFill_2-2" data-name="GradientFill 2" x1="259.13" y1="433.72" x2="220.74" y2="435.73" xlink:href="#GradientFill_2"/>
    <linearGradient id="GradientFill_3-2" data-name="GradientFill 3" x1="264.58" y1="66.66" x2="289" y2="551.33" xlink:href="#GradientFill_3"/>
    <linearGradient id="GradientFill_2-3" data-name="GradientFill 2" x1="290.22" y1="504.63" x2="276.12" y2="560.93" xlink:href="#GradientFill_2"/>
    <linearGradient id="GradientFill_4-2" data-name="GradientFill 4" x1="271.27" y1="400.26" x2="292.53" y2="276.09" xlink:href="#GradientFill_4"/>
    <linearGradient id="GradientFill_5" data-name="GradientFill 5" x1="224.15" y1="321.91" x2="319.6" y2="301.42" gradientUnits="userSpaceOnUse">
      <stop offset="0" stop-color="#f9a976"/>
      <stop offset="1" stop-color="#fcc9a4"/>
    </linearGradient>
    <linearGradient id="GradientFill_4-3" data-name="GradientFill 4" x1="237.75" y1="333.2" x2="264.24" y2="366.36" xlink:href="#GradientFill_4"/>
    <linearGradient id="GradientFill_4-4" data-name="GradientFill 4" x1="291.89" y1="373.42" x2="295.92" y2="520.39" xlink:href="#GradientFill_4"/>
    <linearGradient id="GradientFill_5-2" data-name="GradientFill 5" x1="278.85" y1="487.64" x2="255.8" y2="532.48" xlink:href="#GradientFill_5"/>
    <linearGradient id="GradientFill_5-3" data-name="GradientFill 5" x1="303.54" y1="406.74" x2="274.03" y2="444.7" xlink:href="#GradientFill_5"/>
    <linearGradient id="GradientFill_2-4" data-name="GradientFill 2" x1="309.93" y1="455.11" x2="241.9" y2="466.79" xlink:href="#GradientFill_2"/>
  </defs>
  <path class="cls-9" d="M255.42,608.51c-22.08-3.34-58.88,3.9-87.19-18.39-28.31-22.29-59.45-75.22-65.11-138.74-5.66-63.52,14.72-158.79,61.71-203.37,46.99-44.58,134.61-75.01,198.72-46.8,64.12,28.21,111.53,103.64,112.67,185.54,1.13,81.9-18.68,157.68-52.65,191.11-33.97,33.43-68.5,49.59-101.34,47.36-32.84-2.23-53.22-15.04-66.81-16.72Z"/>
  <g class="cls-51">
    <rect class="cls-23" x="81.39" y="277.08" width="328.66" height="347.45"/>
    <path class="cls-23" d="M163.45,292.45c31-16.32,68.88-12.44,105.06,7.02,36.18,19.46,70.67,54.5,94.89,100.51,48.43,92.02,37.44,193.07-24.55,225.7v-.15h-77.74v4.73c-9.12-2.85-18.28-6.74-27.32-11.6-36.18-19.46-70.67-54.5-94.89-100.51-48.43-92.02-37.44-193.07,24.55-225.7Z"/>
    <path class="cls-43" d="M164.84,295.09c30.51-16.06,67.78-12.24,103.39,6.91,35.61,19.15,69.55,53.64,93.38,98.92,47.67,90.56,36.85,190.01-24.16,222.12-7.63,4.01-15.68,6.79-24.02,8.39v-5.89h-52.49v2.01c-8.98-2.8-17.99-6.63-26.89-11.42-35.61-19.15-69.55-53.64-93.38-98.92-47.67-90.56-36.85-190.01,24.16-222.12Z"/>
    <path class="cls-48" d="M166.23,297.74c30.01-15.8,66.69-12.04,101.72,6.8,35.03,18.84,68.43,52.77,91.88,97.32,46.9,89.1,36.25,186.94-23.77,218.54-15.01,7.9-31.68,10.91-48.98,9.59-17.3-1.32-35.23-6.97-52.75-16.39-35.03-18.84-68.43-52.77-91.88-97.32-46.9-89.1-36.25-186.94,23.77-218.54Z"/>
    <path class="cls-29" d="M167.63,300.38c59.04-31.08,144.3,14.78,190.43,102.41,46.13,87.64,35.66,183.88-23.38,214.95-14.76,7.77-31.16,10.73-48.18,9.43-17.02-1.3-34.65-6.85-51.88-16.12-34.46-18.53-67.31-51.91-90.37-95.73-46.13-87.64-35.66-183.88,23.38-214.95Z"/>
    <path class="cls-52" d="M169.02,303.03c58.06-30.56,141.89,14.53,187.25,100.71,45.36,86.18,35.06,180.81-22.99,211.37-29.03,15.28-64.5,11.65-98.39-6.58-33.89-18.22-66.19-51.04-88.86-94.13-45.36-86.18-35.06-180.81,22.99-211.37Z"/>
    <path class="cls-19" d="M170.41,305.67c57.07-30.04,139.49,14.28,184.08,99,44.59,84.72,34.47,177.75-22.6,207.79-28.54,15.02-63.41,11.45-96.72-6.47-33.31-17.92-65.06-50.18-87.36-92.53-44.59-84.72-34.47-177.75,22.6-207.79Z"/>
    <path class="cls-31" d="M171.8,308.32c56.09-29.52,137.08,14.04,180.91,97.29,43.82,83.26,33.88,174.68-22.21,204.21-28.05,14.76-62.32,11.25-95.05-6.35-32.74-17.61-63.94-49.31-85.85-90.94-43.82-83.26-33.88-174.68,22.21-204.21Z"/>
    <path class="cls-25" d="M173.19,310.96c55.11-29,134.68,13.79,177.73,95.59,43.05,81.8,33.28,171.62-21.82,200.62-27.55,14.5-61.22,11.05-93.39-6.24-32.16-17.3-62.82-48.45-84.35-89.34-43.05-81.8-33.28-171.62,21.82-200.62Z"/>
    <path class="cls-36" d="M174.59,313.61c54.12-28.49,132.27,13.54,174.56,93.88,42.28,80.34,32.69,168.55-21.43,197.04-27.06,14.24-60.13,10.86-91.72-6.13-31.59-16.99-61.7-47.58-82.84-87.75-42.28-80.34-32.69-168.55,21.43-197.04Z"/>
    <ellipse class="cls-38" cx="251.15" cy="459.07" rx="108.73" ry="161.39" transform="translate(-184.91 169.81) rotate(-27.76)"/>
    <ellipse class="cls-37" cx="251.15" cy="459.07" rx="106.72" ry="158.4" transform="translate(-184.91 169.81) rotate(-27.76)"/>
    <ellipse class="cls-33" cx="251.15" cy="459.07" rx="104.7" ry="155.41" transform="translate(-184.91 169.81) rotate(-27.76)"/>
    <ellipse class="cls-45" cx="251.15" cy="459.07" rx="102.69" ry="152.42" transform="translate(-184.91 169.81) rotate(-27.76)"/>
    <ellipse class="cls-32" cx="251.15" cy="459.07" rx="100.67" ry="149.44" transform="translate(-184.91 169.81) rotate(-27.76)"/>
    <ellipse class="cls-53" cx="251.15" cy="459.07" rx="98.66" ry="146.45" transform="translate(-184.91 169.81) rotate(-27.76)"/>
    <ellipse class="cls-18" cx="251.15" cy="459.07" rx="96.65" ry="143.46" transform="translate(-184.91 169.81) rotate(-27.76)"/>
    <ellipse class="cls-28" cx="251.15" cy="459.07" rx="94.63" ry="140.47" transform="translate(-184.91 169.81) rotate(-27.76)"/>
    <ellipse class="cls-49" cx="251.15" cy="459.07" rx="92.62" ry="137.48" transform="translate(-184.91 169.81) rotate(-27.76)"/>
    <ellipse class="cls-24" cx="251.15" cy="459.07" rx="90.61" ry="134.49" transform="translate(-184.91 169.81) rotate(-27.76)"/>
    <ellipse class="cls-42" cx="251.15" cy="459.07" rx="88.59" ry="131.5" transform="translate(-184.91 169.81) rotate(-27.76)"/>
    <ellipse class="cls-35" cx="251.15" cy="459.07" rx="86.58" ry="128.51" transform="translate(-184.91 169.81) rotate(-27.76)"/>
    <ellipse class="cls-40" cx="251.15" cy="459.07" rx="84.57" ry="125.53" transform="translate(-184.91 169.81) rotate(-27.76)"/>
    <ellipse class="cls-22" cx="251.15" cy="459.07" rx="82.55" ry="122.54" transform="translate(-184.91 169.81) rotate(-27.76)"/>
    <ellipse class="cls-21" cx="251.15" cy="459.07" rx="80.54" ry="119.55" transform="translate(-184.91 169.81) rotate(-27.76)"/>
    <ellipse class="cls-34" cx="251.15" cy="459.07" rx="78.53" ry="116.56" transform="translate(-184.91 169.81) rotate(-27.76)"/>
    <ellipse class="cls-41" cx="251.15" cy="459.07" rx="76.51" ry="113.57" transform="translate(-184.91 169.81) rotate(-27.76)"/>
    <ellipse class="cls-27" cx="251.15" cy="459.07" rx="74.5" ry="110.58" transform="translate(-184.91 169.81) rotate(-27.76)"/>
    <ellipse class="cls-20" cx="251.15" cy="459.07" rx="72.49" ry="107.59" transform="translate(-184.91 169.81) rotate(-27.76)"/>
    <ellipse class="cls-20" cx="251.15" cy="459.07" rx="70.47" ry="104.6" transform="translate(-184.91 169.81) rotate(-27.76)"/>
    <ellipse class="cls-47" cx="251.15" cy="459.07" rx="68.46" ry="101.62" transform="translate(-184.91 169.81) rotate(-27.76)"/>
    <ellipse class="cls-47" cx="251.15" cy="459.07" rx="66.45" ry="98.63" transform="translate(-184.91 169.81) rotate(-27.76)"/>
    <ellipse class="cls-50" cx="251.15" cy="459.07" rx="64.43" ry="95.64" transform="translate(-184.91 169.81) rotate(-27.76)"/>
    <ellipse class="cls-50" cx="251.15" cy="459.07" rx="62.42" ry="92.65" transform="translate(-184.91 169.81) rotate(-27.76)"/>
    <ellipse class="cls-46" cx="251.15" cy="459.07" rx="60.4" ry="89.66" transform="translate(-184.91 169.81) rotate(-27.76)"/>
    <ellipse class="cls-46" cx="251.15" cy="459.07" rx="58.39" ry="86.67" transform="translate(-184.91 169.81) rotate(-27.76)"/>
    <ellipse class="cls-46" cx="251.15" cy="459.07" rx="56.38" ry="83.68" transform="translate(-184.91 169.81) rotate(-27.76)"/>
    <ellipse class="cls-46" cx="251.15" cy="459.07" rx="54.36" ry="80.7" transform="translate(-184.91 169.81) rotate(-27.76)"/>
    <ellipse class="cls-30" cx="251.15" cy="459.07" rx="52.35" ry="77.71" transform="translate(-184.91 169.81) rotate(-27.76)"/>
    <ellipse class="cls-44" cx="251.15" cy="459.07" rx="50.34" ry="74.72" transform="translate(-184.91 169.81) rotate(-27.76)"/>
    <ellipse class="cls-44" cx="251.15" cy="459.07" rx="48.32" ry="71.73" transform="translate(-184.91 169.81) rotate(-27.76)"/>
    <ellipse class="cls-44" cx="251.15" cy="459.07" rx="46.31" ry="68.74" transform="translate(-184.91 169.81) rotate(-27.76)"/>
    <ellipse class="cls-44" cx="251.15" cy="459.07" rx="44.3" ry="65.75" transform="translate(-184.91 169.81) rotate(-27.76)"/>
    <ellipse class="cls-44" cx="251.15" cy="459.07" rx="42.28" ry="62.76" transform="translate(-184.91 169.81) rotate(-27.76)"/>
    <ellipse class="cls-26" cx="251.15" cy="459.07" rx="40.27" ry="59.77" transform="translate(-184.91 169.81) rotate(-27.76)"/>
    <ellipse class="cls-26" cx="251.15" cy="459.07" rx="38.26" ry="56.79" transform="translate(-184.91 169.81) rotate(-27.76)"/>
    <ellipse class="cls-26" cx="251.15" cy="459.07" rx="36.24" ry="53.8" transform="translate(-184.91 169.81) rotate(-27.76)"/>
    <ellipse class="cls-26" cx="251.15" cy="459.07" rx="34.23" ry="50.81" transform="translate(-184.91 169.81) rotate(-27.76)"/>
    <ellipse class="cls-26" cx="251.15" cy="459.07" rx="32.22" ry="47.82" transform="translate(-184.91 169.81) rotate(-27.76)"/>
    <ellipse class="cls-26" cx="251.15" cy="459.07" rx="30.2" ry="44.83" transform="translate(-184.91 169.81) rotate(-27.76)"/>
    <ellipse class="cls-26" cx="251.15" cy="459.07" rx="28.19" ry="41.84" transform="translate(-184.91 169.81) rotate(-27.76)"/>
    <ellipse class="cls-26" cx="251.15" cy="459.07" rx="26.18" ry="38.85" transform="translate(-184.91 169.81) rotate(-27.76)"/>
    <ellipse class="cls-26" cx="251.15" cy="459.07" rx="24.16" ry="35.86" transform="translate(-184.91 169.81) rotate(-27.76)"/>
    <ellipse class="cls-26" cx="251.15" cy="459.07" rx="22.15" ry="32.88" transform="translate(-184.91 169.81) rotate(-27.76)"/>
    <ellipse class="cls-26" cx="251.15" cy="459.07" rx="20.13" ry="29.89" transform="translate(-184.91 169.81) rotate(-27.76)"/>
    <ellipse class="cls-26" cx="251.15" cy="459.07" rx="18.12" ry="26.9" transform="translate(-184.91 169.81) rotate(-27.76)"/>
    <ellipse class="cls-26" cx="251.15" cy="459.07" rx="16.11" ry="23.91" transform="translate(-184.91 169.81) rotate(-27.76)"/>
    <ellipse class="cls-26" cx="251.15" cy="459.07" rx="14.09" ry="20.92" transform="translate(-184.91 169.81) rotate(-27.76)"/>
    <ellipse class="cls-26" cx="251.15" cy="459.07" rx="12.08" ry="17.93" transform="translate(-184.91 169.81) rotate(-27.76)"/>
    <path class="cls-26" d="M244.19,445.84c4.92-2.59,12.03,1.23,15.87,8.53,3.84,7.3,2.97,15.32-1.95,17.91s-12.02-1.23-15.87-8.53c-3.84-7.3-2.97-15.32,1.95-17.91Z"/>
    <path class="cls-26" d="M245.58,448.49c3.94-2.07,9.62.99,12.7,6.83,3.08,5.84,2.38,12.26-1.56,14.33-3.94,2.07-9.62-.99-12.7-6.83s-2.38-12.26,1.56-14.33Z"/>
    <path class="cls-26" d="M246.97,451.13c2.95-1.55,7.22.74,9.52,5.12,2.31,4.38,1.78,9.19-1.17,10.75-2.95,1.55-7.21-.74-9.52-5.12-2.31-4.38-1.78-9.19,1.17-10.75Z"/>
    <path class="cls-26" d="M248.36,453.78c1.97-1.04,4.81.49,6.35,3.41s1.19,6.13-.78,7.17-4.81-.49-6.35-3.41-1.19-6.13.78-7.17Z"/>
    <path class="cls-26" d="M249.76,456.42c.98-.52,2.41.25,3.17,1.71.77,1.46.59,3.06-.39,3.58-.98.52-2.41-.25-3.17-1.71-.77-1.46-.59-3.06.39-3.58Z"/>
  </g>
  <path class="cls-10" d="M246.33,477.88s-25.95,4.86-28.65,11.35c-2.7,6.49-12.03,38.78-15.41,43.24-3.38,4.46-10.13,5.14-10.54,7.03-.41,1.89,7.57,7.43,14.06,8.78,6.49,1.35,15-1.76,16.35-4.05,1.35-2.3,5-13.65,8.78-16.49,3.78-2.84,10.41-4.73,12.84-8.24,2.43-3.51,20.14-42.7,2.57-41.62Z"/>
  <path class="cls-12" d="M196.05,536.88c-2.23,1-4.11,1.65-4.32,2.62-.41,1.89,7.57,7.43,14.06,8.78,6.49,1.35,15-1.76,16.35-4.05,1.35-2.3,5-13.65,8.78-16.49.94-.7,2.05-1.35,3.23-1.97h0s.41-2.08.41-2.08l12.06-9.92c1.56-3.51,3.41-8.2,4.87-13.03-4.06.2-8.96,1.35-13.76,4.74-11.35,8-17.03,34.87-27.03,37.84-6.26,1.86-11.57-2.74-14.66-6.44Z"/>
  <path class="cls-4" d="M246.33,477.88s-25.95,4.86-28.65,11.35c-1.26,3.02-3.95,11.62-6.81,20.41.9,2.43,2.53,4.69,5.45,3.65,5.68-2.03,10.54-15.54,16.08-20,4.8-3.86,16.17-4.99,21.25-9.95-.79-3.52-2.98-5.72-7.33-5.45Z"/>
  <path class="cls-6" d="M252.54,461.8s-10.38-6.53-15.95-12.97c-5.56-6.45-10.27-29.06-11.76-34.6-1.49-5.54,2.84-3.11,5.14-.68,2.3,2.43-1.89-5.14.13-5.95,2.03-.81,2.97,2.3,3.92,2.03.95-.27,1.49-1.35,3.24,1.49,1.76,2.84,8.92,16.89,11.08,21.49,2.16,4.59,9.73,10.41,14.19,13.65,4.46,3.24-3.78,15.54-10,15.54Z"/>
  <path class="cls-7" d="M232.94,398.01c5.27,6.35,12.97,11.22,20.81,12.7,7.84,1.49,14.87-.27,14.87-.27,0,0-7.03,18.51-8.78,21.49-1.76,2.97-10.81-1.08-14.87.54-4.05,1.62-.95,2.16-2.03,3.79-1.08,1.62-3.11,1.35-2.7,3.24.41,1.89,2.16.68,1.89,2.43-.27,1.76-2.97,3.78-1.08,4.6,1.89.81,5.14-1.89,8.65-1.35,3.51.54,4.16,2.29,4.16,2.29,0,0-7.94,10.55-8.75,20.28-.81,9.73.4,34.73.4,34.73,0,0-9.46,14.06-10.95,21.22-1.49,7.16-3.92,22.84-7.16,28.24-3.24,5.4-5.27,4.19-6.49,6.76-1.22,2.57,4.46,5.68,9.05,5.27,4.59-.41,6.08.14,10.41,1.49,4.33,1.35,8.92-3.24,11.62-7.03,2.7-3.78,2.57-11.22,5.95-16.62,3.38-5.41,7.3-11.22,10.68-11.08,3.38.14,23.52,6.76,38.52,4.32,15-2.43,42.02-27.03,45.13-55.81,3.11-28.79-3.11-43.65-6.22-55-3.11-11.35-1.89-25.68-3.78-33.52-1.89-7.84-2.84-10.81-2.03-17.84.81-7.03,2.38-12.25,3.62-15.93,1.24-3.68-102.81,17.28-110.92,41.07Z"/>
  <path class="cls-15" d="M245.48,501.74l.03.73s-9.46,14.06-10.95,21.22l-.41,2.08c.15-.75.28-1.45.41-2.08l26.41-21.73s-7.07-2.67-15.5-.22h0ZM224.45,555.61c1.82,1.5,4.88,3.07,9.57,2.78,8.65-.54,11.08,2.03,14.6-4.86,3.51-6.89,9.6-33.92,16.22-32.97,6.62.95,44.37,6.2,60.68-3.65,15.95-9.63,23.04-23.04,23.35-23.63-8.42,22.37-29.23,39.74-41.72,41.77-15,2.43-35.14-4.19-38.52-4.32-3.38-.13-7.3,5.68-10.68,11.08-3.38,5.41-3.24,12.84-5.95,16.62-2.7,3.78-7.3,8.38-11.62,7.03-4.33-1.35-5.81-1.89-10.41-1.49-4.6.41-10.27-2.7-9.05-5.27.79-1.68,1.93-1.74,3.53-3.09Z"/>
  <path class="cls-14" d="M232.94,398.01c-4.19-5.95-6.08-18.65-6.76-30-.68-11.35-5.81-27.57-6.49-40.95-.68-13.38.9-22.03,9.19-33.92,8.3-11.89,26.62-28.65,59.33-28.65s52.43,16.22,56.49,47.3c4.05,31.08,2.97,44.33-8.11,56.49-11.08,12.16-31.62,23.79-45.14,26.76-13.52,2.97-40.14,13.38-58.52,2.97Z"/>
  <path class="cls-11" d="M220.77,336.64c-.52-3.28-.91-6.51-1.07-9.58-.68-13.38.9-22.03,9.19-33.92,8.3-11.89,26.62-28.65,59.33-28.65s52.43,16.22,56.49,47.3c1.6,12.25,2.4,21.73,2.1,29.47-2.63-17.8-.82-43.76-43.53-59.44-42.7-15.68-82.26,27.38-82.52,54.82Z"/>
  <path class="cls-16" d="M227.18,378.54c-.46-3.48-.78-7.07-.99-10.53-.33-5.61-1.76-12.42-3.2-19.48,7.55.97,21.31,2.4,29.89,1.27,12.3-1.62,29.19-13.92,36.49-9.87,7.3,4.05,5.95,25.68-12.43,35.41-13.7,7.25-36.25,6.55-49.76,3.2Z"/>
  <path class="cls-17" d="M240.44,392.8c-.74,1.35,2.43,4.19,4.59,3.58,2.16-.61,3.31-1.82,2.64-2.57-.68-.74-2.97.07-4.06-.34-1.08-.41-2.64-1.82-3.18-.68h0ZM310.51,335.44s5.41-10.27,14.73-6.35c9.32,3.92,2.43,26.22,2.43,26.22,0,0,12.57-20.27,1.62-27.97-10.95-7.7-18.78,4.19-18.78,8.11h0ZM254.63,359.36s2.57,3.65,9.6,2.16c7.03-1.49,9.46-4.46,9.46-4.46,0,0-2.57,7.97-10.2,8.24-7.64.27-8.92-4.66-8.85-5.95h0ZM226.52,363.89s2.43.95,4.46.54c2.03-.41,3.58-1.76,3.58-1.76,0,0-.61,4.66-3.92,5.07-3.31.41-4.12-3.85-4.12-3.85Z"/>
  <path class="cls-3" d="M234.57,523.69c1-7.84,7.22-22.16,14.52-26.22,7.3-4.06,22.97-4.06,31.22-3.24,8.24.81,15.95.81,20,.54,4.05-.27,12.7,9.06,9.59,15.81-3.11,6.76-14.32,4.73-23.92,3.11-9.6-1.62-17.03-3.92-23.24-2.84-6.22,1.08-16.89,7.43-18.79,11.22-1.89,3.78-8.51,4.87-9.38,1.62h0ZM244.97,432.47s6.68-2.29,17.09.81c10.41,3.11,16.22,10.54,21.62,10.27,5.4-.27,23.11-14.86,25.68-18.92,2.57-4.05,2.57-12.03.54-16.62-2.03-4.59,1.08-6.22,7.84-12.16,6.76-5.95,13.11-7.97,17.57-7.84,4.46.13,6.96,2.7,6.96,2.7,0,0,5.74,21.09,8.71,30.28,2.97,9.19,5.54,23.92,4.05,43.11-1.49,19.19-6.17,29.16-6.17,29.16,0,0,4.28-22.53,1.71-35.78-2.57-13.24-8.78-22.7-15.27-22.57-6.49.13-13.38,8.65-26.76,14.32-13.38,5.68-23.52,6.22-32.03,2.57-8.51-3.65-14.19-11.22-17.84-13.92-3.65-2.7-10.32-5.27-13.71-5.41Z"/>
  <path class="cls-8" d="M234.57,523.69c1-7.84,7.22-22.16,14.52-26.22,7.3-4.06,22.97-4.06,31.22-3.24,8.24.81,15.95.81,20,.54.49-.03,1.06.08,1.66.31,2.13,12.5-27.27,4.52-42.95,4.79-15.68.27-24.45,23.82-24.45,23.82Z"/>
  <path class="cls-1" d="M254.51,431.8c.27.05,8.89,1.76,16.34,8.67,7.57,7.03,11.08,10.27,19.87,6.89,8.78-3.38,25.27-12.3,26.49-24.05,1.22-11.76-7.77-16.64-7.77-16.64.1.42.26.87.47,1.35,2.03,4.6,2.03,12.57-.54,16.62-2.57,4.06-20.27,18.65-25.68,18.92-5.4.27-11.22-7.16-21.62-10.27-2.81-.84-5.35-1.28-7.55-1.49Z"/>
  <path class="cls-5" d="M253.86,447.46s-2.47,3.28-4.79,7.87c5.08,4,14.08,10.91,19.21,13.9,7.43,4.32,19.87,10.54,29.46,3.51,9.6-7.03,18.65-21.22,18.65-21.22,0,0-9.73,8.11-17.16,13.38-7.43,5.27-10,6.35-20,.95-10-5.41-25.36-18.39-25.36-18.39Z"/>
  <path class="cls-13" d="M255.42,608.52c-22.08-3.34-58.88,3.9-87.19-18.39-28.31-22.29-59.45-75.22-65.11-138.74-5.66-63.52,14.72-158.79,61.71-203.37,46.99-44.57,134.61-75.01,198.72-46.8,64.12,28.21,111.53,103.64,112.67,185.54,1.13,81.9-18.68,157.68-52.65,191.11-33.97,33.43-68.5,49.59-101.34,47.36-32.84-2.23-53.22-15.04-66.81-16.72h0ZM254.11,583.71c10.81,2.84,21.62,7.7,28.1,10.68,6.49,2.97,22.97,15.68,73.24,5.95,50.27-9.73,93.12-82.62,97.84-183.79,4.73-101.17-43.51-181.9-107.84-197.58-64.33-15.68-119.19,6.22-150.82,31.35-31.62,25.14-50,62.17-58.65,94.33-8.65,32.16-9.73,68.38-3.51,87.3,6.22,18.92,22.43,27.57,29.73,20.81,7.3-6.76,11.35-28.65,22.43-38.65,11.08-10,31.08-8.65,38.65.81,7.57,9.46,6.49,27.84,10,38.65,3.51,10.81,22.97,12.16,25.14,14.33,2.16,2.16,3.78,8.11,1.35,15.41-2.43,7.3-6.49,11.62-14.05,7.84-7.57-3.78-20-15.14-21.62-29.73-1.62-14.59-10.54-37.57-24.6-35.95-14.05,1.62-17.03,20.27-21.35,32.7-4.32,12.43-18.11,20.54-20.81,23.51-2.7,2.97-6.49,19.19-3.51,37.84,2.97,18.65,10,33.38,29.46,51.76,19.46,18.38,50.27,8.11,70.81,12.43Z"/>
  <path class="cls-2" d="M313.29,167.89c-5.95,0-10-23.24-37.03-43.79-27.03-20.54-41.08-32.7-45.14-51.89-4.05-19.19.81-42.16,23.52-49.19,22.7-7.03,45.41,17.3,51.35,15.95,5.95-1.35,22.43-22.97,43.24-20.81,20.81,2.16,37.03,30.81,32.43,61.89-4.6,31.08-57.84,87.03-68.38,87.84Z"/>
  <path class="cls-13" d="M313.29,167.89c-5.95,0-10-23.24-37.03-43.79-9.42-7.16-17.26-13.3-23.66-19.08-.39-9.45.88-22.08,9.88-25.52,14.87-5.68,31.08,7.03,44.06,8.38,12.97,1.35,33.79-12.97,50.54-3.51,16.75,9.46-2.25,41.46-5.05,48.17-15.87,19.27-33.2,34.92-38.74,35.35h0ZM335.18,168.16c1.89,6.49,24.6,3.51,20.27-5.68-4.32-9.19-21.62-2.16-20.27,5.68h0ZM254.37,174.64c4.6,8.65,18.65-3.78,23.78-1.89,5.14,1.89,11.62,7.3,16.22-.54,4.59-7.84-4.32-18.11-18.38-21.89-14.05-3.78-27.84,11.35-21.62,24.33Z"/>
  <path class="cls-13" d="M334.64,37.48c.68-6.22,19.73-9.87,29.33-2.84s13.92,18.92,8.65,25.68c-5.27,6.76-12.03,0-17.43-5.27-5.41-5.27-10.68-6.89-14.6-7.97-3.92-1.08-6.69-3.51-5.95-9.6Z"/>
  <path class="cls-13" d="M258.44,614.52c-17.84-1.62-53.52,15.14-91.36-14.06-37.84-29.19-76.76-107.03-74.06-178.92,2.7-71.89,28.11-164.33,102.71-207.58,74.6-43.25,180.01-51.89,247.04,46.49,67.03,98.38,40,242.17-4.86,309.2-44.87,67.03-106.49,63.25-123.25,63.79-16.76.54-47.03-18.38-56.22-18.92h0ZM256.81,601.55c12.97,1.62,32.43,14.06,63.79,16.22,31.35,2.16,64.33-13.51,96.76-45.95,32.43-32.43,51.35-105.95,50.27-185.41-1.08-79.46-46.35-152.64-107.57-180.01-61.22-27.37-144.87,2.16-189.74,45.41-44.87,43.25-64.33,135.68-58.92,197.31,5.41,61.62,35.14,112.98,62.16,134.6,27.03,21.62,62.16,14.59,83.25,17.84Z"/>
  <path class="cls-2" d="M120.57,393.72s.27,52.44,20.54,64.33c20.27,11.89,28.38,1.62,32.43-12.97,4.05-14.6,11.62-31.08,23.78-33.25,12.16-2.16,21.89,2.7,21.89,2.7,0,0-21.62-3.51-28.24,7.3-6.62,10.81-10.68,31.08-22.03,44.32-11.35,13.24-23.11,17.84-32.7,15.14-9.59-2.7-29.87-36.49-15.68-87.57h0ZM229.01,445.28s2.84,17.3,10.81,21.22c7.97,3.92,14.59,1.89,16.89,4.73,2.3,2.84,1.31,12.32-3.06,12.1-4.37-.21-29.1-11.97-24.64-38.05Z"/>
</svg>