<?xml version="1.0" encoding="UTF-8"?>
<svg id="Layer_1" data-name="Layer 1" xmlns="http://www.w3.org/2000/svg" xmlns:xlink="http://www.w3.org/1999/xlink" viewBox="0 0 619 658">
  <defs>
    <style>
      .cls-1 {
        fill: url(#GradientFill_5-3);
      }

      .cls-1, .cls-2, .cls-3, .cls-4, .cls-5, .cls-6, .cls-7, .cls-8, .cls-9, .cls-10, .cls-11, .cls-12, .cls-13, .cls-14, .cls-15, .cls-16, .cls-17, .cls-18 {
        fill-rule: evenodd;
      }

      .cls-2 {
        fill: #f38155;
      }

      .cls-3 {
        fill: url(#GradientFill_4-4);
      }

      .cls-19 {
        fill: #490420;
      }

      .cls-20 {
        fill: #62062b;
      }

      .cls-21 {
        fill: #3b031a;
      }

      .cls-4 {
        fill: url(#GradientFill_4);
      }

      .cls-5 {
        fill: url(#GradientFill_2-4);
      }

      .cls-22 {
        fill: #3f041c;
      }

      .cls-6 {
        fill: url(#GradientFill_2-2);
      }

      .cls-23 {
        fill: #40041c;
      }

      .cls-24 {
        fill: #750733;
      }

      .cls-25 {
        fill: #45041e;
      }

      .cls-7 {
        fill: url(#GradientFill_3-2);
      }

      .cls-26 {
        fill: #5c0528;
      }

      .cls-27 {
        fill: #360318;
      }

      .cls-28 {
        fill: #3c031b;
      }

      .cls-29 {
        fill: #480420;
      }

      .cls-30 {
        fill: #69062e;
      }

      .cls-31 {
        fill: #370319;
      }

      .cls-8 {
        fill: url(#GradientFill_5-2);
      }

      .cls-32 {
        fill: #5f0629;
      }

      .cls-9 {
        fill: #43262a;
      }

      .cls-33 {
        fill: #4d0422;
      }

      .cls-34 {
        fill: #510524;
      }

      .cls-35 {
        fill: #3e031b;
      }

      .cls-36 {
        fill: #42041d;
      }

      .cls-10 {
        fill: url(#GradientFill_2-5);
      }

      .cls-37 {
        fill: #590527;
      }

      .cls-38 {
        fill: #540525;
      }

      .cls-39 {
        fill: #560526;
      }

      .cls-11 {
        fill: url(#GradientFill_3);
      }

      .cls-40 {
        clip-rule: evenodd;
        fill: none;
      }

      .cls-41 {
        fill: #41041d;
      }

      .cls-42 {
        fill: #3d031b;
      }

      .cls-43 {
        fill: #43041e;
      }

      .cls-12 {
        fill: url(#GradientFill_5);
      }

      .cls-13 {
        fill: url(#GradientFill_2);
      }

      .cls-14 {
        fill: #e36b00;
      }

      .cls-44 {
        fill: #710731;
      }

      .cls-45 {
        fill: #370318;
      }

      .cls-46 {
        fill: #4f0523;
      }

      .cls-47 {
        fill: #380319;
      }

      .cls-48 {
        fill: #3a031a;
      }

      .cls-49 {
        fill: #6d062f;
      }

      .cls-15 {
        fill: url(#GradientFill_4-2);
      }

      .cls-16 {
        fill: url(#GradientFill_2-3);
      }

      .cls-50 {
        fill: #46041f;
      }

      .cls-51 {
        fill: #390319;
      }

      .cls-52 {
        clip-path: url(#clippath);
      }

      .cls-17 {
        fill: url(#GradientFill_4-3);
      }

      .cls-53 {
        fill: #65062c;
      }

      .cls-54 {
        fill: #4b0421;
      }

      .cls-18 {
        fill: #d23c41;
      }
    </style>
    <clipPath id="clippath">
      <path class="cls-40" d="M150.7,331.35s31.28-75.17,84.5-86.69c53.22-11.52,147.05,44.99,176.68,116.32,29.63,71.33,29.08,141.56,6.03,194.79-23.04,53.22-46.64,60.91-57.61,63.65-10.97,2.74-100.05-8.74-132.26-15.79-32.21-7.04-64.75-27.93-76.36-66.25-11.61-38.33-28.97-127.01-.98-206.03Z"/>
    </clipPath>
    <linearGradient id="GradientFill_3" data-name="GradientFill 3" x1="256.96" y1="380.57" x2="261.53" y2="557.3" gradientUnits="userSpaceOnUse">
      <stop offset="0" stop-color="#f68f69"/>
      <stop offset="1" stop-color="#f47856"/>
    </linearGradient>
    <linearGradient id="GradientFill_2" data-name="GradientFill 2" x1="256.71" y1="523.95" x2="247.76" y2="556.91" gradientUnits="userSpaceOnUse">
      <stop offset="0" stop-color="#d43d42"/>
      <stop offset="1" stop-color="#f47856"/>
    </linearGradient>
    <linearGradient id="GradientFill_4" data-name="GradientFill 4" x1="273.95" y1="482.81" x2="274.48" y2="522.13" gradientUnits="userSpaceOnUse">
      <stop offset="0" stop-color="#f9a976"/>
      <stop offset="1" stop-color="#f58759"/>
    </linearGradient>
    <linearGradient id="GradientFill_2-2" data-name="GradientFill 2" x1="298.6" y1="430.09" x2="234.31" y2="435.37" xlink:href="#GradientFill_2"/>
    <linearGradient id="GradientFill_3-2" data-name="GradientFill 3" x1="304.3" y1="-1.69" x2="335.07" y2="564.64" xlink:href="#GradientFill_3"/>
    <linearGradient id="GradientFill_2-3" data-name="GradientFill 2" x1="297.88" y1="406.3" x2="354.94" y2="372.82" xlink:href="#GradientFill_2"/>
    <linearGradient id="GradientFill_4-2" data-name="GradientFill 4" x1="291.82" y1="385.62" x2="318.94" y2="242.37" xlink:href="#GradientFill_4"/>
    <linearGradient id="GradientFill_4-3" data-name="GradientFill 4" x1="252.72" y1="302.69" x2="280.91" y2="334.9" xlink:href="#GradientFill_4"/>
    <linearGradient id="GradientFill_5" data-name="GradientFill 5" x1="246.49" y1="293.35" x2="347.58" y2="275.68" gradientUnits="userSpaceOnUse">
      <stop offset="0" stop-color="#f9a976"/>
      <stop offset="1" stop-color="#fcc9a4"/>
    </linearGradient>
    <linearGradient id="GradientFill_4-4" data-name="GradientFill 4" x1="336.66" y1="364.98" x2="342.04" y2="537.07" xlink:href="#GradientFill_4"/>
    <linearGradient id="GradientFill_5-2" data-name="GradientFill 5" x1="333.09" y1="483.77" x2="295.65" y2="537.44" xlink:href="#GradientFill_5"/>
    <linearGradient id="GradientFill_5-3" data-name="GradientFill 5" x1="345.76" y1="398.1" x2="311.12" y2="437.03" xlink:href="#GradientFill_5"/>
    <linearGradient id="GradientFill_2-4" data-name="GradientFill 2" x1="355.34" y1="454.14" x2="285.41" y2="463.89" xlink:href="#GradientFill_2"/>
    <linearGradient id="GradientFill_2-5" data-name="GradientFill 2" x1="334.74" y1="520.66" x2="321.5" y2="576.34" xlink:href="#GradientFill_2"/>
  </defs>
  <path class="cls-9" d="M257.87,612.87c-34.17-7.89-51.82,3.94-74.6-16.91-22.78-20.85-51.26-54.67-59.8-165.7-8.54-111.03,57.76-211.3,100.8-253.07,43.04-41.77,128.14-63.13,189.07,1.13,60.94,64.25,83.56,145.3,81.44,250.25-2.12,104.94-39.3,163.45-80.59,188.81-41.29,25.36-91.69,16.06-109.91,11.55-18.22-4.51-27.9-12.12-46.41-16.06Z"/>
  <g class="cls-52">
    <rect class="cls-24" x="122.72" y="233.13" width="318.79" height="389.02"/>
    <path class="cls-24" d="M228.58,267.16c79.24-23.58,167.24,37.15,196.55,135.64,14.66,49.25,11.87,98.61-4.49,138.61-16.36,40-46.29,70.64-85.91,82.43v-.69h-60.02v3.3c-19.85-3.92-39.2-12.37-56.98-24.65-35.57-24.55-64.9-64.35-79.55-113.6-14.66-49.25-11.87-98.61,4.49-138.61,16.36-40,46.29-70.64,85.91-82.43Z"/>
    <path class="cls-44" d="M229.42,269.99c77.98-23.21,164.59,36.56,193.43,133.49,14.42,48.47,11.68,97.05-4.42,136.41-16.1,39.37-45.55,69.52-84.54,81.12-19.5,5.8-39.53,6.42-59.07,2.56-19.54-3.85-38.57-12.18-56.08-24.26-35-24.16-63.87-63.33-78.29-111.8-14.42-48.47-11.68-97.05,4.42-136.41,16.1-39.37,45.55-69.52,84.54-81.12Z"/>
    <path class="cls-49" d="M230.26,272.82c76.72-22.83,161.93,35.97,190.31,131.34,28.38,95.37-10.81,191.19-87.53,214.03-38.36,11.42-78.85,2.43-113.29-21.34-34.44-23.77-62.84-62.31-77.03-109.99s-11.49-95.48,4.35-134.21c15.84-38.73,44.82-68.4,83.18-79.81Z"/>
    <path class="cls-30" d="M231.11,275.65c75.47-22.46,159.28,35.38,187.19,129.18,27.92,93.81-10.63,188.06-86.1,210.52-37.73,11.23-77.55,2.39-111.43-20.99-33.88-23.38-61.81-61.29-75.77-108.19-27.92-93.81,10.63-188.06,86.1-210.52Z"/>
    <path class="cls-53" d="M231.95,278.48c74.21-22.09,156.62,34.79,184.07,127.03,27.45,92.24-10.45,184.92-84.66,207.01-37.1,11.04-76.26,2.35-109.57-20.64-33.31-22.99-60.78-60.27-74.5-106.39-27.45-92.24,10.45-184.92,84.66-207.01Z"/>
    <path class="cls-20" d="M232.79,281.31c72.95-21.71,153.97,34.2,180.95,124.88,26.99,90.68-10.27,181.79-83.23,203.5-36.48,10.86-74.97,2.31-107.71-20.29-32.75-22.6-59.75-59.25-73.24-104.59-26.99-90.68,10.27-181.79,83.23-203.5Z"/>
    <ellipse class="cls-32" cx="281.66" cy="445.5" rx="135.44" ry="168.35" transform="translate(-115.38 98.85) rotate(-16.57)"/>
    <ellipse class="cls-26" cx="281.66" cy="445.5" rx="133.06" ry="165.4" transform="translate(-115.38 98.85) rotate(-16.57)"/>
    <ellipse class="cls-37" cx="281.66" cy="445.5" rx="130.69" ry="162.45" transform="translate(-115.38 98.85) rotate(-16.57)"/>
    <ellipse class="cls-39" cx="281.66" cy="445.5" rx="128.31" ry="159.49" transform="translate(-115.38 98.85) rotate(-16.57)"/>
    <ellipse class="cls-38" cx="281.66" cy="445.5" rx="125.94" ry="156.54" transform="translate(-115.38 98.85) rotate(-16.57)"/>
    <ellipse class="cls-34" cx="281.66" cy="445.5" rx="123.56" ry="153.58" transform="translate(-115.38 98.85) rotate(-16.57)"/>
    <ellipse class="cls-46" cx="281.66" cy="445.5" rx="121.18" ry="150.63" transform="translate(-115.38 98.85) rotate(-16.57)"/>
    <ellipse class="cls-33" cx="281.66" cy="445.5" rx="118.81" ry="147.68" transform="translate(-115.38 98.85) rotate(-16.57)"/>
    <ellipse class="cls-54" cx="281.66" cy="445.5" rx="116.43" ry="144.72" transform="translate(-115.38 98.85) rotate(-16.57)"/>
    <ellipse class="cls-19" cx="281.66" cy="445.5" rx="114.05" ry="141.77" transform="translate(-115.38 98.85) rotate(-16.57)"/>
    <ellipse class="cls-29" cx="281.66" cy="445.5" rx="111.68" ry="138.82" transform="translate(-115.38 98.85) rotate(-16.57)"/>
    <ellipse class="cls-50" cx="281.66" cy="445.5" rx="109.3" ry="135.86" transform="translate(-115.38 98.85) rotate(-16.57)"/>
    <ellipse class="cls-25" cx="281.66" cy="445.5" rx="106.93" ry="132.91" transform="translate(-115.38 98.85) rotate(-16.57)"/>
    <ellipse class="cls-43" cx="281.66" cy="445.5" rx="104.55" ry="129.96" transform="translate(-115.38 98.85) rotate(-16.57)"/>
    <ellipse class="cls-36" cx="281.66" cy="445.5" rx="102.17" ry="127" transform="translate(-115.38 98.85) rotate(-16.57)"/>
    <ellipse class="cls-41" cx="281.66" cy="445.5" rx="99.8" ry="124.05" transform="translate(-115.38 98.85) rotate(-16.57)"/>
    <ellipse class="cls-23" cx="281.66" cy="445.5" rx="97.42" ry="121.1" transform="translate(-115.38 98.85) rotate(-16.57)"/>
    <ellipse class="cls-22" cx="281.66" cy="445.5" rx="95.05" ry="118.14" transform="translate(-115.38 98.85) rotate(-16.57)"/>
    <ellipse class="cls-35" cx="281.66" cy="445.5" rx="92.67" ry="115.19" transform="translate(-115.38 98.85) rotate(-16.57)"/>
    <ellipse class="cls-42" cx="281.66" cy="445.5" rx="90.29" ry="112.24" transform="translate(-115.38 98.85) rotate(-16.57)"/>
    <ellipse class="cls-28" cx="281.66" cy="445.5" rx="87.92" ry="109.28" transform="translate(-115.38 98.85) rotate(-16.57)"/>
    <ellipse class="cls-21" cx="281.66" cy="445.5" rx="85.54" ry="106.33" transform="translate(-115.38 98.85) rotate(-16.57)"/>
    <ellipse class="cls-21" cx="281.66" cy="445.5" rx="83.16" ry="103.37" transform="translate(-115.38 98.85) rotate(-16.57)"/>
    <ellipse class="cls-48" cx="281.66" cy="445.5" rx="80.79" ry="100.42" transform="translate(-115.38 98.85) rotate(-16.57)"/>
    <ellipse class="cls-48" cx="281.66" cy="445.5" rx="78.41" ry="97.47" transform="translate(-115.38 98.85) rotate(-16.57)"/>
    <ellipse class="cls-51" cx="281.66" cy="445.5" rx="76.04" ry="94.51" transform="translate(-115.38 98.85) rotate(-16.57)"/>
    <ellipse class="cls-51" cx="281.66" cy="445.5" rx="73.66" ry="91.56" transform="translate(-115.38 98.85) rotate(-16.57)"/>
    <ellipse class="cls-47" cx="281.66" cy="445.5" rx="71.28" ry="88.61" transform="translate(-115.38 98.85) rotate(-16.57)"/>
    <ellipse class="cls-47" cx="281.66" cy="445.5" rx="68.91" ry="85.65" transform="translate(-115.38 98.85) rotate(-16.57)"/>
    <ellipse class="cls-47" cx="281.66" cy="445.5" rx="66.53" ry="82.7" transform="translate(-115.38 98.85) rotate(-16.57)"/>
    <ellipse class="cls-47" cx="281.66" cy="445.5" rx="64.16" ry="79.75" transform="translate(-115.38 98.85) rotate(-16.57)"/>
    <ellipse class="cls-31" cx="281.66" cy="445.5" rx="61.78" ry="76.79" transform="translate(-115.38 98.85) rotate(-16.57)"/>
    <ellipse class="cls-45" cx="281.66" cy="445.5" rx="59.4" ry="73.84" transform="translate(-115.38 98.85) rotate(-16.57)"/>
    <ellipse class="cls-45" cx="281.66" cy="445.5" rx="57.03" ry="70.89" transform="translate(-115.38 98.85) rotate(-16.57)"/>
    <ellipse class="cls-45" cx="281.66" cy="445.5" rx="54.65" ry="67.93" transform="translate(-115.38 98.85) rotate(-16.57)"/>
    <ellipse class="cls-45" cx="281.66" cy="445.5" rx="52.27" ry="64.98" transform="translate(-115.38 98.85) rotate(-16.57)"/>
    <ellipse class="cls-45" cx="281.66" cy="445.5" rx="49.9" ry="62.02" transform="translate(-115.38 98.85) rotate(-16.57)"/>
    <ellipse class="cls-27" cx="281.66" cy="445.5" rx="47.52" ry="59.07" transform="translate(-115.38 98.85) rotate(-16.57)"/>
    <ellipse class="cls-27" cx="281.66" cy="445.5" rx="45.15" ry="56.12" transform="translate(-115.38 98.85) rotate(-16.57)"/>
    <ellipse class="cls-27" cx="281.66" cy="445.5" rx="42.77" ry="53.16" transform="translate(-115.38 98.85) rotate(-16.57)"/>
    <ellipse class="cls-27" cx="281.66" cy="445.5" rx="40.39" ry="50.21" transform="translate(-115.38 98.85) rotate(-16.57)"/>
    <ellipse class="cls-27" cx="281.66" cy="445.5" rx="38.02" ry="47.26" transform="translate(-115.38 98.85) rotate(-16.57)"/>
    <ellipse class="cls-27" cx="281.66" cy="445.5" rx="35.64" ry="44.3" transform="translate(-115.37 98.85) rotate(-16.57)"/>
    <ellipse class="cls-27" cx="281.66" cy="445.5" rx="33.27" ry="41.35" transform="translate(-115.37 98.85) rotate(-16.57)"/>
    <ellipse class="cls-27" cx="281.66" cy="445.5" rx="30.89" ry="38.4" transform="translate(-115.38 98.85) rotate(-16.57)"/>
    <ellipse class="cls-27" cx="281.66" cy="445.5" rx="28.51" ry="35.44" transform="translate(-115.38 98.85) rotate(-16.57)"/>
    <ellipse class="cls-27" cx="281.66" cy="445.5" rx="26.14" ry="32.49" transform="translate(-115.38 98.85) rotate(-16.57)"/>
    <ellipse class="cls-27" cx="281.66" cy="445.5" rx="23.76" ry="29.54" transform="translate(-115.38 98.85) rotate(-16.57)"/>
    <ellipse class="cls-27" cx="281.66" cy="445.5" rx="21.39" ry="26.58" transform="translate(-115.38 98.85) rotate(-16.57)"/>
    <ellipse class="cls-27" cx="281.66" cy="445.5" rx="19.01" ry="23.63" transform="translate(-115.38 98.85) rotate(-16.57)"/>
    <ellipse class="cls-27" cx="281.66" cy="445.5" rx="16.63" ry="20.67" transform="translate(-115.38 98.85) rotate(-16.57)"/>
    <ellipse class="cls-27" cx="281.66" cy="445.5" rx="14.26" ry="17.72" transform="translate(-115.38 98.85) rotate(-16.57)"/>
    <path class="cls-27" d="M277.44,431.35c6.29-1.87,13.27,2.95,15.6,10.77,2.33,7.82-.89,15.67-7.17,17.54-6.29,1.87-13.27-2.95-15.6-10.77-2.33-7.82.89-15.67,7.17-17.54Z"/>
    <ellipse class="cls-27" cx="281.66" cy="445.5" rx="9.5" ry="11.81" transform="translate(-115.38 98.85) rotate(-16.57)"/>
    <path class="cls-27" d="M279.13,437.01c3.77-1.12,7.96,1.77,9.36,6.46s-.53,9.4-4.3,10.53c-3.77,1.12-7.96-1.77-9.36-6.46s.53-9.4,4.3-10.53Z"/>
    <path class="cls-27" d="M279.97,439.84c2.52-.75,5.31,1.18,6.24,4.31.93,3.13-.35,6.27-2.87,7.02-2.52.75-5.31-1.18-6.24-4.31s.35-6.27,2.87-7.02Z"/>
    <path class="cls-27" d="M280.81,442.67c1.26-.37,2.65.59,3.12,2.15.47,1.56-.18,3.13-1.43,3.51-1.26.37-2.65-.59-3.12-2.15s.18-3.13,1.43-3.51Z"/>
  </g>
  <path class="cls-11" d="M300.63,489.78s-30.45-7.13-39.23,1.37c-8.78,8.51-18.38,27.71-23.59,38.96-5.21,11.25-7.82,15.23-10.84,15.91-3.02.69-11.93,3.02-12.62,5.76-.69,2.74,4.39,3.43,8.09,5.9,3.7,2.47,12.48,6.04,20.85,3.98,8.37-2.06,13.85-12.76,19.34-19.07,5.49-6.31,9.88-11.52,14.54-10.97,4.66.55,4.39,5.62,9.05,3.43,4.66-2.19,33.61-37.72,14.4-45.27Z"/>
  <path class="cls-13" d="M218.81,548.52c-2.27.94-4.16,2.07-4.46,3.27-.69,2.74,4.39,3.43,8.09,5.9,3.7,2.47,12.48,6.04,20.85,3.98,8.37-2.06,13.85-12.76,19.34-19.07,5.49-6.31,9.88-11.52,14.54-10.97,4.66.55,4.39,5.62,9.05,3.43.61-.29,1.64-1.15,2.92-2.44l-.27-15.32s-10.97-3.57-21.4,3.57c-10.43,7.13-13.28,32.69-28.81,33.74-8.65.59-15.49-2.89-19.86-6.08Z"/>
  <path class="cls-4" d="M300.63,489.78s-30.45-7.13-39.23,1.37c-6.98,6.77-14.49,20.31-19.89,31.23,1.18.9,2.96,1.47,5.63.87,6.72-1.51,7.41-8.51,19.48-13.17,12.07-4.66,18.65-7.41,27.43-4.39,4.39,1.51,8.37,1.78,11.68,1.2,2.54-7.49,2.13-14.28-5.09-17.11Z"/>
  <path class="cls-6" d="M299.67,408.71s-12.62,19.34-18.24,22.08c-5.62,2.74-14.27-1.51-17.56-4.53-3.29-3.02-8.23-14.54-10.29-18.38-2.06-3.84-2.47,0-3.02,2.47-.55,2.47-2.33-5.08-4.12-5.35-1.78-.27-1.37,6.17-1.37,6.17,0,0-3.02-2.88-3.84.55-.82,3.43.96,10.84,3.98,16.87,3.02,6.04,11.8,24.96,25.65,30.32,13.85,5.35,23.59-1.65,27.57-5.49,3.98-3.84,10.01-47.32,1.24-44.72Z"/>
  <path class="cls-14" d="M257.87,612.87c-34.17-7.89-51.82,3.94-74.6-16.91-22.78-20.85-51.26-54.67-59.8-165.71-8.54-111.03,57.76-211.3,100.8-253.07,43.04-41.77,128.14-63.13,189.07,1.13,60.94,64.25,83.56,145.3,81.44,250.25-2.12,104.94-39.3,163.45-80.59,188.81-41.29,25.36-91.69,16.06-109.91,11.55-18.22-4.51-27.9-12.12-46.41-16.06h0ZM266.86,592.6c18.11.55,22.77,18.38,70.51,19.48,47.74,1.1,96.57-35.94,115.77-79.29,19.2-43.35,22.5-100.41,17.28-162.41-5.21-62-26.89-121.81-59.26-161.04-32.37-39.23-67.49-54.6-111.66-48.29-44.17,6.31-93.28,62.28-117.7,110.84-24.42,48.56-31,88.61-34.84,120.44-3.84,31.82,2.2,66.12,12.62,70.78,10.43,4.66,19.48-1.1,28.53-11.25,9.05-10.15,22.5-29.63,46.36-23.32,23.87,6.31,31,39.78,41.98,43.9,6.76,2.53,13.09,1.22,19.15.67,4.11-1.23,8.42-1.25,11.99.12,9.33,3.56,8.64,19.58,3.15,22.87-5.49,3.29-9.6,1.03-17.01-4.73-7.41-5.76-16.46,1.65-25.24-5.21-8.78-6.86-17.28-27.16-25.51-35.67-8.23-8.5-21.4-10.97-31.82-4.66-10.43,6.31-5.21,15.64-12.62,24.69-7.41,9.05-21.12,9.6-28.26,32.1-7.13,22.5,4.94,56.51,23.59,72.98,18.66,16.46,49.93,12.62,72.98,17.01Z"/>
  <path class="cls-2" d="M174.85,198.8c-4.66-.55.55-17.83-17.56-49.93-18.11-32.1-32.92-63.37-32.92-86.69s24.97-49.93,55.42-47.19c30.45,2.74,40.05,38.96,43.35,43.62,3.29,4.66,24.14-4.94,37.86,7.68,13.72,12.62,21.12,38.68,4.39,58.16-16.73,19.48-61.73,40.6-72.43,50.2-10.7,9.6-14.27,25.24-18.11,24.14Z"/>
  <path class="cls-14" d="M174.85,198.8c-4.66-.55.55-17.83-17.56-49.93-8.86-15.71-16.93-31.23-22.87-45.71.72-9.93,3.69-22.88,13.82-27.54,17.28-7.96,34.57,4.94,44.44,19.75,9.88,14.82,27.16,20.03,38.96,18.11,11.07-1.8,25.75,8.95,12.36,28.85-19.57,13.4-43.6,25.65-51.04,32.33-10.7,9.6-14.27,25.24-18.11,24.14h0ZM137.81,265.74c-6.04,2.2-12.07-15.09-6.31-18.11,5.76-3.02,12.62,12.35,6.31,18.11h0ZM149.33,235.56c16.62.76,20.47-56.01,4.94-55.69-15.53.31-24.14,52.4-4.94,55.69Z"/>
  <path class="cls-14" d="M155.78,41.32c-3.02-3.7-.41-17.83,9.74-19.48,10.15-1.65,30.59,3.57,34.7,12.35,4.12,8.78-6.17,14.4-11.93,14.13-5.76-.27-9.05-2.47-16.46-4.11-7.41-1.65-13.03.55-16.05-2.88Z"/>
  <path class="cls-2" d="M273.45,622.77c-38.96-8.23-47.74,6.58-79.56-9.88-31.82-16.46-73.52-62-79.01-177.77-5.49-115.77,62.55-242.52,114.68-273.8,52.13-31.28,116.87-47.74,173.93-3.29,57.06,44.44,101.51,126.2,100.41,265.02-1.1,138.82-75.72,217.28-139.92,220.57-64.2,3.29-60.36-14.81-90.53-20.85h0ZM259.73,606.86c17.83,3.84,27.16,11.25,44.72,15.64,17.56,4.39,66.12,13.44,105.9-11.25,39.78-24.69,75.6-81.65,77.64-183.81,2.04-102.16-19.75-181.07-78.46-243.62-58.71-62.55-140.69-41.76-182.17-1.1-41.47,40.66-105.35,138.27-97.12,246.36,8.23,108.09,35.67,141.01,57.61,161.31,21.95,20.3,38.96,8.78,71.88,16.46Z"/>
  <path class="cls-7" d="M260.58,386.63c7.54,4.39,14.95,5.63,25.65,6.72,10.7,1.1,18.52-.28,18.52-.28,0,0-7.64,8.71-10.29,36.9-.18,1.95-.32,3.92-.43,5.89-.92-.47-1.84-.96-2.78-1.49-6.09-2.89-16.46-2.88-16.19-.13.28,2.74,3.16,2.19,2.61,3.7-.55,1.51-4.39,1.24-4.53,3.16-.14,1.92,2.61.55,2.33,1.92-.27,1.37-2.75,2.88-1.24,4.12,1.51,1.24,3.7-3.57,7.41-1.65,1.77.92,6.78,4.29,12.31,8.01.28,6.86.88,13.52,1.66,19.6,3.78-.35,7.44-.39,11.03.98,7.12,2.72,8.17,11.69,5.82,17.24-1.99.02-3.87.11-5.58.27-.9.08-1.78.22-2.64.41-1.68.37-3.28.92-4.8,1.63.64,2.4,1.28,4.36,1.88,5.76,3.84,9.05-20.85,33.61-21.95,43.89-1.1,10.29-1.78,17.28-6.58,21.67-4.8,4.39-10.84,6.86-9.74,8.92,1.1,2.06,5.9,1.37,5.9,1.37,0,0-.41,3.84,3.15,4.25,3.57.41,5.07.82,8.23,1.78,3.16.96,6.72-.96,10.56-2.33,3.84-1.37,8.78-4.8,10.56-8.78,1.78-3.98,12.62-36.08,15.64-37.31,3.02-1.23,23.87,12.35,34.84,13.31,10.97.96,34.02-11.52,41.84-29.08,7.82-17.56,9.33-37.17,9.33-37.17,0,0-18.79-48.97-26.75-62.96-7.96-13.99-2.74-19.62-5.76-27.16-3.02-7.54-6.17-20.58-4.94-30.86,1.23-10.29,2.61-10.84,3.7-18.38,1.1-7.54-103.02,7.54-108.78,46.09Z"/>
  <path class="cls-16" d="M304.75,393.08s-3.34,3.81-6.37,14.54c7.66-1.28,18.52-3.96,29.05-9.53,19.2-10.15,29.9-31.55,29.9-31.55,0,0-17.83,16.46-28.53,21.4-10.7,4.94-24.05,5.14-24.05,5.14Z"/>
  <path class="cls-15" d="M260.58,386.63c-9.74-5.62-17.42-12.21-18.1-26.88-.69-14.68,4.66-23.05.55-37.45-4.12-14.4-8.78-57.89,25.51-81.89,34.29-24.01,81.21-12.89,97.67,21.81,16.46,34.7,4.6,71.25,3.16,78.18-1.43,6.93-22.09,32.11-44.31,38.28-22.22,6.17-34.02,8.23-40.05,9.46-6.04,1.23-14.4,1.51-24.42-1.51Z"/>
  <path class="cls-17" d="M242.96,348.76c1.06-8.78,3.04-16.04.06-26.46-.48-1.69-.97-3.79-1.41-6.2,7.63,3.03,19.9,6.64,28.88,3.11,13.99-5.49,26.3-19.33,37.02-10.9,10.72,8.43-5.74,36.97-25.22,41.35-19.48,4.39-24.96-6.86-34.02-1.65-1.49.86-3.34,1.07-5.32.74Z"/>
  <path class="cls-12" d="M240.24,296.65c.59-18.41,6.76-41.17,28.3-56.25,34.29-24.01,81.21-12.89,97.67,21.81,11.58,24.42,9.14,49.74,6.18,65.02h0c.11-44.09-10.08-71.98-49.49-82.11-39.4-10.13-80.09,12.61-82.65,51.53Z"/>
  <path class="cls-18" d="M332.05,308.31s13.72-6.59,19.07,3.15c5.35,9.74-.96,20.99-.96,20.99,0,0,11.52-13.99,3.29-24.55-8.23-10.56-21.81-1.1-21.4.41h0ZM262.16,372.78c-1.44,2.19,1.92,6.24,4.53,4.25,2.61-1.99-2.61-5.83-4.53-4.25h0ZM253.59,355.36s.75,3.64,4.12,3.16c3.36-.48,5.42-1.37,5.42-1.37,0,0-1.37,3.7-5.9,3.5-4.53-.2-4.73-3.5-3.64-5.28h0ZM272.38,330.12s3.84,3.29,10.84.96c7-2.33,10.43-6.17,10.43-6.17,0,0-2.88,6.44-10.63,8.43-7.75,1.99-10.43-2.26-10.63-3.22h0ZM245.29,333.69s1.51,2.33,4.87,1.71c3.36-.62,5.01-3.22,5.01-3.22,0,0-.62,4.6-4.73,5.69-4.12,1.1-5.14-4.18-5.14-4.18Z"/>
  <path class="cls-3" d="M291.25,434.38s22.36,7.68,27.02,6.31c4.66-1.37,11.25-12.48,14.68-19.2,3.43-6.72,7-9.47,7.96-12.35.96-2.88.28-12.76,3.29-17.97,3.02-5.21,11.93-9.33,15.5-8.23,3.57,1.1,8.63,1.89,10.9,6.84,2.27,4.95,16.26,32.25,22.85,48.71,6.58,16.46,9.59,31.79,9.66,41.41.08,9.62-14.6,35.54-19.4,38.01-4.8,2.47-22.36-2.19-32.51-6.72-10.15-4.53-26-3.72-37.18-.69-11.17,3.03-22.36,18.24-26.47,24.97-4.12,6.72-8.17,7.8-8.17,7.8,0,0,1.45-15.9,2.41-25.36.96-9.47,10.56-24.97,25.1-26.34,14.54-1.37,41.15,2.88,48.83,2.47,7.68-.41,22.64-15.36,24.14-29.63,1.51-14.27-7.68-35.66-9.74-37.72-2.06-2.06-10.43,3.43-16.32,10.01-5.9,6.58-19.75,13.85-28.53,14.13-8.78.27-27.98-11.11-34.02-16.46Z"/>
  <path class="cls-8" d="M279.37,543.28s1.45-15.9,2.41-25.36c.96-9.47,10.56-24.97,25.1-26.34,14.54-1.37,41.15,2.88,48.83,2.47.3,14.62-31.85,1.29-50.22,3.55-18.37,2.26-26.12,45.67-26.12,45.67Z"/>
  <path class="cls-1" d="M291.25,434.38s22.36,7.68,27.02,6.31c4.66-1.37,11.25-12.48,14.68-19.2,3.43-6.72,7-9.47,7.96-12.35.86-2.57.4-10.7,2.44-16.13,7.24-.12,8.15,12.58,4.25,21.94-4.12,9.88-16.19,28.4-25.1,28.94-8.92.55-31.24-9.52-31.24-9.52Z"/>
  <path class="cls-5" d="M293.95,453.5c.12,3,.31,5.96.54,8.86,5.4,2.53,14.77,6.9,19.11,8.79,6.31,2.74,16.19,4.53,29.22-6.45,13.03-10.97,17.56-26.06,17.56-26.06,0,0-5.76,10.29-13.03,17.15-7.27,6.86-18.93,12.35-27.57,11.66-8.64-.69-25.83-13.94-25.83-13.94Z"/>
  <path class="cls-2" d="M149.23,343.89s-15.36,63.65-5.76,99.59c9.6,35.94,32.65,32.65,41.98,19.48,9.33-13.17,23.08-32.59,41.43-33.47,18.34-.88,39.78,37.31,39.78,37.31,0,0-24.14-32.1-38.96-30.45-14.81,1.65-24.97,8.5-27.71,19.75-2.74,11.25-9.33,19.75-20.03,25.24-10.7,5.49-16.46,7.13-19.75,21.95-3.29,14.81-1.37,27.16,6.58,45.27,7.96,18.11,17.83,32.37,17.83,32.37,0,0-14.27-11.52-34.84-62.83-20.58-51.3-15.91-156.15-.55-174.21Z"/>
  <path class="cls-10" d="M303.97,546.37c-2.74,9.6-9.05,24.42-19.75,26.34-6.5,1.17-11.28-2.53-14.03-5.6-4.1,3.1-8.04,5.08-7.14,6.77,1.1,2.06,5.9,1.37,5.9,1.37,0,0-.41,3.84,3.15,4.25,3.57.41,5.07.82,8.23,1.78,3.16.96,6.72-.96,10.56-2.33,3.84-1.37,8.78-4.8,10.56-8.78,1.78-3.98,12.62-36.08,15.64-37.31,3.02-1.23,23.87,12.35,34.84,13.31,10.97.96,34.02-11.52,41.84-29.08,1.08-2.42,2.03-4.87,2.88-7.31-7.17,14.16-14.06,22.24-30.69,24.8-16.63,2.56-38.96-16.19-45.82-15.09-6.86,1.1-13.44,17.28-16.19,26.89Z"/>
</svg>