<?xml version="1.0" encoding="UTF-8"?>
<svg id="Layer_1" data-name="Layer 1" xmlns="http://www.w3.org/2000/svg" xmlns:xlink="http://www.w3.org/1999/xlink" viewBox="0 0 561 873">
  <defs>
    <style>
      .cls-1 {
        fill: url(#GradientFill_5-3);
      }

      .cls-1, .cls-2, .cls-3, .cls-4, .cls-5, .cls-6, .cls-7, .cls-8, .cls-9, .cls-10, .cls-11, .cls-12, .cls-13, .cls-14, .cls-15, .cls-16, .cls-17, .cls-18, .cls-19, .cls-20, .cls-21 {
        fill-rule: evenodd;
      }

      .cls-2 {
        fill: #f38155;
      }

      .cls-3 {
        fill: url(#GradientFill_9);
      }

      .cls-4 {
        fill: url(#GradientFill_4-4);
      }

      .cls-22 {
        fill: #490420;
      }

      .cls-23 {
        fill: #62062b;
      }

      .cls-24 {
        fill: #3b031a;
      }

      .cls-5 {
        fill: url(#GradientFill_4);
      }

      .cls-6 {
        fill: url(#GradientFill_2-4);
      }

      .cls-25 {
        fill: #3f041c;
      }

      .cls-7 {
        fill: url(#GradientFill_2-2);
      }

      .cls-26 {
        fill: #40041c;
      }

      .cls-27 {
        fill: #750733;
      }

      .cls-28 {
        fill: #45041e;
      }

      .cls-29 {
        fill: #5c0528;
      }

      .cls-8 {
        fill: url(#GradientFill_4-5);
      }

      .cls-30 {
        fill: #360318;
      }

      .cls-31 {
        fill: #3c031b;
      }

      .cls-32 {
        fill: #480420;
      }

      .cls-33 {
        fill: #69062e;
      }

      .cls-34 {
        fill: #370319;
      }

      .cls-9 {
        fill: url(#GradientFill_5-2);
      }

      .cls-35 {
        fill: #5f0629;
      }

      .cls-10 {
        fill: #43262a;
      }

      .cls-36 {
        fill: #4d0422;
      }

      .cls-37 {
        fill: #510524;
      }

      .cls-38 {
        fill: #3e031b;
      }

      .cls-39 {
        fill: #42041d;
      }

      .cls-40 {
        fill: #590527;
      }

      .cls-41 {
        fill: #540525;
      }

      .cls-42 {
        fill: #560526;
      }

      .cls-11 {
        fill: url(#GradientFill_3);
      }

      .cls-43 {
        clip-rule: evenodd;
        fill: none;
      }

      .cls-12 {
        fill: url(#GradientFill_10);
      }

      .cls-44 {
        fill: #41041d;
      }

      .cls-45 {
        fill: #3d031b;
      }

      .cls-46 {
        fill: #43041e;
      }

      .cls-13 {
        fill: url(#GradientFill_5);
      }

      .cls-14 {
        fill: url(#GradientFill_2);
      }

      .cls-15 {
        fill: #e36b00;
      }

      .cls-47 {
        fill: #710731;
      }

      .cls-48 {
        fill: #370318;
      }

      .cls-49 {
        fill: #4f0523;
      }

      .cls-50 {
        fill: #380319;
      }

      .cls-51 {
        fill: #3a031a;
      }

      .cls-52 {
        fill: #6d062f;
      }

      .cls-16 {
        fill: url(#GradientFill_4-6);
      }

      .cls-17 {
        fill: url(#GradientFill_4-2);
      }

      .cls-18 {
        fill: url(#GradientFill_2-3);
      }

      .cls-53 {
        fill: #46041f;
      }

      .cls-19 {
        fill: url(#GradientFill_5-4);
      }

      .cls-54 {
        fill: #390319;
      }

      .cls-55 {
        clip-path: url(#clippath);
      }

      .cls-20 {
        fill: url(#GradientFill_4-3);
      }

      .cls-56 {
        fill: #65062c;
      }

      .cls-57 {
        fill: #4b0421;
      }

      .cls-21 {
        fill: #d23c41;
      }
    </style>
    <clipPath id="clippath">
      <path class="cls-43" d="M121.41,434.01s31.69-44.97,76.66-59.28c44.97-14.31,171.72,5.62,204.94,111.93,33.22,106.3,24.02,196.25-5.11,251.96-29.13,55.71-67.97,66.44-67.97,66.44,0,0-96.49-32.83-126.75-28.62-30.26,4.21-57.24-5.62-74.11-33.73-16.86-28.11-84.84-179.9-7.67-308.69Z"/>
    </clipPath>
    <linearGradient id="GradientFill_2" data-name="GradientFill 2" x1="355.82" y1="697.44" x2="181.65" y2="713.74" gradientUnits="userSpaceOnUse">
      <stop offset="0" stop-color="#d43d42"/>
      <stop offset="1" stop-color="#f47856"/>
    </linearGradient>
    <linearGradient id="GradientFill_9" data-name="GradientFill 9" x1="204.74" y1="703.5" x2="202.14" y2="752.63" gradientUnits="userSpaceOnUse">
      <stop offset="0" stop-color="#f47c5a"/>
      <stop offset="1" stop-color="#d43d42"/>
    </linearGradient>
    <linearGradient id="GradientFill_4" data-name="GradientFill 4" x1="214.67" y1="595.36" x2="217.93" y2="703.49" gradientUnits="userSpaceOnUse">
      <stop offset="0" stop-color="#f9a976"/>
      <stop offset="1" stop-color="#f58759"/>
    </linearGradient>
    <linearGradient id="GradientFill_5" data-name="GradientFill 5" x1="212.87" y1="615.71" x2="182.14" y2="640.23" gradientUnits="userSpaceOnUse">
      <stop offset="0" stop-color="#f9a976"/>
      <stop offset="1" stop-color="#fcc9a4"/>
    </linearGradient>
    <linearGradient id="GradientFill_4-2" data-name="GradientFill 4" x1="199.56" y1="722.26" x2="200.14" y2="755.56" xlink:href="#GradientFill_4"/>
    <linearGradient id="GradientFill_2-2" data-name="GradientFill 2" x1="248.33" y1="529.34" x2="200.48" y2="582.82" xlink:href="#GradientFill_2"/>
    <linearGradient id="GradientFill_3" data-name="GradientFill 3" x1="262.15" y1="148.7" x2="279.2" y2="712.35" gradientUnits="userSpaceOnUse">
      <stop offset="0" stop-color="#f68f69"/>
      <stop offset="1" stop-color="#f47856"/>
    </linearGradient>
    <linearGradient id="GradientFill_10" data-name="GradientFill 10" x1="248.32" y1="645.55" x2="255.51" y2="866.53" gradientUnits="userSpaceOnUse">
      <stop offset="0" stop-color="#f47e5c"/>
      <stop offset="1" stop-color="#f47856"/>
    </linearGradient>
    <linearGradient id="GradientFill_2-3" data-name="GradientFill 2" x1="383.4" y1="446.99" x2="268.77" y2="535.71" xlink:href="#GradientFill_2"/>
    <linearGradient id="GradientFill_4-3" data-name="GradientFill 4" x1="268.81" y1="529.1" x2="302" y2="343.36" xlink:href="#GradientFill_4"/>
    <linearGradient id="GradientFill_4-4" data-name="GradientFill 4" x1="225.22" y1="419.28" x2="267.87" y2="467.87" xlink:href="#GradientFill_4"/>
    <linearGradient id="GradientFill_5-2" data-name="GradientFill 5" x1="200.48" y1="403.32" x2="337.77" y2="371.25" xlink:href="#GradientFill_5"/>
    <linearGradient id="GradientFill_2-4" data-name="GradientFill 2" x1="258.39" y1="560" x2="434.08" y2="594.39" xlink:href="#GradientFill_2"/>
    <linearGradient id="GradientFill_4-5" data-name="GradientFill 4" x1="355.69" y1="515.51" x2="307.66" y2="555.59" xlink:href="#GradientFill_4"/>
    <linearGradient id="GradientFill_5-3" data-name="GradientFill 5" x1="370.62" y1="503.78" x2="317.23" y2="554.27" xlink:href="#GradientFill_5"/>
    <linearGradient id="GradientFill_4-6" data-name="GradientFill 4" x1="316.3" y1="538.84" x2="321.38" y2="735.05" xlink:href="#GradientFill_4"/>
    <linearGradient id="GradientFill_5-4" data-name="GradientFill 5" x1="316.87" y1="627.46" x2="256.11" y2="693.09" xlink:href="#GradientFill_5"/>
  </defs>
  <path class="cls-10" d="M220.62,796.29c-16.38-7.4-60.77-1.59-86.66-20.61-25.89-19.02-61.82-92.47-64.47-182.3-2.64-89.83,47.17-216.28,110.44-278.47,63.27-62.19,123.65-61.82,164.34-47.03,40.69,14.8,114.66,86.13,140.03,215.06,25.36,128.93-17.97,238.84-49.67,280.59-31.7,41.75-76.62,62.35-117.84,59.71-41.22-2.64-79.79-22.72-96.17-26.95Z"/>
  <g class="cls-55">
    <rect class="cls-27" x="44.23" y="360.42" width="392" height="444.64"/>
    <path class="cls-27" d="M211,379.9c92.78-16.46,185.79,70.53,207.75,194.3,10.98,61.88,2.12,121.25-21.09,167.19-11.6,22.97-26.79,42.59-44.88,57.5-4.52,3.73-9.22,7.16-14.1,10.27v-3.11h-148.88v.44c-10.37-6.47-20.32-14.16-29.72-22.95-37.59-35.16-66.34-87.85-77.32-149.73-21.96-123.77,35.45-237.45,128.23-253.91Z"/>
    <path class="cls-47" d="M211.63,383.46c91.3-16.2,182.84,69.41,204.45,191.21,10.8,60.9,2.08,119.32-20.75,164.54-11.42,22.61-26.36,41.92-44.16,56.59-4.45,3.67-9.08,7.04-13.87,10.11-2.4,1.53-4.84,2.99-7.32,4.36v-4.22h-123.61v5.86c-5.29-2.56-10.49-5.45-15.59-8.63-10.2-6.37-20-13.94-29.24-22.59-37-34.6-65.28-86.46-76.09-147.36-21.61-121.8,34.89-233.68,126.19-249.88Z"/>
    <path class="cls-52" d="M212.26,387.02c89.83-15.94,179.89,68.29,201.15,188.13,10.63,59.92,2.05,117.4-20.42,161.89-11.23,22.24-25.94,41.24-43.45,55.67-8.76,7.22-18.21,13.29-28.29,18.06v-4.71h-114.18v2.5c-5.2-2.52-10.32-5.36-15.34-8.49-10.04-6.26-19.67-13.71-28.77-22.23-36.4-34.04-64.23-85.06-74.86-144.98-21.26-119.84,34.33-229.91,124.16-245.84Z"/>
    <path class="cls-33" d="M212.89,390.57c88.36-15.68,176.94,67.17,197.85,185.05,10.46,58.94,2.02,115.47-20.08,159.23-11.05,21.88-25.51,40.57-42.74,54.76-8.61,7.1-17.91,13.07-27.82,17.76v-1.32h-96.72v5.65c-21.06-7.4-41.07-19.97-58.97-36.72-35.8-33.49-63.18-83.67-73.63-142.6-20.91-117.87,33.76-226.14,122.12-241.81Z"/>
    <path class="cls-56" d="M213.52,394.13c86.89-15.41,173.99,66.05,194.56,181.96,10.28,57.95,1.98,113.55-19.75,156.58-10.87,21.52-25.09,39.89-42.03,53.85-8.47,6.98-17.62,12.86-27.36,17.47-4.87,2.31-9.89,4.3-15.06,5.95v-3.88h-80.06v2.19c-20.71-7.28-40.38-19.64-57.99-36.11-35.21-32.93-62.13-82.27-72.41-140.23-20.56-115.91,33.2-222.37,120.09-237.78Z"/>
    <path class="cls-23" d="M214.15,397.69c85.41-15.15,171.04,64.93,191.26,178.88,20.22,113.95-32.64,218.6-118.05,233.75v-4.26h-31.91v5.6c-10.56-.96-20.99-3.29-31.16-6.87-20.35-7.16-39.7-19.31-57-35.49-34.61-32.37-61.07-80.88-71.18-137.85-20.22-113.95,32.64-218.6,118.05-233.75Z"/>
    <path class="cls-35" d="M214.78,401.24c83.94-14.89,168.09,63.81,187.96,175.79,19.87,111.98-32.07,214.83-116.02,229.72-20.99,3.72-41.98,1.6-61.99-5.44-20-7.03-39.01-18.98-56.02-34.88-34.01-31.81-60.02-79.48-69.95-135.47-19.87-111.98,32.07-214.83,116.02-229.72Z"/>
    <path class="cls-29" d="M215.41,404.8c82.47-14.63,165.14,62.69,184.66,172.71,19.52,110.02-31.51,211.06-113.98,225.69-41.23,7.32-82.52-8.36-115.94-39.61-33.42-31.25-58.97-78.09-68.73-133.1-19.52-110.02,31.51-211.06,113.98-225.69Z"/>
    <path class="cls-40" d="M216.04,408.36c81-14.37,162.2,61.57,181.37,169.63,19.17,108.05-30.95,207.29-111.94,221.66-40.5,7.18-81.05-8.21-113.87-38.9-32.82-30.7-57.91-76.7-67.5-130.72-19.17-108.05,30.95-207.29,111.94-221.66Z"/>
    <ellipse class="cls-42" cx="250.76" cy="604" rx="146.24" ry="195.09" transform="translate(-101.66 53.09) rotate(-10.06)"/>
    <ellipse class="cls-41" cx="250.76" cy="604" rx="143.53" ry="191.47" transform="translate(-101.66 53.09) rotate(-10.06)"/>
    <ellipse class="cls-37" cx="250.76" cy="604" rx="140.82" ry="187.86" transform="translate(-101.66 53.09) rotate(-10.06)"/>
    <ellipse class="cls-49" cx="250.76" cy="604" rx="138.11" ry="184.25" transform="translate(-101.66 53.09) rotate(-10.06)"/>
    <ellipse class="cls-36" cx="250.76" cy="604" rx="135.4" ry="180.64" transform="translate(-101.66 53.09) rotate(-10.06)"/>
    <ellipse class="cls-57" cx="250.76" cy="604" rx="132.7" ry="177.02" transform="translate(-101.66 53.09) rotate(-10.06)"/>
    <ellipse class="cls-22" cx="250.76" cy="604" rx="129.99" ry="173.41" transform="translate(-101.66 53.09) rotate(-10.06)"/>
    <ellipse class="cls-32" cx="250.76" cy="604" rx="127.28" ry="169.8" transform="translate(-101.66 53.09) rotate(-10.06)"/>
    <ellipse class="cls-53" cx="250.76" cy="604" rx="124.57" ry="166.19" transform="translate(-101.66 53.09) rotate(-10.06)"/>
    <ellipse class="cls-28" cx="250.76" cy="604" rx="121.86" ry="162.57" transform="translate(-101.66 53.09) rotate(-10.06)"/>
    <ellipse class="cls-46" cx="250.76" cy="604" rx="119.16" ry="158.96" transform="translate(-101.66 53.09) rotate(-10.06)"/>
    <ellipse class="cls-39" cx="250.76" cy="604" rx="116.45" ry="155.35" transform="translate(-101.66 53.09) rotate(-10.06)"/>
    <ellipse class="cls-44" cx="250.76" cy="604" rx="113.74" ry="151.73" transform="translate(-101.66 53.09) rotate(-10.06)"/>
    <ellipse class="cls-26" cx="250.76" cy="604" rx="111.03" ry="148.12" transform="translate(-101.66 53.09) rotate(-10.06)"/>
    <ellipse class="cls-25" cx="250.76" cy="604" rx="108.32" ry="144.51" transform="translate(-101.66 53.09) rotate(-10.06)"/>
    <ellipse class="cls-38" cx="250.76" cy="604" rx="105.62" ry="140.9" transform="translate(-101.66 53.09) rotate(-10.06)"/>
    <ellipse class="cls-45" cx="250.76" cy="604" rx="102.91" ry="137.28" transform="translate(-101.66 53.09) rotate(-10.06)"/>
    <ellipse class="cls-31" cx="250.76" cy="604" rx="100.2" ry="133.67" transform="translate(-101.66 53.09) rotate(-10.06)"/>
    <ellipse class="cls-24" cx="250.76" cy="604" rx="97.49" ry="130.06" transform="translate(-101.66 53.09) rotate(-10.06)"/>
    <ellipse class="cls-24" cx="250.76" cy="604" rx="94.78" ry="126.45" transform="translate(-101.66 53.09) rotate(-10.06)"/>
    <ellipse class="cls-51" cx="250.76" cy="604" rx="92.08" ry="122.83" transform="translate(-101.66 53.09) rotate(-10.06)"/>
    <ellipse class="cls-51" cx="250.76" cy="604" rx="89.37" ry="119.22" transform="translate(-101.66 53.09) rotate(-10.06)"/>
    <ellipse class="cls-54" cx="250.76" cy="604" rx="86.66" ry="115.61" transform="translate(-101.66 53.09) rotate(-10.06)"/>
    <ellipse class="cls-54" cx="250.76" cy="604" rx="83.95" ry="111.99" transform="translate(-101.66 53.09) rotate(-10.06)"/>
    <ellipse class="cls-50" cx="250.76" cy="604" rx="81.24" ry="108.38" transform="translate(-101.66 53.09) rotate(-10.06)"/>
    <ellipse class="cls-50" cx="250.76" cy="604" rx="78.53" ry="104.77" transform="translate(-101.66 53.09) rotate(-10.06)"/>
    <ellipse class="cls-50" cx="250.76" cy="604" rx="75.83" ry="101.16" transform="translate(-101.66 53.09) rotate(-10.06)"/>
    <ellipse class="cls-50" cx="250.76" cy="604" rx="73.12" ry="97.54" transform="translate(-101.66 53.09) rotate(-10.06)"/>
    <ellipse class="cls-34" cx="250.76" cy="604" rx="70.41" ry="93.93" transform="translate(-101.66 53.09) rotate(-10.06)"/>
    <ellipse class="cls-48" cx="250.76" cy="604" rx="67.7" ry="90.32" transform="translate(-101.66 53.09) rotate(-10.06)"/>
    <ellipse class="cls-48" cx="250.76" cy="604" rx="64.99" ry="86.71" transform="translate(-101.66 53.09) rotate(-10.06)"/>
    <ellipse class="cls-48" cx="250.76" cy="604" rx="62.29" ry="83.09" transform="translate(-101.66 53.09) rotate(-10.06)"/>
    <ellipse class="cls-48" cx="250.76" cy="604" rx="59.58" ry="79.48" transform="translate(-101.66 53.09) rotate(-10.06)"/>
    <ellipse class="cls-48" cx="250.76" cy="604" rx="56.87" ry="75.87" transform="translate(-101.66 53.09) rotate(-10.06)"/>
    <ellipse class="cls-30" cx="250.76" cy="604" rx="54.16" ry="72.25" transform="translate(-101.66 53.09) rotate(-10.06)"/>
    <ellipse class="cls-30" cx="250.76" cy="604" rx="51.45" ry="68.64" transform="translate(-101.66 53.09) rotate(-10.06)"/>
    <ellipse class="cls-30" cx="250.76" cy="604" rx="48.75" ry="65.03" transform="translate(-101.65 53.09) rotate(-10.06)"/>
    <ellipse class="cls-30" cx="250.76" cy="604" rx="46.04" ry="61.42" transform="translate(-101.66 53.09) rotate(-10.06)"/>
    <ellipse class="cls-30" cx="250.76" cy="604" rx="43.33" ry="57.8" transform="translate(-101.65 53.09) rotate(-10.06)"/>
    <ellipse class="cls-30" cx="250.76" cy="604" rx="40.62" ry="54.19" transform="translate(-101.66 53.09) rotate(-10.06)"/>
    <ellipse class="cls-30" cx="250.76" cy="604" rx="37.91" ry="50.58" transform="translate(-101.65 53.09) rotate(-10.06)"/>
    <ellipse class="cls-30" cx="250.76" cy="604" rx="35.21" ry="46.97" transform="translate(-101.66 53.09) rotate(-10.06)"/>
    <ellipse class="cls-30" cx="250.76" cy="604" rx="32.5" ry="43.35" transform="translate(-101.66 53.09) rotate(-10.06)"/>
    <ellipse class="cls-30" cx="250.76" cy="604" rx="29.79" ry="39.74" transform="translate(-101.66 53.09) rotate(-10.06)"/>
    <ellipse class="cls-30" cx="250.76" cy="604" rx="27.08" ry="36.13" transform="translate(-101.66 53.09) rotate(-10.06)"/>
    <ellipse class="cls-30" cx="250.76" cy="604" rx="24.37" ry="32.51" transform="translate(-101.65 53.09) rotate(-10.06)"/>
    <ellipse class="cls-30" cx="250.76" cy="604" rx="21.66" ry="28.9" transform="translate(-101.66 53.09) rotate(-10.06)"/>
    <ellipse class="cls-30" cx="250.76" cy="604" rx="18.96" ry="25.29" transform="translate(-101.66 53.09) rotate(-10.06)"/>
    <ellipse class="cls-30" cx="250.76" cy="604" rx="16.25" ry="21.68" transform="translate(-101.66 53.09) rotate(-10.06)"/>
    <path class="cls-30" d="M247.6,586.22c7.36-1.31,14.75,5.6,16.49,15.42,1.74,9.82-2.81,18.84-10.18,20.15-7.36,1.31-14.75-5.6-16.49-15.42-1.74-9.82,2.81-18.84,10.18-20.15Z"/>
    <path class="cls-30" d="M248.23,589.77c5.89-1.05,11.8,4.48,13.19,12.34s-2.25,15.08-8.14,16.12c-5.89,1.05-11.8-4.48-13.19-12.34s2.25-15.08,8.14-16.12Z"/>
    <ellipse class="cls-30" cx="250.76" cy="604" rx="8.12" ry="10.84" transform="translate(-101.66 53.09) rotate(-10.06)"/>
    <path class="cls-30" d="M249.49,596.89c2.95-.52,5.9,2.24,6.6,6.17.7,3.93-1.13,7.54-4.07,8.06-2.95.52-5.9-2.24-6.6-6.17s1.13-7.54,4.07-8.06Z"/>
    <path class="cls-30" d="M250.12,600.45c1.47-.26,2.95,1.12,3.3,3.08.35,1.96-.56,3.77-2.04,4.03-1.47.26-2.95-1.12-3.3-3.08-.35-1.96.56-3.77,2.04-4.03Z"/>
  </g>
  <path class="cls-14" d="M214.74,724.54s34.34,28.21,47.22,37.41c12.88,9.2,43.24,18.71,70.84,6.75,27.6-11.96,37.72-27.29,42.93-36.18,5.21-8.89-14.72-12.27-33.11-31.28-18.4-19.01-38.02-49.68-58.88-50.9-20.85-1.23-35.38,5.53-44.46.61-9.08-4.91-19.63-15.03-30.05-11.96-10.43,3.07-12.57,64.7,5.52,85.56Z"/>
  <path class="cls-2" d="M292.36,239.9c-3.83-1.28,4.09-11.5-1.02-34.75-5.11-23.25-11.76-38.33-33.48-57.75-21.72-19.42-30.67-40.63-26.07-67.21,4.6-26.58,29.9-42.93,53.15-43.18,23.25-.26,44.21,33.99,52.39,37.82,8.18,3.83,21.46-12.52,38.33-6.9,16.86,5.62,40.63,39.1,27.09,86.12-13.54,47.02-72.57,94.55-110.39,85.86Z"/>
  <path class="cls-15" d="M292.36,239.9c-3.83-1.28,4.09-11.5-1.02-34.75-4.67-21.24-10.62-35.65-28.15-52.78-.08-6.54,1.6-15.46,10.01-21.07,14.57-9.71,43.44,8.18,55.71,16.87,12.27,8.69,23.77-1.28,35.52-8.18,11.11-6.52,34.55-4.13,34.06,25.72-18.91,42.84-71.44,82.17-106.12,74.2h0ZM243.81,244.24c3.32,2.3,21.21-1.02,27.6-5.37,6.39-4.35,8.69-9.71,8.43-19.93-.26-10.22-12.52-13.54-22.49-7.92-9.97,5.62-17.89,27.34-13.54,33.22h0ZM222.09,258.81c-6.13,1.79-9.71-5.11-4.6-16.35,5.11-11.24,12.52-6.64,13.54-1.53,1.02,5.11-3.32,16.61-8.94,17.89Z"/>
  <path class="cls-15" d="M254.8,93.6c-4.09,1.4-11.12-5.62-9.84-13.03,1.28-7.41,13.16-24.91,21.34-28.88,8.18-3.96,26.83-2.94,35.26,4.6,8.43,7.54,7.28,18.02,1.02,23.89-6.26,5.88-10.1,3.83-13.93,1.15-3.83-2.68-13.67-4.86-19.17-2.04-5.49,2.81-11.63,14.06-14.69,14.31Z"/>
  <path class="cls-21" d="M293.87,756.12s-12.57-14.41-13.49-32.51c-.92-18.09-.61-30.05-.61-30.05l-10.43.61s-4.29,49.98,24.53,61.94Z"/>
  <path class="cls-3" d="M222.78,660.37s3.44,26.44,2.4,49.14c-1.04,22.7-8.28,28.21-8.28,28.21l-26.07-2.45s3.84-18.46-3.99-41.7c-7.83-23.24,11.65-40.78,35.93-33.19Z"/>
  <path class="cls-5" d="M186.85,693.56c-7.97-29.44-13.8-52.44-7.97-67.77,5.83-15.33,20.85-22.38,32.5-16.25,11.65,6.13,32.2,26.68,41.4,39.86,9.2,13.19-3.37,24.53-3.37,24.53,0,0-12.04-20.01-22.43-19.97-10.39.04-5.17,40.21-15.9,48.49-10.73,8.28-20.89,3.91-24.22-8.89Z"/>
  <path class="cls-13" d="M176.81,647.14c-.71-8.23-.2-15.37,2.06-21.34,5.83-15.33,20.85-22.38,32.5-16.25l.04.02c5.97,14.08-.78,34.68-15.45,41.41-8.29,3.8-14.65.75-19.16-3.84Z"/>
  <path class="cls-17" d="M211.23,732.81s-12.1-6.79-15.79-6.9c-3.7-.11-2.61,1.07-6.44.61-3.83-.46-3.07,2.45-2.76,4.6.31,2.15-5.83-2.14-7.21,1.23-1.38,3.37,8.13,13.49,14.11,17.33,5.98,3.83,17.02,8.59,23.15,5.52,6.13-3.07,7.51-15.33-5.06-22.39Z"/>
  <path class="cls-7" d="M160.8,539.01c6.22,14.25,28.09,44.44,39.34,57.48,11.25,13.05,28.82,11.96,39.25,7.97,10.43-3.99,33.42-10.12,40.17-22.69,6.75-12.57.92-29.75.92-29.75l-18.4,1.84s-43.24,48.14-101.28-14.86Z"/>
  <path class="cls-11" d="M274.87,557.41s-14.41,32.81-30.05,35.26c-15.64,2.45-37.1-3.07-51.82-15.64-14.72-12.57-29.13-32.81-33.73-40.48-4.6-7.67-7.2-20.39-6.75-26.37.45-5.88,6.39,9.44,6.59,9.95-.18-.6-5.93-19.79-3.21-21.76,2.71-1.96,7.36,15.36,7.51,15.93-.14-.62-4.56-20.54-2.3-21.45,2.3-.92,6.29,19.01,6.29,19.01,0,0-1.99-18.24.61-18.09,2.61.15,4.75,23,6.59,24.68,1.84,1.69,1.38-14.57,4.14-14.57s2.91,14.87,3.22,20.24c.31,5.37,2.76,10.27,7.36,15.79,4.6,5.52,24.73,25.06,35.44,23.72,10.71-1.34,13.8-6.58,19.76-14.52,5.96-7.94,9.2-16.56,9.2-16.56l92.45-23.31s15.64-1.84,23.61,1.84c7.97,3.68,21.73,17.3,24.55,46.75,2.82,29.46,3.83,67.54-9.22,84.49-13.05,16.95-21.91,65.92-26.68,80.04-4.77,14.12-37.72-72.37-51.82-76.05-14.11-3.68-29.28-35.72-29.28-35.72,0,0-2.7-31.48-2.46-53.2Z"/>
  <path class="cls-15" d="M223.1,795.09c-15.84-7.15-62.86-2.04-87.9-20.44-25.04-18.4-64.4-90.97-66.95-177.85-2.56-86.88,46.65-220.43,107.84-280.58,61.19-60.15,128.28-61.84,167.63-47.53,39.35,14.31,117.03,83.82,141.57,208.52,24.53,124.7-15.84,240.21-46.51,280.58-30.66,40.38-76.15,68.48-116.01,65.93-39.86-2.56-83.82-24.53-99.66-28.62h0ZM118.33,620.56c8.43,3.57,16.36-.77,31.18,8.43,14.82,9.2,41.91,38.59,59.28,25.3,17.38-13.29,9.2-36.29,0-71.55-9.2-35.26,20.44-55.71,45.49-39.35,25.04,16.35,24.53,71.55,24.53,71.55,0,0-12.78,63.88-12.27,10.22.51-53.66-18.91-74.62-33.22-70.53-14.31,4.09-11.24,30.15-4.09,52.64,7.15,22.49,4.6,56.73-25.55,65.42-30.15,8.69-43.44-27.09-67.97-17.38-24.53,9.71-10.22,72.06,14.82,95.57,25.04,23.51,52.13,17.38,79.22,19.42,27.09,2.04,60.82,25.04,100.68,20.95,39.86-4.09,91.79-25.99,117.55-112.44,25.76-86.45,20.7-172.49-5.11-254-25.81-81.52-78.45-122.92-123.94-135.18-45.49-12.27-96.59,14.82-118.82,38.08-22.23,23.25-53.41,63.12-72.83,116.53-19.42,53.41-30.66,102.47-28.88,128.02,1.79,25.55,9.97,43.7,19.93,48.3Z"/>
  <path class="cls-12" d="M294.04,660.43s-6.13,29.44-17.79,51.21c-11.65,21.77-20.85,40.17-28.52,43.24-7.67,3.07-11.04,0-15.18-3.68-4.14-3.68-5.7-1.6-11.74-5.25-6.04-3.64-7.42-7.32-11.1-10.54-3.68-3.22-5.06-7.05-2.91-9.97,2.15-2.91,4.22.08,6.29.38,2.07.31,2.84-2.53,4.37-1.92,1.53.61,4.06,2.3,6.67,1.84,2.61-.46,6.06.54,6.82-1.3.77-1.84,3.76-13.73,4.6-17.56.84-3.83,29.59-67.77,58.49-46.46Z"/>
  <path class="cls-18" d="M239.38,533.02s39.25,13.18,64.7,10.12c25.45-3.07,51.52-26.68,62.86-45.69,11.34-19.01,17.17-54.58,14.41-67.77-2.76-13.19-151.18,67.46-141.98,103.34Z"/>
  <path class="cls-20" d="M239.38,533.02c-9.81-3.37-25.45-19.62-27.9-29.13-2.45-9.51-2.45-26.06-8.28-46.3-5.83-20.24-10.43-48.45-6.75-60.1,3.68-11.65,19.62-57.34,67.16-68.99,47.53-11.65,82.34,7.36,96.44,29.13,14.11,21.77,20.85,44.16,21.31,72.06.46,27.91-20.08,72.68-45.23,86.17-25.14,13.49-64.82,25.24-96.75,17.17Z"/>
  <path class="cls-4" d="M209.29,490.2c-1.11-8.92-2.48-20.06-6.09-32.61-.99-3.45-1.95-7.13-2.83-10.91,11.22-.77,29.52-2.56,43.75-6.51,22.08-6.13,47.53-29.44,60.1-19.63,12.57,9.81,6.72,47.57-13.19,57.34s-41.4-3.07-52.44-.31c-8.64,2.16-17.28,10.14-29.3,12.63Z"/>
  <path class="cls-9" d="M196.77,427.95c-1.85-12.46-2.35-24.01-.31-30.47,3.68-11.65,19.62-57.34,67.16-68.99,47.53-11.65,82.34,7.36,96.44,29.13,12.66,19.53,19.39,39.56,20.97,63.63-.18-1.53-7.48-58.57-73.43-74.3-63.66-15.18-113.41,46.93-110.82,81Z"/>
  <path class="cls-21" d="M246.29,517.38c.46-3.53,5.06,0,7.36-.77,2.3-.77,5.29-3.3,6.13-1.15.84,2.15-2.76,4.6-5.21,4.91-2.45.31-7.97-.77-8.28-2.99h0ZM344.34,429.68s5.83-16.71,14.72-14.72c8.89,1.99,4.45,43.7,4.45,43.7,0,0,12.42-40.48.31-48.14-12.11-7.67-19.93,16.71-19.47,19.17h0ZM210.56,466.79s2.45,4.75,9.51,3.22c7.05-1.53,9.51-3.68,9.51-3.68,0,0-2.45,7.51-10.58,7.82-8.13.31-8.43-7.36-8.43-7.36h0ZM260.39,459.43s6.9,3.68,15.03,1.38c8.13-2.3,11.04-5.67,11.04-5.67,0,0-2.3,7.66-11.19,9.81s-13.65-2.15-14.87-5.52h0ZM232.64,492.54s4.14,5.52,8.59,5.37c4.45-.15,7.36-4.29,7.36-4.29,0,0-.61,6.75-6.9,7.51-6.29.77-9.35-5.21-9.05-8.59Z"/>
  <path class="cls-6" d="M283.64,556.57s12.1,33.17,27.73,56.48c15.64,23.31,30.05,23.92,42.93,5.83,12.88-18.09,35.26-52.43,40.02-61.02,4.75-8.59,5.22-21.65,4.36-26.44-.86-4.79-13.41,12.03-13.41,12.03,0,0-29.13,36.49-43.54,46.61-14.41,10.12-30.97-6.13-30.97-6.13,0,0-10.73-4.91-27.12-27.35Z"/>
  <path class="cls-8" d="M362.59,507.57c-2.41,1.43-6.13,14.26-7.21,22.69-1.07,8.43-11.04,21.31-13.65,29.59-2.61,8.28-8.89,23-8.89,23,0,0-13.49-16.25-18.25-21.77-4.75-5.52-8.25-8.92-8.89-13.49-.64-4.57-.92-14.41-4.14-21.47-3.22-7.05-3.53-13.03-6.44-14.11-2.91-1.07-.31,8.89-.31,8.89,0,0-8.13-18.09-12.42-18.86-4.29-.77,5.21,14.72,5.21,14.72,0,0-10.12-14.41-12.88-13.95-2.76.46,8.74,17.02,8.74,17.02,0,0-9.81-13.34-13.34-12.88-3.53.46,8.74,15.18,8.74,15.18,0,0-11.35-11.5-12.11-7.82-.77,3.68,9.4,9.23,11.65,18.24,2.26,9.02,2.91,25.45,12.42,38.64,9.51,13.19,36.03,38.64,46.61,36.34,10.58-2.3,35.57-27.14,42.78-35.57,7.21-8.43,18.4-27.75,18.7-35.26.31-7.51-2.61-20.54-10.58-26.22-7.97-5.67-20.85-6.29-25.76-2.91Z"/>
  <path class="cls-1" d="M362.59,507.57c-2.41,1.43-6.13,14.26-7.21,22.69-1.07,8.43-11.04,21.31-13.65,29.59-2.61,8.28-8.89,23-8.89,23,0,0-13.49-16.25-18.25-21.77-4.75-5.52-8.25-8.92-8.89-13.49-.64-4.57-.92-14.41-4.14-21.47-2.08-4.55-2.94-8.66-4.08-11.29.04.17,4.58,17.22,3.67,26.99-.92,9.81,4.29,17.32,8.59,23.46,4.29,6.13,24.22,29.74,24.22,29.74,0,0,26.99-19.78,38.18-41.09,9.48-18.06,16.88-36.67,8.27-47.16-6.89-1.98-14.36-1.6-17.83.79Z"/>
  <path class="cls-16" d="M394.32,557.86s-2.3,35.57-8.12,49.68c-5.83,14.11-17.88,38.15-21.77,45.08-3.89,6.93-9.15,16.39-11.78,22.14,2.69,19.18,3.34,42.11,3.34,42.11,0,0-3.68-22.39-6.29-32.66,0,0-20.64-64.04-46.3-75.44-25.66-11.39-42.32,3.07-49.68,25.14-7.36,22.08-18.18,72.99-18.18,72.99,0,0,20.02-13.8,27.07-21.16,7.05-7.36,9.53-17.31,20.24-20.24,10.71-2.93,17.78,1.53,23.3,11.35,5.52,9.81,21.16,33.73,30.36,45.38,9.2,11.65,28.14,24.58,39.21,10.3,11.08-14.28,26.72-61.82,27.94-90.03,1.23-28.21-5.21-67.46-9.35-84.63Z"/>
  <path class="cls-19" d="M343.68,667.85c-7.95-19.78-22.97-51.41-40.28-59.09-25.66-11.39-42.32,3.07-49.68,25.14-5.89,17.66-13.99,53.76-16.99,67.51,4.19-18.05,19.63-74.6,49.13-75.57,33.63-1.11,52.66,29.77,57.81,42.01Z"/>
  <path class="cls-2" d="M135.2,788.45c-30.66-18.91-73.08-98.13-76.66-183.99-3.58-85.86,33.73-183.48,71.04-245.32,37.31-61.84,116.01-114.48,182.45-107.84,66.44,6.64,122.66,56.22,164.06,156.39,41.4,100.17,28.62,218.23-5.62,308.18-34.24,89.95-113.97,117.55-142.08,120.61-28.11,3.07-68.49-21.98-100.68-31.18-32.2-9.2-55.71,0-92.5-16.87h0ZM222.59,787.94c15.84,4.09,53.15,23.51,93.02,26.07,39.86,2.56,83.31-17.38,113.97-57.75,30.66-40.37,72.57-146.68,48.04-271.38-24.53-124.7-96.08-193.7-135.43-208.01-39.35-14.31-97.75-14.66-158.95,45.49-61.19,60.15-109.37,182.46-106.81,269.34,2.56,86.88,37.31,157.92,62.35,176.32,25.04,18.4,67.97,12.78,83.82,19.93Z"/>
  <path class="cls-2" d="M92.94,551.01s-3.68,49.68,8.89,68.38c12.57,18.7,27.29,3.37,40.78,11.65,13.49,8.28,32.5,27.6,48.14,30.36,15.64,2.76,25.14-7.97,25.14-7.97,0,0-3.47,14.56-19.32,15.49-15.85.92-44-24.07-57.5-27.29-13.49-3.22-27.14,9.35-28.67,19.78-1.53,10.43.32,35.7,7.97,55.81,7.65,20.1,19.63,37.72,19.63,37.72,0,0-69.98-86.85-45.08-203.92Z"/>
</svg>