<?xml version="1.0" encoding="UTF-8"?>
<svg id="Layer_1" data-name="Layer 1" xmlns="http://www.w3.org/2000/svg" xmlns:xlink="http://www.w3.org/1999/xlink" viewBox="0 0 562 1063">
  <defs>
    <style>
      .cls-1 {
        fill: url(#GradientFill_5-3);
      }

      .cls-1, .cls-2, .cls-3, .cls-4, .cls-5, .cls-6, .cls-7, .cls-8, .cls-9, .cls-10, .cls-11, .cls-12, .cls-13, .cls-14, .cls-15, .cls-16, .cls-17, .cls-18, .cls-19, .cls-20, .cls-21, .cls-22, .cls-23, .cls-24 {
        fill-rule: evenodd;
      }

      .cls-2 {
        fill: #f38155;
      }

      .cls-3 {
        fill: url(#GradientFill_4-4);
      }

      .cls-25 {
        fill: #490420;
      }

      .cls-26 {
        fill: #62062b;
      }

      .cls-27 {
        fill: #3b031a;
      }

      .cls-4 {
        fill: url(#GradientFill_4);
      }

      .cls-28 {
        fill: #3f041c;
      }

      .cls-5 {
        fill: url(#GradientFill_2-2);
      }

      .cls-6 {
        fill: url(#GradientFill_4-8);
      }

      .cls-29 {
        fill: #40041c;
      }

      .cls-30 {
        fill: #750733;
      }

      .cls-31 {
        fill: #45041e;
      }

      .cls-32 {
        fill: #5c0528;
      }

      .cls-7 {
        fill: url(#GradientFill_4-5);
      }

      .cls-33 {
        fill: #360318;
      }

      .cls-34 {
        fill: #3c031b;
      }

      .cls-8 {
        fill: url(#GradientFill_10-3);
      }

      .cls-35 {
        fill: #480420;
      }

      .cls-36 {
        fill: #69062e;
      }

      .cls-37 {
        fill: #370319;
      }

      .cls-9 {
        fill: url(#GradientFill_5-2);
      }

      .cls-38 {
        fill: #5f0629;
      }

      .cls-10 {
        fill: #43262a;
      }

      .cls-39 {
        fill: #4d0422;
      }

      .cls-40 {
        fill: #510524;
      }

      .cls-41 {
        fill: #3e031b;
      }

      .cls-42 {
        fill: #42041d;
      }

      .cls-43 {
        fill: #590527;
      }

      .cls-44 {
        fill: #540525;
      }

      .cls-45 {
        fill: #560526;
      }

      .cls-46 {
        clip-rule: evenodd;
        fill: none;
      }

      .cls-11 {
        fill: url(#GradientFill_10);
      }

      .cls-12 {
        fill: url(#GradientFill_4-9);
      }

      .cls-47 {
        fill: #41041d;
      }

      .cls-48 {
        fill: #3d031b;
      }

      .cls-49 {
        fill: #43041e;
      }

      .cls-13 {
        fill: url(#GradientFill_4-11);
      }

      .cls-14 {
        fill: url(#GradientFill_5);
      }

      .cls-15 {
        fill: url(#GradientFill_2);
      }

      .cls-16 {
        fill: #e36b00;
      }

      .cls-50 {
        fill: #710731;
      }

      .cls-51 {
        fill: #370318;
      }

      .cls-52 {
        fill: #4f0523;
      }

      .cls-17 {
        fill: url(#GradientFill_4-7);
      }

      .cls-53 {
        fill: #380319;
      }

      .cls-54 {
        fill: #3a031a;
      }

      .cls-55 {
        fill: #6d062f;
      }

      .cls-18 {
        fill: url(#GradientFill_4-6);
      }

      .cls-19 {
        fill: url(#GradientFill_10-4);
      }

      .cls-20 {
        fill: url(#GradientFill_4-2);
      }

      .cls-56 {
        fill: #46041f;
      }

      .cls-21 {
        fill: url(#GradientFill_4-10);
      }

      .cls-57 {
        fill: #390319;
      }

      .cls-22 {
        fill: url(#GradientFill_10-2);
      }

      .cls-58 {
        clip-path: url(#clippath);
      }

      .cls-23 {
        fill: url(#GradientFill_4-3);
      }

      .cls-59 {
        fill: #65062c;
      }

      .cls-60 {
        fill: #4b0421;
      }

      .cls-24 {
        fill: #d23c41;
      }
    </style>
    <clipPath id="clippath">
      <path class="cls-46" d="M100.46,562.56s20.67-51.03,78.16-75.57c57.49-24.55,196.36,6.46,240.93,133.06,44.57,126.6,12.27,259.66-49.09,290.02-61.36,30.36-181.12-11.92-201.53-16.15-20.41-4.23-59.55-31.03-80.1-113.04-20.55-82.01-13.84-161.1,11.63-218.32Z"/>
    </clipPath>
    <linearGradient id="GradientFill_4" data-name="GradientFill 4" x1="300.75" y1="578.51" x2="319.78" y2="434.58" gradientUnits="userSpaceOnUse">
      <stop offset="0" stop-color="#f9a976"/>
      <stop offset="1" stop-color="#f58759"/>
    </linearGradient>
    <linearGradient id="GradientFill_4-2" data-name="GradientFill 4" x1="319.14" y1="578.44" x2="337.99" y2="435.89" xlink:href="#GradientFill_4"/>
    <linearGradient id="GradientFill_5" data-name="GradientFill 5" x1="359.44" y1="447.08" x2="331.06" y2="480.18" gradientUnits="userSpaceOnUse">
      <stop offset="0" stop-color="#f9a976"/>
      <stop offset="1" stop-color="#fcc9a4"/>
    </linearGradient>
    <linearGradient id="GradientFill_2" data-name="GradientFill 2" x1="329.71" y1="660.26" x2="281.17" y2="501.04" gradientUnits="userSpaceOnUse">
      <stop offset="0" stop-color="#d43d42"/>
      <stop offset="1" stop-color="#f47856"/>
    </linearGradient>
    <linearGradient id="GradientFill_4-3" data-name="GradientFill 4" x1="259.78" y1="628.8" x2="266.45" y2="572.96" xlink:href="#GradientFill_4"/>
    <linearGradient id="GradientFill_2-2" data-name="GradientFill 2" x1="245.66" y1="564.27" x2="213.44" y2="504.16" xlink:href="#GradientFill_2"/>
    <linearGradient id="GradientFill_4-4" data-name="GradientFill 4" x1="172.08" y1="588.38" x2="227.13" y2="464.72" xlink:href="#GradientFill_4"/>
    <linearGradient id="GradientFill_10" data-name="GradientFill 10" x1="350.82" y1="733.32" x2="358.25" y2="1055.53" gradientUnits="userSpaceOnUse">
      <stop offset="0" stop-color="#f47e5c"/>
      <stop offset="1" stop-color="#f47856"/>
    </linearGradient>
    <linearGradient id="GradientFill_4-5" data-name="GradientFill 4" x1="324.84" y1="856.14" x2="356.12" y2="667.41" xlink:href="#GradientFill_4"/>
    <linearGradient id="GradientFill_4-6" data-name="GradientFill 4" x1="332.94" y1="775.12" x2="327.19" y2="721.78" xlink:href="#GradientFill_4"/>
    <linearGradient id="GradientFill_10-2" data-name="GradientFill 10" x1="335.92" y1="573.62" x2="347.47" y2="805.24" xlink:href="#GradientFill_10"/>
    <linearGradient id="GradientFill_4-7" data-name="GradientFill 4" x1="370.39" y1="645.28" x2="385.09" y2="556.17" xlink:href="#GradientFill_4"/>
    <linearGradient id="GradientFill_5-2" data-name="GradientFill 5" x1="393.94" y1="569.54" x2="344.04" y2="621.88" xlink:href="#GradientFill_5"/>
    <linearGradient id="GradientFill_4-8" data-name="GradientFill 4" x1="328.86" y1="478.99" x2="305.96" y2="562.33" xlink:href="#GradientFill_4"/>
    <linearGradient id="GradientFill_4-9" data-name="GradientFill 4" x1="252.59" y1="581.35" x2="291.75" y2="471.62" xlink:href="#GradientFill_4"/>
    <linearGradient id="GradientFill_10-3" data-name="GradientFill 10" x1="187.75" y1="439.98" x2="188.74" y2="501.24" xlink:href="#GradientFill_10"/>
    <linearGradient id="GradientFill_4-10" data-name="GradientFill 4" x1="202.41" y1="461.07" x2="192.87" y2="437.48" xlink:href="#GradientFill_4"/>
    <linearGradient id="GradientFill_10-4" data-name="GradientFill 10" x1="235.17" y1="444.06" x2="237.33" y2="522.5" xlink:href="#GradientFill_10"/>
    <linearGradient id="GradientFill_4-11" data-name="GradientFill 4" x1="257.94" y1="478.08" x2="239.41" y2="435.14" xlink:href="#GradientFill_4"/>
    <linearGradient id="GradientFill_5-3" data-name="GradientFill 5" x1="256.07" y1="815.19" x2="531.84" y2="670.04" xlink:href="#GradientFill_5"/>
  </defs>
  <path class="cls-10" d="M143.86,898.4c-23.4-16.16-59.05-61.84-77.44-144.29-18.38-82.45,11.7-208.35,40.67-264.62,28.97-56.27,100.82-136,174.93-145.96,74.1-9.96,148.74,56.27,187.74,153.76,39,97.49,34.54,176.6,30.64,224.51-3.9,47.91-29.53,144.29-75.77,183.28-46.24,39-98.6,40.67-142.06,23.96-43.45-16.71-50.14-23.95-73.81-22-23.68,1.95-42.9,5.01-64.9-8.64Z"/>
  <g class="cls-58">
    <rect class="cls-30" x="68.28" y="462.44" width="395.83" height="477.99"/>
    <path class="cls-30" d="M226.1,478.24c107.41-7.5,201.8,91.34,210.85,220.78,9.04,129.43-70.7,240.45-178.1,247.95v-5.54h-39.53v3.51c-12.88-2.24-25.41-5.99-37.46-11.11-24.1-10.23-46.25-25.93-65.32-45.91-19.08-19.98-35.08-44.23-46.88-71.58-2.95-6.84-5.64-13.87-8.04-21.08h5.68v-182.43h-3.62c2.53-6.85,5.33-13.53,8.39-20,6.12-12.96,13.27-25.13,21.32-36.34,32.23-44.87,79.02-74.5,132.72-78.25Z"/>
    <path class="cls-50" d="M226.36,481.96c105.7-7.38,198.6,89.89,207.5,217.27,8.9,127.38-69.57,236.63-175.27,244.01-52.85,3.69-102.5-18.78-140.05-58.1-18.78-19.66-34.52-43.53-46.14-70.45-2.9-6.73-5.55-13.65-7.92-20.74h2.81v-179.54h-.78c2.49-6.74,5.25-13.31,8.26-19.69,6.02-12.75,13.06-24.73,20.99-35.77,31.72-44.16,77.76-73.32,130.61-77.01Z"/>
    <path class="cls-55" d="M226.62,485.68c104-7.26,195.4,88.44,204.15,213.77,8.75,125.33-68.45,232.81-172.45,240.08-52,3.63-100.85-18.48-137.79-57.16-18.47-19.34-33.97-42.83-45.39-69.31-5.71-13.24-10.41-27.23-13.95-41.83h6.1v-134.83h-4.49c7.63-27.81,19.71-53.23,35.32-74.95,31.21-43.45,76.51-72.13,128.51-75.77Z"/>
    <path class="cls-36" d="M226.88,489.4c102.29-7.15,192.19,86.99,200.81,210.26,8.61,123.27-67.33,229-169.62,236.14-51.15,3.57-99.19-18.18-135.53-56.23-18.17-19.03-33.41-42.13-44.65-68.17-5.62-13.02-10.24-26.79-13.72-41.14h3.12v-132.62h-1.54c7.51-27.36,19.39-52.35,34.74-73.72,30.7-42.73,75.25-70.95,126.4-74.52Z"/>
    <path class="cls-59" d="M227.13,493.12c100.59-7.03,188.99,85.54,197.46,206.76,8.47,121.22-66.21,225.18-166.79,232.21-100.59,7.03-188.99-85.54-197.46-206.76h6.94v-44.49h-6.33c1.43-14.46,4.04-28.49,7.73-41.94,7.38-26.9,19.07-51.48,34.16-72.49,30.18-42.02,74-69.77,124.29-73.28Z"/>
    <path class="cls-26" d="M227.39,496.84c98.88-6.91,185.79,84.09,194.11,203.25,8.32,119.16-65.09,221.36-163.97,228.27-98.88,6.91-185.79-84.09-194.11-203.25-2.08-29.79.95-58.52,8.2-84.97,7.26-26.45,18.74-50.61,33.58-71.26,29.67-41.31,72.74-68.59,122.19-72.04Z"/>
    <path class="cls-38" d="M227.65,500.56c97.18-6.79,182.58,82.64,190.77,199.75,8.18,117.11-63.96,217.55-161.14,224.33-97.18,6.79-182.58-82.64-190.77-199.75-4.09-58.55,11.9-112.94,41.06-153.54,29.16-40.6,71.49-67.4,120.08-70.8Z"/>
    <ellipse class="cls-32" cx="242.47" cy="712.61" rx="173.29" ry="208.83" transform="translate(-49.07 18.63) rotate(-4)"/>
    <ellipse class="cls-43" cx="242.47" cy="712.61" rx="170.19" ry="205.1" transform="translate(-49.07 18.63) rotate(-4)"/>
    <ellipse class="cls-45" cx="242.47" cy="712.61" rx="167.1" ry="201.37" transform="translate(-49.07 18.63) rotate(-4)"/>
    <ellipse class="cls-44" cx="242.47" cy="712.61" rx="164" ry="197.64" transform="translate(-49.07 18.63) rotate(-4)"/>
    <ellipse class="cls-40" cx="242.47" cy="712.61" rx="160.91" ry="193.91" transform="translate(-49.07 18.63) rotate(-4)"/>
    <ellipse class="cls-52" cx="242.47" cy="712.61" rx="157.82" ry="190.18" transform="translate(-49.07 18.63) rotate(-4)"/>
    <ellipse class="cls-39" cx="242.47" cy="712.61" rx="154.72" ry="186.46" transform="translate(-49.07 18.63) rotate(-4)"/>
    <ellipse class="cls-60" cx="242.47" cy="712.61" rx="151.63" ry="182.73" transform="translate(-49.07 18.63) rotate(-4)"/>
    <ellipse class="cls-25" cx="242.47" cy="712.61" rx="148.53" ry="179" transform="translate(-49.07 18.63) rotate(-4)"/>
    <ellipse class="cls-35" cx="242.47" cy="712.61" rx="145.44" ry="175.27" transform="translate(-49.07 18.63) rotate(-4)"/>
    <ellipse class="cls-56" cx="242.47" cy="712.61" rx="142.34" ry="171.54" transform="translate(-49.07 18.63) rotate(-4)"/>
    <ellipse class="cls-31" cx="242.47" cy="712.61" rx="139.25" ry="167.81" transform="translate(-49.07 18.63) rotate(-4)"/>
    <ellipse class="cls-49" cx="242.47" cy="712.61" rx="136.15" ry="164.08" transform="translate(-49.07 18.63) rotate(-4)"/>
    <ellipse class="cls-42" cx="242.47" cy="712.61" rx="133.06" ry="160.35" transform="translate(-49.07 18.63) rotate(-4)"/>
    <ellipse class="cls-47" cx="242.47" cy="712.61" rx="129.97" ry="156.62" transform="translate(-49.07 18.63) rotate(-4)"/>
    <ellipse class="cls-29" cx="242.47" cy="712.61" rx="126.87" ry="152.89" transform="translate(-49.07 18.63) rotate(-4)"/>
    <ellipse class="cls-28" cx="242.47" cy="712.61" rx="123.78" ry="149.16" transform="translate(-49.07 18.63) rotate(-4)"/>
    <ellipse class="cls-41" cx="242.47" cy="712.61" rx="120.68" ry="145.44" transform="translate(-49.07 18.63) rotate(-4)"/>
    <ellipse class="cls-48" cx="242.47" cy="712.61" rx="117.59" ry="141.71" transform="translate(-49.07 18.63) rotate(-4)"/>
    <ellipse class="cls-34" cx="242.47" cy="712.61" rx="114.49" ry="137.98" transform="translate(-49.07 18.63) rotate(-4)"/>
    <ellipse class="cls-27" cx="242.47" cy="712.61" rx="111.4" ry="134.25" transform="translate(-49.07 18.63) rotate(-4)"/>
    <ellipse class="cls-27" cx="242.47" cy="712.61" rx="108.3" ry="130.52" transform="translate(-49.07 18.63) rotate(-4)"/>
    <ellipse class="cls-54" cx="242.47" cy="712.61" rx="105.21" ry="126.79" transform="translate(-49.07 18.63) rotate(-4)"/>
    <ellipse class="cls-54" cx="242.47" cy="712.61" rx="102.12" ry="123.06" transform="translate(-49.07 18.63) rotate(-4)"/>
    <ellipse class="cls-57" cx="242.47" cy="712.61" rx="99.02" ry="119.33" transform="translate(-49.07 18.63) rotate(-4)"/>
    <ellipse class="cls-57" cx="242.47" cy="712.61" rx="95.93" ry="115.6" transform="translate(-49.07 18.63) rotate(-4)"/>
    <ellipse class="cls-53" cx="242.47" cy="712.61" rx="92.83" ry="111.87" transform="translate(-49.07 18.63) rotate(-4)"/>
    <ellipse class="cls-53" cx="242.47" cy="712.61" rx="89.74" ry="108.14" transform="translate(-49.07 18.63) rotate(-4)"/>
    <ellipse class="cls-53" cx="242.47" cy="712.61" rx="86.64" ry="104.42" transform="translate(-49.07 18.63) rotate(-4)"/>
    <ellipse class="cls-53" cx="242.47" cy="712.61" rx="83.55" ry="100.69" transform="translate(-49.07 18.63) rotate(-4)"/>
    <ellipse class="cls-37" cx="242.47" cy="712.61" rx="80.45" ry="96.96" transform="translate(-49.07 18.63) rotate(-4)"/>
    <ellipse class="cls-51" cx="242.47" cy="712.61" rx="77.36" ry="93.23" transform="translate(-49.07 18.63) rotate(-4)"/>
    <ellipse class="cls-51" cx="242.47" cy="712.61" rx="74.27" ry="89.5" transform="translate(-49.07 18.63) rotate(-4)"/>
    <ellipse class="cls-51" cx="242.47" cy="712.61" rx="71.17" ry="85.77" transform="translate(-49.07 18.63) rotate(-4)"/>
    <ellipse class="cls-51" cx="242.47" cy="712.61" rx="68.08" ry="82.04" transform="translate(-49.07 18.63) rotate(-4)"/>
    <ellipse class="cls-51" cx="242.47" cy="712.61" rx="64.98" ry="78.31" transform="translate(-49.07 18.63) rotate(-4)"/>
    <ellipse class="cls-33" cx="242.47" cy="712.61" rx="61.89" ry="74.58" transform="translate(-49.07 18.63) rotate(-4)"/>
    <ellipse class="cls-33" cx="242.47" cy="712.61" rx="58.79" ry="70.85" transform="translate(-49.07 18.63) rotate(-4)"/>
    <ellipse class="cls-33" cx="242.47" cy="712.61" rx="55.7" ry="67.12" transform="translate(-49.07 18.63) rotate(-4)"/>
    <ellipse class="cls-33" cx="242.47" cy="712.61" rx="52.61" ry="63.39" transform="translate(-49.07 18.63) rotate(-4)"/>
    <ellipse class="cls-33" cx="242.47" cy="712.61" rx="49.51" ry="59.67" transform="translate(-49.07 18.63) rotate(-4)"/>
    <ellipse class="cls-33" cx="242.47" cy="712.61" rx="46.42" ry="55.94" transform="translate(-49.07 18.63) rotate(-4)"/>
    <ellipse class="cls-33" cx="242.47" cy="712.61" rx="43.32" ry="52.21" transform="translate(-49.07 18.63) rotate(-4)"/>
    <ellipse class="cls-33" cx="242.47" cy="712.61" rx="40.23" ry="48.48" transform="translate(-49.07 18.63) rotate(-4)"/>
    <ellipse class="cls-33" cx="242.47" cy="712.61" rx="37.13" ry="44.75" transform="translate(-49.07 18.63) rotate(-4)"/>
    <ellipse class="cls-33" cx="242.47" cy="712.61" rx="34.04" ry="41.02" transform="translate(-49.07 18.63) rotate(-4)"/>
    <ellipse class="cls-33" cx="242.47" cy="712.61" rx="30.94" ry="37.29" transform="translate(-49.07 18.63) rotate(-4)"/>
    <ellipse class="cls-33" cx="242.47" cy="712.61" rx="27.85" ry="33.56" transform="translate(-49.07 18.63) rotate(-4)"/>
    <ellipse class="cls-33" cx="242.47" cy="712.61" rx="24.76" ry="29.83" transform="translate(-49.07 18.63) rotate(-4)"/>
    <ellipse class="cls-33" cx="242.47" cy="712.61" rx="21.66" ry="26.1" transform="translate(-49.07 18.63) rotate(-4)"/>
    <ellipse class="cls-33" cx="242.47" cy="712.61" rx="18.57" ry="22.37" transform="translate(-49.07 18.63) rotate(-4)"/>
    <ellipse class="cls-33" cx="242.47" cy="712.61" rx="15.47" ry="18.65" transform="translate(-49.08 18.63) rotate(-4)"/>
    <ellipse class="cls-33" cx="242.47" cy="712.61" rx="12.38" ry="14.92" transform="translate(-49.06 18.63) rotate(-4)"/>
    <path class="cls-33" d="M241.69,701.44c5.11-.36,9.61,4.35,10.04,10.51.43,6.16-3.37,11.45-8.48,11.81s-9.61-4.35-10.04-10.51c-.43-6.16,3.37-11.45,8.48-11.81Z"/>
    <path class="cls-33" d="M241.95,705.17c3.41-.24,6.41,2.9,6.69,7.01.29,4.11-2.24,7.63-5.65,7.87s-6.41-2.9-6.69-7.01c-.29-4.11,2.24-7.63,5.65-7.87Z"/>
    <path class="cls-33" d="M242.21,708.89c1.7-.12,3.2,1.45,3.35,3.5.14,2.05-1.12,3.82-2.83,3.94-1.7.12-3.2-1.45-3.35-3.5s1.12-3.82,2.83-3.94Z"/>
  </g>
  <path class="cls-4" d="M208.66,466.45s23.25-34.56,45.54-40.69c22.29-6.14,62.98-8.72,78.8-1.94,15.83,6.78,36.5,26.8,50.38,61.36,13.89,34.56,24.22,86.23,28.74,110.78,4.52,24.55-120.14-71.7-140.81-87.2-20.67-15.5-35.53,6.33-35.53,6.33,0,0-64.35,25.56-27.12-48.64Z"/>
  <path class="cls-20" d="M259.17,424.51c22.93-5.21,59.12-7,73.83-.7,15.83,6.78,36.5,26.8,50.38,61.36,7.83,19.48,14.53,44.41,19.69,66.84-.43-1.55-14.42-51.38-51.67-94.71-37.84-44.02-92.47-32-92.47-32,.07-.27.16-.53.23-.79Z"/>
  <path class="cls-14" d="M253.42,425.98c.26-.08.52-.16.78-.23,22.29-6.14,62.98-8.72,78.8-1.94,15.83,6.78,36.5,26.8,50.38,61.36,6.83,17,12.8,38.13,17.64,58.15-.09-.26-22.1-63.66-50.13-95.89-27.79-31.95-95.99-21.68-97.47-21.46Z"/>
  <path class="cls-15" d="M272.51,485.07s25.19-28.74,48.45-20.99c23.25,7.75,56.19,43.92,74.28,93.66,18.09,49.74,25.34,69.51,18.41,82.68-6.93,13.17-21.32,17.76-38.43,20.99-17.12,3.23-95.27,11.95-107.55,9.04-12.27-2.91-51.03-53.29-58.13-80.42-7.11-27.13,27.13-90.43,62.98-104.96Z"/>
  <path class="cls-24" d="M256.51,600.85s5.17,10.17,7.59,18.57c2.42,8.4,4.04,16.15,4.04,16.15,0,0-9.03-18.97-13.89-24.06-4.85-5.09-9.36-10.34-9.36-10.34l11.63-.32Z"/>
  <path class="cls-23" d="M227.12,562.9s15.99,1.13,30.84,11.79c14.86,10.66,22.77,23.09,28.26,30.04,5.49,6.94,10.01,3.55,15.18,1.29,5.17-2.26,3.07,2.58-.32,6.14-3.39,3.55-4.68,5.41-4.68,5.41,0,0,10.74-10.82,12.43-9.61,1.7,1.21-9.53,15.42-9.53,15.42,0,0,11.63-11.3,12.35-7.19.73,4.12-12.43,12.35-12.43,12.35,0,0,11.55-6.7,10.9-2.74-.65,3.96-9.93,8.88-17.36,9.53-7.43.65-15.75-8.88-17.44-13.32-1.7-4.44-7.35-11.79-18.49-13.89-11.14-2.1-38.6-9.53-40.69-27.45-2.1-17.92,7.34-17.77,10.98-17.76Z"/>
  <path class="cls-24" d="M362.68,607.87s5.17,1.62,12.11,6.62c6.95,5.01,9.85,11.95,9.85,11.95,0,0-2.42-11.79-8.24-17.6-5.81-5.81-12.11-7.91-12.11-7.91l-1.61,6.94Z"/>
  <path class="cls-5" d="M212.02,498.06s27.77-24.87,37.79-25.51c10.01-.65,9.69,50.38,9.69,50.38,0,0-21.64,46.83-43.28,63.95-21.64,17.12-36.82-52.64-4.2-88.81Z"/>
  <path class="cls-3" d="M216.21,586.88c-12.27,12.6-53.61,26.16-50.71-15.82,2.91-41.98,11.3-54.9,16.79-76.86,5.49-21.96,10.01-25.51,6.46-33.27-3.55-7.75,6.78-20.03,14.21-20.67,7.43-.65,20.35,35.2,18.73,54.58-1.61,19.38-14.53,71.05-5.49,92.04Z"/>
  <path class="cls-16" d="M143.86,898.4c-23.4-16.16-59.05-61.84-77.43-144.29-18.38-82.45,11.7-208.35,40.67-264.62,28.97-56.27,100.82-136,174.93-145.96,74.1-9.96,148.74,56.27,187.74,153.76,39,97.49,34.54,176.6,30.64,224.51-3.9,47.91-29.53,144.29-75.77,183.28-46.24,39-98.6,40.67-142.06,23.96-43.45-16.71-50.14-23.95-73.81-22-23.67,1.95-42.9,5.01-64.9-8.64h0ZM94,699.5c11.63,35.2,35.2,31.33,44.57,15.82,9.37-15.5,1.61-29.39-11.3-42.63-12.92-13.24-21.32-29.71-16.47-56.2,4.84-26.48,38.11-44.25,54.58-37.46,16.47,6.78,27.45,39.72,32.3,60.72,4.84,20.99,20.02,18.73,25.51,1.29,5.49-17.44-6.78-41.34-11.3-63.95-4.52-22.61,6.46-54.26,23.9-62.01,17.44-7.75,25.84,4.2,25.84,4.2l2.91,29.71s-11.3-19.7-20.67-19.06c-9.37.65-20.02,16.47-20.67,37.46-.65,20.99,16.15,53.61,17.76,72.99,1.61,19.38-19.38,36.82-32.3,30.36-12.92-6.46-25.19-33.91-30.68-50.06-5.49-16.15-19.38-29.07-37.14-17.12-17.76,11.95-16.15,35.85-2.26,58.46,13.89,22.61,27.13,23.9,26.49,49.09-.65,25.19-30.36,40.69-44.57,57.49-14.21,16.79-4.52,49.74,21.96,87.2,26.48,37.46,71.7,21.96,93.66,25.19,21.96,3.23,46.51,27.77,103.35,26.48,56.84-1.29,94.95-41.34,118.2-99.47,23.25-58.13,28.42-160.84-1.94-267.42-30.36-106.58-96.24-160.84-140.17-169.88-43.92-9.04-78.8,13.57-117.56,43.92-38.76,30.36-75.57,92.37-92.37,155.02-16.79,62.66-18.73,109.16-11.63,129.83Z"/>
  <path class="cls-2" d="M287.65,315.35c-6.46-.27-16.69-26.38-27.99-36.87-11.3-10.5-55.17-46.83-68.9-61.63-13.72-14.8-18.57-53.29-6.19-73.48,12.38-20.19,32.56-35.26,64.05-25.03,31.49,10.23,43.6,26.91,49.52,27.18,5.92.27,20.99-18.03,43.06-14.26,22.07,3.77,50.6,24.49,41.72,78.59-8.88,54.1-69.17,109-95.28,105.5Z"/>
  <path class="cls-16" d="M287.65,315.35c-6.46-.27-16.69-26.38-27.99-36.87-6.37-5.91-23.07-20.03-38.9-33.87-4.67-7.27-8.62-16.72-4.51-24.24,7.81-14.27,31.22-5.38,41.45.54,10.23,5.92,20.99,4.31,35.79-4.57,14.8-8.88,41.72-26.64,61.1-24.76,16.47,1.6,26.52,13.12,21.89,40.68-18.52,45.8-66.35,86.11-88.83,83.09h0ZM205.57,345.23c-5.65-4.04,3.77-19.38,11.3-16.15,7.54,3.23-1.88,22.34-11.3,16.15h0ZM269.36,322.08c2.96-5.38-2.15-15.34-11.84-20.72-9.69-5.38-32.84-7-39.02.54-6.19,7.54,7.8,21.53,17.49,22.07,9.69.54,31.22,1.88,33.37-1.88Z"/>
  <path class="cls-16" d="M197.96,159.28c-4.57-2.96-3.5-19.65,9.69-28.8,13.19-9.15,35.79-6.46,47.1-.54,11.3,5.92,9.96,21.53,3.77,25.3-6.19,3.77-11.03-.27-22.61.27-11.57.54-33.91,10.23-37.95,3.77Z"/>
  <path class="cls-2" d="M231.15,920.11c-23.68-5.38-56.52,4.84-87.74-13.46-31.22-18.3-72.66-57.06-90.43-158.79-17.76-101.73,13.46-216.92,71.59-300.9,58.13-83.97,149.1-118.42,190.55-114.11,41.45,4.31,107.66,38.76,156.64,147.49,48.98,108.73,44.14,193.24,37.14,259.99-7,66.75-45.76,153.95-95.81,185.17-50.06,31.22-100.66,22.07-123.26,14-22.61-8.07-44.68-18.3-58.67-19.38h0ZM148.52,889.7c21.26,13.19,39.83,10.23,62.71,8.34,22.88-1.88,29.34,5.11,71.32,21.26,41.99,16.15,92.58,14.53,137.26-23.15,44.68-37.68,69.44-130.8,73.21-177.09,3.77-46.29,8.07-122.73-29.61-216.92-37.68-94.2-109.8-158.18-181.4-148.56-71.6,9.62-141.03,86.66-169.02,141.03-27.99,54.36-57.06,176.01-39.29,255.68,17.76,79.66,52.21,123.8,74.82,139.41Z"/>
  <path class="cls-11" d="M261.53,836.78c10.98,21.96,42.41,58.48,86.23,57.49,43.82-1,80.74-39.08,91.72-77.51,10.98-38.43-2.91-68.47-2.91-68.47,0,0-167.62,72.99-175.05,88.49Z"/>
  <path class="cls-7" d="M261.53,836.78c-8.4-19.05-15.82-42.31-14.53-61.36,1.29-19.05.97-29.39-2.58-42.95-3.55-13.57-3.23-27.13,4.84-38.43,8.07-11.3,41.34-36.49,57.16-40.69,15.83-4.2,26.48-4.2,47.8-3.88,21.32.32,43.6,10.98,59.75,28.1,16.15,17.12,15.18,25.19,15.18,25.19,0,0,20.02,15.5,20.67,36.49.65,20.99-13.24,9.04-13.24,9.04,0,0,9.65,29.06,3.23,44.25-6.42,15.19-31.65,40.69-45.22,54.58-13.56,13.89-41.02,19.05-54.9,20.02-13.89.97-68.15-12.92-78.16-30.36Z"/>
  <path class="cls-18" d="M261.43,766.53c10.98-8.07,46.83-16.79,64.59-15.83,17.76.97,27.78-15.18,47.8-12.59,20.02,2.58,33.59,1.29,31.33-13.57-2.26-14.86-32.62-30.03-53.29-20.02-20.67,10.01-43.28,17.12-59.75,16.15-16.47-.97-35.2,5.49-37.46,19.06-2.26,13.56-2.91,29.71,6.78,26.8Z"/>
  <path class="cls-24" d="M342.91,733.1s10.98-10.17,22.77-10.17,18.89,6.94,18.89,6.94c0,0-3.71-12.27-16.95-12.76-13.24-.48-24.38,12.27-24.71,15.99h0ZM301.41,710.66s4.52-7.27,10.5-8.4,10.98,2.1,10.98,2.1c0,0-6.46-8.07-14.05-6.46-7.59,1.61-9.2,10.82-7.43,12.76h0ZM262.66,748.12s4.36-7.43,16.79-9.85c12.43-2.42,18.25.81,18.25.81,0,0-7.43-8.88-20.18-6.14-12.76,2.75-15.66,13.08-14.86,15.18Z"/>
  <path class="cls-22" d="M326.43,642.51c-1.29,4.04-3.88,3.87-3.88,9.85s.32,10.34-1.78,13.56c-2.1,3.23-8.56,1.13-11.3.16-2.75-.97,0,5.01,3.39,6.62,3.39,1.61,9.85,1.45,9.85,1.45,0,0-5.98,2.42-10.34,1.29-4.36-1.13-.32,4.04,5.65,4.2,5.98.16,12.27-.16,12.27-.16,0,0-9.77,3.07-13.16,2.66-3.39-.4-1.7,3.07,2.02,3.79,3.72.73,11.95-2.66,11.95-2.66,0,0-5.09,3.88-8.08,5.25-2.99,1.37,6.3,3.07,12.44-1.78,6.14-4.84,6.7-19.13,8.07-26.64,1.37-7.51,9.45-26.73,15.1-36.9,5.65-10.17,9.85-18.57,10.5-25.19.65-6.62-2.58-13.73-2.58-13.73,0,0-28.74,29.23-40.13,58.22Z"/>
  <path class="cls-17" d="M415.17,636.69c4.38-16.64,7.8-27.08.07-45.69-7.72-18.61-39.24-46.83-46.02-46.02-6.78.81-23.58,12.44-30.36,34.88-6.78,22.44-12.43,62.66-12.43,62.66,0,0,10.33-3.07,17.44-13.89,7.11-10.82,12.76-34.56,18.25-38.11,5.49-3.55,20.19-1.13,28.1,6.46,7.91,7.59,25.13,22.84,24.96,39.72Z"/>
  <path class="cls-9" d="M418.52,600.88c-.73-3.06-1.8-6.32-3.28-9.88-7.72-18.61-39.24-46.83-46.02-46.02-6.78.81-23.58,12.44-30.36,34.88-4.24,14.05-8.05,35.05-10.3,48.81.02-.07,20.72-70.13,37.83-69.8,17.12.32,45.48,25.27,52.13,42.02h0ZM328.57,628.67h0s0,0,0,0Z"/>
  <path class="cls-6" d="M301.61,595.69c12.14-6.56,24.42-30.78,29.91-58.23,5.49-27.45,4.52-56.52,4.52-56.52,0,0-5.17,56.84-31.33,60.39-26.16,3.55-18.41,44.89-3.1,54.35Z"/>
  <path class="cls-12" d="M242.05,465.12s14.81,85.9,18.41,100.12c3.59,14.22,12.92,31.97,27.78,34.56,14.85,2.58,29.71-15.83,16.47-58.46-13.24-42.63-31.33-83-46.51-92.69-15.18-9.69-18.41,4.2-16.15,16.47Z"/>
  <path class="cls-8" d="M212.82,449.13s-21.96,15.18-28.58,18.89c-6.62,3.71-7.75,2.91-9.53,1.61-1.78-1.29,1.45-6.14,1.45-6.14,0,0-8.72,5.01-11.79,2.91-3.07-2.1.81-6.14.16-9.37-.65-3.23,2.91-5.81,6.3-8.88,3.39-3.07,43.28-10.34,41.99.97Z"/>
  <path class="cls-21" d="M221.8,493.36s.88-39.38-1.06-52.13c-1.94-12.76-6.14-16.31-14.05-14.53-7.91,1.78-33.95,19.79-35.85,21.48-1.9,1.69,1.94,7.27,5.01,7.59,3.07.32,4.61-4.72,8.72-3.39,4.11,1.33,6.62-.16,10.33-1.78,3.71-1.61,13.24-3.88,16.15,3.88,2.91,7.75,9.21,24.8,10.75,38.89Z"/>
  <path class="cls-19" d="M254.16,451.72s-12.43,26.81-18.57,30.36c-6.14,3.55-4.52-1.46-5.81-4.04-1.29-2.58-4.34,4.22-7.91,2.75-3.57-1.48-.97-6.94-3.39-7.75-2.42-.81-1.29-5.49.97-10.01,2.26-4.52,3.15-6.49,3.15-6.49,0,0,29.31-15.79,31.57-4.81Z"/>
  <path class="cls-13" d="M222.59,456.53s13.65-30.97,21.56-33.39c7.91-2.42,24.87,15.34,31.97,33.1,7.11,17.76,26.07,77.22,26.07,77.22,0,0-18-45.57-30.43-58.97-12.43-13.4-16.63-20.83-22.45-20.35-5.81.48-7.66,9.95-13.68,11.43-6.02,1.49-14.42-.94-13.05-9.04Z"/>
  <path class="cls-1" d="M366.72,667.06c-2.91,5.17,34.56,25.19,42.63,43.92,8.08,18.73-6.78,52.97-28.42,65.88-21.64,12.92-101.73,15.5-102.38,36.17s52.96,57.81,100.76,26.81c47.8-31,56.84-80.09,51.67-104.64-5.17-24.55-42.62-76.85-64.27-68.15Z"/>
  <path class="cls-2" d="M83.35,653.99s-4.84,52.64,14.53,72.67c19.38,20.02,41.5,4.36,46.83-8.88,5.33-13.24,2.26-22.93-3.87-32.14-6.14-9.2-20.35-25.67-20.35-25.67,0,0,19.05,11.3,28.26,30.2,9.2,18.9,4.68,39.57-20.02,55.39-24.71,15.82-29.39,28.74-29.07,43.11.32,14.37,13.57,49.9,13.57,49.9,0,0-49.99-102.48-29.87-184.57Z"/>
</svg>