<?xml version="1.0" encoding="UTF-8"?>
<svg id="Layer_1" data-name="Layer 1" xmlns="http://www.w3.org/2000/svg" xmlns:xlink="http://www.w3.org/1999/xlink" viewBox="0 0 491 640">
  <defs>
    <style>
      .cls-1 {
        fill: #f38155;
      }

      .cls-1, .cls-2, .cls-3, .cls-4, .cls-5, .cls-6, .cls-7, .cls-8 {
        fill-rule: evenodd;
      }

      .cls-9 {
        fill: #490420;
      }

      .cls-10 {
        fill: #62062b;
      }

      .cls-11 {
        fill: #3b031a;
      }

      .cls-2 {
        fill: url(#GradientFill_4);
      }

      .cls-12 {
        fill: #3f041c;
      }

      .cls-13 {
        fill: #40041c;
      }

      .cls-3 {
        fill: #ffaf7b;
      }

      .cls-14 {
        fill: #750733;
      }

      .cls-15 {
        fill: #45041e;
      }

      .cls-16 {
        fill: #5c0528;
      }

      .cls-17 {
        fill: #360318;
      }

      .cls-18 {
        fill: #3c031b;
      }

      .cls-19 {
        fill: #480420;
      }

      .cls-20 {
        fill: #69062e;
      }

      .cls-21 {
        fill: #370319;
      }

      .cls-22 {
        fill: #5f0629;
      }

      .cls-4 {
        fill: #43262a;
      }

      .cls-23 {
        fill: #4d0422;
      }

      .cls-24 {
        fill: #510524;
      }

      .cls-5 {
        fill: url(#GradientFill_7);
      }

      .cls-25 {
        fill: #3e031b;
      }

      .cls-26 {
        fill: #42041d;
      }

      .cls-27 {
        fill: #590527;
      }

      .cls-28 {
        fill: #540525;
      }

      .cls-29 {
        fill: #560526;
      }

      .cls-30 {
        clip-rule: evenodd;
        fill: none;
      }

      .cls-31 {
        fill: #41041d;
      }

      .cls-32 {
        fill: #3d031b;
      }

      .cls-33 {
        fill: #43041e;
      }

      .cls-6 {
        fill: url(#GradientFill_5);
      }

      .cls-7 {
        fill: #e36b00;
      }

      .cls-34 {
        fill: #710731;
      }

      .cls-35 {
        fill: #370318;
      }

      .cls-36 {
        fill: #4f0523;
      }

      .cls-37 {
        fill: #380319;
      }

      .cls-38 {
        fill: #3a031a;
      }

      .cls-39 {
        fill: #6d062f;
      }

      .cls-40 {
        fill: #46041f;
      }

      .cls-41 {
        fill: #390319;
      }

      .cls-42 {
        clip-path: url(#clippath);
      }

      .cls-43 {
        fill: #65062c;
      }

      .cls-44 {
        fill: #4b0421;
      }

      .cls-8 {
        fill: #d23c41;
      }
    </style>
    <clipPath id="clippath">
      <path class="cls-30" d="M107.16,310.7s27.58-48.65,70.91-53.57c43.33-4.91,69.91,4.02,92.03,33.73,22.11,29.71,52.72,66.79,65.22,104.76,12.51,37.97,14.07,59.41,6.92,91.36-7.15,31.94-19.62,40.97-36.61,42.6-17,1.63-71.08-22.28-91.26-20.37-20.19,1.92-57.29,5.69-76.05-32.28-18.76-37.97-43.38-94.81-31.16-166.22Z"/>
    </clipPath>
    <linearGradient id="GradientFill_4" data-name="GradientFill 4" x1="232.65" y1="297.91" x2="279.4" y2="427.9" gradientUnits="userSpaceOnUse">
      <stop offset="0" stop-color="#f9a976"/>
      <stop offset="1" stop-color="#f58759"/>
    </linearGradient>
    <linearGradient id="GradientFill_7" data-name="GradientFill 7" x1="258.79" y1="444.48" x2="305.9" y2="375.34" gradientUnits="userSpaceOnUse">
      <stop offset="0" stop-color="#f47e5c"/>
      <stop offset="1" stop-color="#f58759"/>
    </linearGradient>
    <linearGradient id="GradientFill_5" data-name="GradientFill 5" x1="236.61" y1="309.47" x2="287.98" y2="299.96" gradientUnits="userSpaceOnUse">
      <stop offset="0" stop-color="#f9a976"/>
      <stop offset="1" stop-color="#fcc9a4"/>
    </linearGradient>
  </defs>
  <path class="cls-1" d="M238.6,538.34c-18.76-3.57-53.16,1.79-77.73-8.94-24.57-10.72-70.14-59.86-80.41-138.93-10.27-79.07,23.68-156.8,99.17-188.52,75.5-31.72,172.88-1.79,225.6,71.48,52.71,73.26,31.27,167.97,14.74,209.96-16.53,41.99-69.24,73.26-106.32,72.37-37.08-.89-57.63-16.08-75.05-17.42Z"/>
  <path class="cls-4" d="M367.63,259.35c-35.5-36.9-94.36-53.25-138.73-48.58-44.38,4.67-96.69,36.9-115.85,82.68-19.15,45.78-6.07,80.34,13.55,91.09,27.68,19.56,56.6-10.99,81.36-16.13,71.75-14.89,53.23,60.24,5.93,33.76-11.68-6.54-45.67-12.41-67.63,24.02-21.96,36.43,3.23,67.65,27.05,79.79,23.82,12.15,45.31-1.4,68.2,1.4,22.89,2.8,59.79,27.56,93.89,26.62,34.1-.93,76.14-57.45,83.61-113.04,7.47-55.59-15.88-124.72-51.38-161.62Z"/>
  <g class="cls-42">
    <rect class="cls-14" x="94.94" y="252.22" width="254.45" height="278.98"/>
    <path class="cls-14" d="M118.27,288.32c44.99-40.85,128.06-22.66,185.54,40.64,28.74,31.65,45.65,68.58,49.74,102.71,2.05,17.06.89,33.43-3.59,48.08s-12.28,27.59-23.53,37.8c-11.25,10.21-24.87,16.74-39.89,19.79v-5.14h-48.2v4.09c-33.58-7.35-68.72-27.73-97.46-59.38-28.74-31.65-45.65-68.58-49.74-102.71-4.1-34.13,4.62-65.45,27.11-85.88Z"/>
    <path class="cls-34" d="M119.92,290.14c44.27-40.21,126.02-22.3,182.6,40,28.29,31.15,44.92,67.49,48.95,101.08,4.03,33.59-4.55,64.41-26.68,84.51-11.07,10.05-24.48,16.47-39.25,19.47v-3.01h-47.43v1.97c-33.04-7.24-67.62-27.29-95.91-58.44-28.29-31.15-44.92-67.49-48.95-101.08-4.03-33.59,4.55-64.41,26.68-84.51Z"/>
    <path class="cls-39" d="M121.58,291.96c43.56-39.56,123.99-21.94,179.65,39.35,27.83,30.64,44.2,66.41,48.16,99.45,3.97,33.04-4.47,63.37-26.25,83.15-21.78,19.78-52.78,25.26-85.29,18.14-32.51-7.12-66.53-26.85-94.36-57.49-27.83-30.65-44.2-66.41-48.16-99.45-3.97-33.04,4.47-63.37,26.25-83.15Z"/>
    <path class="cls-20" d="M123.23,293.78c42.84-38.91,121.96-21.58,176.71,38.71,27.37,30.14,43.47,65.32,47.37,97.82,3.9,32.5-4.4,62.33-25.82,81.79-21.42,19.45-51.91,24.85-83.89,17.85-31.98-7-65.44-26.41-92.82-56.55s-43.47-65.32-47.37-97.82c-3.9-32.5,4.4-62.33,25.82-81.79Z"/>
    <path class="cls-43" d="M124.88,295.6c42.13-38.26,119.93-21.22,173.76,38.06,26.92,29.64,42.75,64.23,46.58,96.19,3.84,31.96-4.33,61.29-25.39,80.42-21.07,19.13-51.05,24.44-82.49,17.55s-64.35-25.97-91.27-55.61c-26.92-29.64-42.75-64.23-46.58-96.19-3.84-31.96,4.33-61.29,25.39-80.42Z"/>
    <path class="cls-10" d="M126.53,297.42c41.42-37.61,117.89-20.86,170.82,37.41,26.46,29.14,42.02,63.14,45.79,94.56,3.77,31.42-4.25,60.26-24.96,79.06-20.71,18.81-50.18,24.02-81.09,17.25-30.91-6.77-63.26-25.53-89.72-54.67-26.46-29.14-42.02-63.14-45.79-94.56-3.77-31.42,4.25-60.26,24.96-79.06Z"/>
    <path class="cls-22" d="M128.19,299.24c40.7-36.96,115.86-20.5,167.87,36.77,52.01,57.27,61.18,133.66,20.47,170.63-20.35,18.48-49.32,23.61-79.7,16.95-30.38-6.65-62.17-25.09-88.18-53.72-52.01-57.27-61.18-133.66-20.47-170.63Z"/>
    <path class="cls-16" d="M129.84,301.06c39.99-36.32,113.83-20.14,164.93,36.12,51.1,56.27,60.1,131.32,20.12,167.63-19.99,18.16-48.45,23.19-78.3,16.66s-61.08-24.65-86.63-52.78c-51.1-56.27-60.1-131.32-20.12-167.63Z"/>
    <ellipse class="cls-27" cx="222.36" cy="402.94" rx="96.06" ry="135.16" transform="translate(-213.14 254.14) rotate(-42.24)"/>
    <ellipse class="cls-29" cx="222.36" cy="402.94" rx="94.31" ry="132.71" transform="translate(-213.14 254.14) rotate(-42.24)"/>
    <ellipse class="cls-28" cx="222.36" cy="402.94" rx="92.57" ry="130.25" transform="translate(-213.14 254.14) rotate(-42.24)"/>
    <ellipse class="cls-24" cx="222.36" cy="402.94" rx="90.82" ry="127.79" transform="translate(-213.14 254.14) rotate(-42.24)"/>
    <ellipse class="cls-36" cx="222.36" cy="402.94" rx="89.07" ry="125.33" transform="translate(-213.14 254.14) rotate(-42.24)"/>
    <ellipse class="cls-23" cx="222.36" cy="402.94" rx="87.33" ry="122.88" transform="translate(-213.14 254.14) rotate(-42.24)"/>
    <ellipse class="cls-44" cx="222.36" cy="402.94" rx="85.58" ry="120.42" transform="translate(-213.14 254.14) rotate(-42.24)"/>
    <ellipse class="cls-9" cx="222.36" cy="402.94" rx="83.83" ry="117.96" transform="translate(-213.14 254.14) rotate(-42.24)"/>
    <ellipse class="cls-19" cx="222.36" cy="402.94" rx="82.09" ry="115.5" transform="translate(-213.14 254.14) rotate(-42.24)"/>
    <ellipse class="cls-40" cx="222.36" cy="402.94" rx="80.34" ry="113.05" transform="translate(-213.14 254.14) rotate(-42.24)"/>
    <ellipse class="cls-15" cx="222.36" cy="402.94" rx="78.59" ry="110.59" transform="translate(-213.14 254.14) rotate(-42.24)"/>
    <ellipse class="cls-33" cx="222.36" cy="402.94" rx="76.85" ry="108.13" transform="translate(-213.14 254.14) rotate(-42.24)"/>
    <ellipse class="cls-26" cx="222.36" cy="402.94" rx="75.1" ry="105.67" transform="translate(-213.14 254.14) rotate(-42.24)"/>
    <ellipse class="cls-31" cx="222.36" cy="402.94" rx="73.36" ry="103.22" transform="translate(-213.14 254.14) rotate(-42.24)"/>
    <ellipse class="cls-13" cx="222.36" cy="402.94" rx="71.61" ry="100.76" transform="translate(-213.14 254.14) rotate(-42.24)"/>
    <ellipse class="cls-12" cx="222.36" cy="402.94" rx="69.86" ry="98.3" transform="translate(-213.14 254.14) rotate(-42.24)"/>
    <ellipse class="cls-25" cx="222.36" cy="402.94" rx="68.12" ry="95.84" transform="translate(-213.14 254.14) rotate(-42.24)"/>
    <ellipse class="cls-32" cx="222.36" cy="402.94" rx="66.37" ry="93.39" transform="translate(-213.14 254.14) rotate(-42.24)"/>
    <ellipse class="cls-18" cx="222.36" cy="402.94" rx="64.62" ry="90.93" transform="translate(-213.14 254.14) rotate(-42.24)"/>
    <ellipse class="cls-11" cx="222.36" cy="402.94" rx="62.88" ry="88.47" transform="translate(-213.14 254.14) rotate(-42.24)"/>
    <ellipse class="cls-11" cx="222.36" cy="402.94" rx="61.13" ry="86.01" transform="translate(-213.14 254.14) rotate(-42.24)"/>
    <ellipse class="cls-38" cx="222.36" cy="402.94" rx="59.38" ry="83.56" transform="translate(-213.14 254.14) rotate(-42.24)"/>
    <ellipse class="cls-38" cx="222.36" cy="402.94" rx="57.64" ry="81.1" transform="translate(-213.14 254.14) rotate(-42.24)"/>
    <ellipse class="cls-41" cx="222.36" cy="402.94" rx="55.89" ry="78.64" transform="translate(-213.14 254.14) rotate(-42.24)"/>
    <ellipse class="cls-41" cx="222.36" cy="402.94" rx="54.14" ry="76.18" transform="translate(-213.14 254.14) rotate(-42.24)"/>
    <ellipse class="cls-37" cx="222.36" cy="402.94" rx="52.4" ry="73.73" transform="translate(-213.14 254.14) rotate(-42.24)"/>
    <ellipse class="cls-37" cx="222.36" cy="402.94" rx="50.65" ry="71.27" transform="translate(-213.14 254.14) rotate(-42.24)"/>
    <ellipse class="cls-37" cx="222.36" cy="402.94" rx="48.9" ry="68.81" transform="translate(-213.14 254.14) rotate(-42.24)"/>
    <ellipse class="cls-37" cx="222.36" cy="402.94" rx="47.16" ry="66.35" transform="translate(-213.14 254.14) rotate(-42.24)"/>
    <ellipse class="cls-21" cx="222.36" cy="402.94" rx="45.41" ry="63.9" transform="translate(-213.14 254.14) rotate(-42.24)"/>
    <ellipse class="cls-35" cx="222.36" cy="402.94" rx="43.66" ry="61.44" transform="translate(-213.14 254.14) rotate(-42.24)"/>
    <ellipse class="cls-35" cx="222.36" cy="402.94" rx="41.92" ry="58.98" transform="translate(-213.14 254.14) rotate(-42.24)"/>
    <ellipse class="cls-35" cx="222.36" cy="402.94" rx="40.17" ry="56.52" transform="translate(-213.14 254.14) rotate(-42.24)"/>
    <ellipse class="cls-35" cx="222.36" cy="402.94" rx="38.42" ry="54.07" transform="translate(-213.14 254.14) rotate(-42.24)"/>
    <ellipse class="cls-35" cx="222.36" cy="402.94" rx="36.68" ry="51.61" transform="translate(-213.14 254.14) rotate(-42.24)"/>
    <ellipse class="cls-17" cx="222.36" cy="402.94" rx="34.93" ry="49.15" transform="translate(-213.14 254.14) rotate(-42.24)"/>
    <ellipse class="cls-17" cx="222.36" cy="402.94" rx="33.18" ry="46.69" transform="translate(-213.14 254.14) rotate(-42.24)"/>
    <ellipse class="cls-17" cx="222.36" cy="402.94" rx="31.44" ry="44.24" transform="translate(-213.14 254.14) rotate(-42.24)"/>
    <ellipse class="cls-17" cx="222.36" cy="402.94" rx="29.69" ry="41.78" transform="translate(-213.14 254.14) rotate(-42.24)"/>
    <ellipse class="cls-17" cx="222.36" cy="402.94" rx="27.94" ry="39.32" transform="translate(-213.14 254.14) rotate(-42.24)"/>
    <ellipse class="cls-17" cx="222.36" cy="402.94" rx="26.2" ry="36.86" transform="translate(-213.14 254.14) rotate(-42.24)"/>
    <ellipse class="cls-17" cx="222.36" cy="402.94" rx="24.45" ry="34.41" transform="translate(-213.14 254.14) rotate(-42.24)"/>
    <ellipse class="cls-17" cx="222.36" cy="402.94" rx="22.71" ry="31.95" transform="translate(-213.14 254.14) rotate(-42.24)"/>
    <ellipse class="cls-17" cx="222.36" cy="402.94" rx="20.96" ry="29.49" transform="translate(-213.14 254.13) rotate(-42.24)"/>
    <ellipse class="cls-17" cx="222.36" cy="402.94" rx="19.21" ry="27.03" transform="translate(-213.14 254.14) rotate(-42.24)"/>
    <ellipse class="cls-17" cx="222.36" cy="402.94" rx="17.47" ry="24.58" transform="translate(-213.14 254.14) rotate(-42.24)"/>
    <ellipse class="cls-17" cx="222.36" cy="402.94" rx="15.72" ry="22.12" transform="translate(-213.14 254.14) rotate(-42.24)"/>
    <path class="cls-17" d="M209.14,388.38c5.71-5.19,16.26-2.88,23.56,5.16,7.3,8.04,8.59,18.76,2.87,23.95-5.71,5.19-16.26,2.88-23.56-5.16-7.3-8.04-8.59-18.76-2.87-23.95Z"/>
    <ellipse class="cls-17" cx="222.36" cy="402.94" rx="12.23" ry="17.2" transform="translate(-213.14 254.14) rotate(-42.24)"/>
    <path class="cls-17" d="M212.45,392.02c4.28-3.89,12.2-2.16,17.67,3.87,5.47,6.03,6.44,14.07,2.16,17.96-4.28,3.89-12.2,2.16-17.67-3.87-5.47-6.03-6.44-14.07-2.16-17.96Z"/>
    <path class="cls-17" d="M214.1,393.84c3.57-3.24,10.16-1.8,14.73,3.23,4.56,5.02,5.37,11.72,1.8,14.97-3.57,3.24-10.16,1.8-14.73-3.23-4.56-5.02-5.37-11.72-1.8-14.97Z"/>
    <path class="cls-17" d="M215.75,395.66c2.86-2.59,8.13-1.44,11.78,2.58,3.65,4.02,4.29,9.38,1.44,11.97-2.86,2.59-8.13,1.44-11.78-2.58-3.65-4.02-4.29-9.38-1.44-11.97Z"/>
    <path class="cls-17" d="M217.4,397.48c2.14-1.95,6.1-1.08,8.84,1.94,2.74,3.01,3.22,7.03,1.08,8.98-2.14,1.95-6.1,1.08-8.84-1.94-2.74-3.01-3.22-7.03-1.08-8.98Z"/>
    <path class="cls-17" d="M219.05,399.3c1.43-1.3,4.07-.72,5.89,1.29,1.82,2.01,2.15,4.69.72,5.99-1.43,1.3-4.07.72-5.89-1.29s-2.15-4.69-.72-5.99Z"/>
    <path class="cls-17" d="M220.71,401.12c.71-.65,2.03-.36,2.95.65.91,1,1.07,2.34.36,2.99s-2.03.36-2.95-.65c-.91-1-1.07-2.35-.36-2.99Z"/>
  </g>
  <path class="cls-3" d="M238.83,413.04s-13.4,5.58-14.29,16.3c-.89,10.72,9.83,27.92,30.38,29.71,20.55,1.79,49.59-10.5,61.2-35.96,11.61-25.46,12.73-54.95,5.14-72.82-7.6-17.87-13.63-31.5-16.53-42.44-2.9-10.94-17.65-33.73-37.3-35.29-19.66-1.56-42.44,8.26-52.94,24.12-10.5,15.86-10.28,29.26-2.23,39.98,8.04,10.72,20.34,14.31,31.5,29.93,11.15,15.62,9.16,36.19-4.91,46.46Z"/>
  <path class="cls-7" d="M245.75,521.36c-21.89-4.02-60.75,1.79-84.43-10.28-23.68-12.06-61.65-62.1-67.46-140.27-5.81-78.18,39.31-134.47,100.96-156.35,61.65-21.89,109-11.62,159.93,26.8,50.93,38.42,71.92,104.09,73.26,147.87,1.34,43.78-16.08,97.83-45.12,122.4-29.04,24.57-54.95,29.93-76.84,28.14-21.89-1.79-44.23-16.53-60.31-18.32h0ZM132.51,383.99c24.12,12.51,55.84-20.55,79.52-25.46,23.68-4.91,52.27.89,53.16,29.04.89,28.14-34.4,31.72-45.57,25.46-11.17-6.25-41.55-22.34-62.54,12.51-21,34.84-2.68,62.99,20.1,74.6,22.78,11.62,43.33-1.34,65.22,1.34,21.89,2.68,57.18,26.36,89.79,25.46,32.61-.89,72.82-54.95,79.96-108.11,7.15-53.16-15.19-119.28-49.14-154.57-33.95-35.29-90.24-50.93-132.68-46.46-42.44,4.47-92.47,35.29-110.79,79.07-18.32,43.78-5.81,76.84,12.96,87.11Z"/>
  <path class="cls-1" d="M416.4,256.68c-4.47,2.23-11.17-16.53-35.29-33.28-24.12-16.75-61.65-35.96-73.49-40.88-11.84-4.91-30.82-24.57-34.4-46.01-3.57-21.44,8.49-34.17,34.4-39.09,25.91-4.91,44.23,5.14,52.27,10.27,8.04,5.14,12.06-.22,17.2-7.82,5.14-7.59,15.86-16.75,30.15-14.29,14.3,2.46,33.28,24.12,32.39,56.51-.89,32.39-17.87,73.49-19.21,85.77-1.34,12.29-1.12,25.02-4.02,28.81Z"/>
  <path class="cls-7" d="M416.4,256.68c-4.47,2.23-11.17-16.53-35.29-33.28-14.82-10.29-34.71-21.51-50.58-29.78-6.46-10.35-15.38-29.27-2.35-39.47,18.54-14.52,36.41,5.36,50.26,5.14,13.85-.22,27.03-12.73,40.65-8.49,13.17,4.1,16.69,20.57,12.46,36.87-4.92,17.95-10.39,33.44-11.13,40.19-1.34,12.29-1.12,25.02-4.02,28.81h0ZM436.72,300.23c6.03,1.12,11.62-12.06,11.39-31.05-.22-18.99-8.93-29.26-15.41-25.91-6.48,3.35-2.01,20.33-2.9,31.5-.89,11.17.22,24.79,6.92,25.46h0ZM452.58,326.14c-8.49,0-10.72-13.18-2.23-15.19,8.49-2.01,13.18,13.18,2.23,15.19Z"/>
  <path class="cls-7" d="M297.35,138.29c-5.14.45-17.42-4.91-12.95-15.41,4.47-10.5,21.44-18.99,33.73-17.2,12.28,1.79,12.06,10.95,6.25,15.19-5.81,4.24-13.18,6.03-16.75,8.93-3.57,2.9-5.81,8.26-10.27,8.49Z"/>
  <path class="cls-2" d="M238.83,413.04s-13.4,5.58-14.29,16.3c-.89,10.72,9.83,27.92,30.38,29.71,20.55,1.79,49.59-10.5,61.2-35.96,2.9-6.35,5.14-12.95,6.76-19.56,3.07-35.19-30.77-55.05-39.93-61.08-9.16-6.03-10.72-14.07-16.08-25.24-5.36-11.17-20.44-22.79-43.67-14.74-10.58,3.66-15.04,11.31-16.77,18.55.28,5.71,2.3,10.92,5.82,15.62,8.04,10.72,20.34,14.31,31.5,29.93,11.15,15.62,9.16,36.19-4.91,46.46Z"/>
  <path class="cls-8" d="M291.33,367.26s1.79,4.69-2.01,10.95c-3.8,6.25-13.18,14.41-8.15,19.43,5.03,5.03,14.52-3.13,14.52-3.13,0,0-11.61,3.13-10.83-2.01.78-5.14,13.85-15.86,6.48-25.24Z"/>
  <path class="cls-5" d="M283.94,351.77c-1.61,2.68,14.47,12.6,13.94,21.17-.53,8.58-8.17,18.16-7.64,19.83.54,1.68,8.71-1.61,9.18,2.08.47,3.69-17.22,33.37-38.66,32.3-21.44-1.07-25.73,2.41-27.34,8.04-1.61,5.63,13.4,28.41,43.96,16.89,30.56-11.53,42.08-40.2,41.28-59.5-.8-19.3-27.92-44.96-34.71-40.81Z"/>
  <path class="cls-1" d="M107.19,359.19s13.67,36.1,30.82,37.44c17.15,1.34,46.08-20.5,69.94-28.21,23.87-7.71,38.07,5.7,35.66,15.34-2.41,9.65-34.04-2.95-51.46,2.68-17.42,5.63-35.11,20.91-53.88,25.19-18.76,4.29-32.05-30.11-31.09-52.45Z"/>
  <path class="cls-6" d="M229.32,288.9s28.7-17.44,44.23-11.53c15.53,5.92,36.19,33.5,27.07,45.3-9.11,11.79-23.85.54-29.48-15.55-5.63-16.08-32.38-23.21-41.81-18.23Z"/>
</svg>