<?xml version="1.0" encoding="UTF-8"?>
<svg id="Layer_1" data-name="Layer 1" xmlns="http://www.w3.org/2000/svg" xmlns:xlink="http://www.w3.org/1999/xlink" viewBox="0 0 491 587">
  <defs>
    <style>
      .cls-1 {
        fill: url(#GradientFill_5-3);
      }

      .cls-1, .cls-2, .cls-3, .cls-4, .cls-5, .cls-6, .cls-7, .cls-8, .cls-9, .cls-10, .cls-11, .cls-12, .cls-13, .cls-14 {
        fill-rule: evenodd;
      }

      .cls-2 {
        fill: #f38155;
      }

      .cls-15 {
        fill: #490420;
      }

      .cls-16 {
        fill: #62062b;
      }

      .cls-17 {
        fill: #3b031a;
      }

      .cls-3 {
        fill: url(#GradientFill_4);
      }

      .cls-18 {
        fill: #3f041c;
      }

      .cls-4 {
        fill: url(#GradientFill_2-2);
      }

      .cls-19 {
        fill: #40041c;
      }

      .cls-20 {
        fill: #750733;
      }

      .cls-21 {
        fill: #45041e;
      }

      .cls-22 {
        fill: #5c0528;
      }

      .cls-23 {
        fill: #360318;
      }

      .cls-24 {
        fill: #3c031b;
      }

      .cls-25 {
        fill: #480420;
      }

      .cls-26 {
        fill: #69062e;
      }

      .cls-27 {
        fill: #370319;
      }

      .cls-5 {
        fill: url(#GradientFill_5-2);
      }

      .cls-28 {
        fill: #5f0629;
      }

      .cls-6 {
        fill: #43262a;
      }

      .cls-29 {
        fill: #4d0422;
      }

      .cls-30 {
        fill: #510524;
      }

      .cls-31 {
        fill: #3e031b;
      }

      .cls-32 {
        fill: #42041d;
      }

      .cls-33 {
        fill: #590527;
      }

      .cls-34 {
        fill: #540525;
      }

      .cls-35 {
        fill: #560526;
      }

      .cls-7 {
        fill: url(#GradientFill_3);
      }

      .cls-36 {
        clip-rule: evenodd;
        fill: none;
      }

      .cls-37 {
        fill: #41041d;
      }

      .cls-38 {
        fill: #3d031b;
      }

      .cls-39 {
        fill: #43041e;
      }

      .cls-8 {
        fill: url(#GradientFill_5);
      }

      .cls-9 {
        fill: url(#GradientFill_2);
      }

      .cls-10 {
        fill: #e36b00;
      }

      .cls-40 {
        fill: #710731;
      }

      .cls-41 {
        fill: #370318;
      }

      .cls-42 {
        fill: #4f0523;
      }

      .cls-43 {
        fill: #380319;
      }

      .cls-44 {
        fill: #3a031a;
      }

      .cls-45 {
        fill: #6d062f;
      }

      .cls-11 {
        fill: url(#GradientFill_4-2);
      }

      .cls-12 {
        fill: url(#GradientFill_2-3);
      }

      .cls-46 {
        fill: #46041f;
      }

      .cls-47 {
        fill: #390319;
      }

      .cls-48 {
        clip-path: url(#clippath);
      }

      .cls-13 {
        fill: url(#GradientFill_4-3);
      }

      .cls-49 {
        fill: #65062c;
      }

      .cls-50 {
        fill: #4b0421;
      }

      .cls-14 {
        fill: #d23c41;
      }
    </style>
    <clipPath id="clippath">
      <path class="cls-36" d="M98.4,328.59s14.6-44.3,60.36-55c45.75-10.71,122.17,42.83,141.64,73.01,19.47,30.18,35.05,86.15,29.69,120.71-5.35,34.56-21.17,60.36-37.97,68.15-16.79,7.79-70.56-10.64-83.72-11.44-13.16-.8-66.92.76-88.46-35.52-21.54-36.28-37.41-112.63-21.54-159.91Z"/>
    </clipPath>
    <linearGradient id="GradientFill_2" data-name="GradientFill 2" x1="241.94" y1="390.36" x2="205.33" y2="393.64" gradientUnits="userSpaceOnUse">
      <stop offset="0" stop-color="#d43d42"/>
      <stop offset="1" stop-color="#f47856"/>
    </linearGradient>
    <linearGradient id="GradientFill_3" data-name="GradientFill 3" x1="223.23" y1="86.66" x2="241.11" y2="478.71" gradientUnits="userSpaceOnUse">
      <stop offset="0" stop-color="#f68f69"/>
      <stop offset="1" stop-color="#f47856"/>
    </linearGradient>
    <linearGradient id="GradientFill_2-2" data-name="GradientFill 2" x1="277.61" y1="364.93" x2="226.5" y2="452.38" xlink:href="#GradientFill_2"/>
    <linearGradient id="GradientFill_4" data-name="GradientFill 4" x1="235.1" y1="363.87" x2="252.19" y2="264.78" gradientUnits="userSpaceOnUse">
      <stop offset="0" stop-color="#f9a976"/>
      <stop offset="1" stop-color="#f58759"/>
    </linearGradient>
    <linearGradient id="GradientFill_4-2" data-name="GradientFill 4" x1="229.76" y1="358.27" x2="237.19" y2="327.3" xlink:href="#GradientFill_4"/>
    <linearGradient id="GradientFill_5" data-name="GradientFill 5" x1="196.02" y1="296.05" x2="271.25" y2="282.01" gradientUnits="userSpaceOnUse">
      <stop offset="0" stop-color="#f9a976"/>
      <stop offset="1" stop-color="#fcc9a4"/>
    </linearGradient>
    <linearGradient id="GradientFill_4-3" data-name="GradientFill 4" x1="250.43" y1="352.49" x2="254.85" y2="462.84" xlink:href="#GradientFill_4"/>
    <linearGradient id="GradientFill_5-2" data-name="GradientFill 5" x1="251.42" y1="433.15" x2="232.89" y2="458.62" xlink:href="#GradientFill_5"/>
    <linearGradient id="GradientFill_5-3" data-name="GradientFill 5" x1="271.84" y1="367.94" x2="234.34" y2="403.05" xlink:href="#GradientFill_5"/>
    <linearGradient id="GradientFill_2-3" data-name="GradientFill 2" x1="264.75" y1="408.74" x2="232.1" y2="415.33" xlink:href="#GradientFill_2"/>
  </defs>
  <path class="cls-6" d="M206.65,529.6c-18.08-2.77-56.8,4.79-84.56-26.48-27.76-31.27-36.17-81.95-40.24-135.66-4.08-53.71,17.83-107.42,46.1-132.13,28.27-24.71,91.78-54.04,150.02-44.63,58.25,9.41,97.3,56.49,114.36,95.07,17.06,38.58,21.65,98.09,15.54,138.69-6.11,40.6-25.98,71.11-43.05,89.27-17.06,18.16-48.39,38.58-88.13,35.81-39.73-2.77-55.27-19.42-70.04-19.92Z"/>
  <g class="cls-48">
    <rect class="cls-20" x="82.53" y="262.88" width="252.92" height="280.37"/>
    <path class="cls-20" d="M128.63,286.21c49.29-30.75,125.13,1.82,169.39,72.76,44.26,70.94,40.17,153.37-9.12,184.13-3.08,1.92-6.27,3.6-9.54,5.03v-3.88h-77.04v.6c-30.65-13.17-60.68-39.04-82.8-74.51-44.26-70.94-40.17-153.37,9.12-184.13Z"/>
    <path class="cls-40" d="M129.9,288.24c48.51-30.27,123.14,1.79,166.7,71.6,43.55,69.81,39.53,150.94-8.98,181.2-6.06,3.78-12.54,6.59-19.3,8.48v-5.28h-43.27v5.86c-7.51-1.63-15.09-4.09-22.63-7.32-30.17-12.96-59.71-38.42-81.49-73.33-43.55-69.81-39.53-150.94,8.98-181.2Z"/>
    <path class="cls-45" d="M131.17,290.28c47.73-29.78,121.16,1.76,164.01,70.45,42.85,68.68,38.9,148.5-8.83,178.28-11.93,7.44-25.47,11.06-39.74,11.21-14.27.16-29.26-3.14-44.1-9.51-29.68-12.75-58.75-37.8-80.18-72.15-42.85-68.68-38.9-148.5,8.83-178.28Z"/>
    <path class="cls-26" d="M132.44,292.32c46.95-29.29,119.17,1.73,161.32,69.29,42.15,67.56,38.26,146.07-8.69,175.36-11.74,7.32-25.05,10.88-39.08,11.03-14.03.15-28.78-3.09-43.37-9.36-29.19-12.54-57.79-37.18-78.86-70.96-42.15-67.56-38.26-146.07,8.69-175.36Z"/>
    <path class="cls-49" d="M133.72,294.36c46.16-28.8,117.19,1.71,158.63,68.14,41.45,66.43,37.62,143.63-8.54,172.43-23.08,14.4-52.38,13.97-81.08,1.64-28.71-12.33-56.82-36.57-77.55-69.78-41.45-66.43-37.62-143.63,8.54-172.43Z"/>
    <path class="cls-16" d="M134.99,296.4c45.38-28.31,115.2,1.68,155.94,66.98,40.74,65.31,36.98,141.2-8.4,169.51-22.69,14.16-51.49,13.74-79.71,1.62-28.22-12.12-55.86-35.95-76.23-68.6-40.74-65.31-36.98-141.2,8.4-169.51Z"/>
    <path class="cls-28" d="M136.26,298.44c44.6-27.82,113.21,1.65,153.25,65.83,40.04,64.18,36.35,138.76-8.25,166.59-22.3,13.91-50.6,13.5-78.34,1.59-27.73-11.91-54.9-35.33-74.92-67.42-40.04-64.18-36.35-138.77,8.25-166.59Z"/>
    <path class="cls-22" d="M137.53,300.48c43.82-27.34,111.23,1.62,150.57,64.67,39.34,63.05,35.71,136.33-8.11,163.67-21.91,13.67-49.71,13.26-76.96,1.56-27.25-11.7-53.93-34.71-73.6-66.23-39.34-63.05-35.71-136.33,8.11-163.67Z"/>
    <path class="cls-33" d="M138.8,302.52c43.03-26.85,109.24,1.59,147.88,63.52,38.64,61.93,35.07,133.9-7.96,160.74-21.52,13.42-48.83,13.03-75.59,1.53-26.76-11.49-52.97-34.09-72.29-65.05-38.64-61.93-35.07-133.9,7.96-160.74Z"/>
    <ellipse class="cls-35" cx="208.76" cy="414.65" rx="90.17" ry="129.76" transform="translate(-187.84 173.35) rotate(-31.96)"/>
    <ellipse class="cls-34" cx="208.76" cy="414.65" rx="88.5" ry="127.36" transform="translate(-187.84 173.35) rotate(-31.96)"/>
    <ellipse class="cls-30" cx="208.76" cy="414.65" rx="86.83" ry="124.96" transform="translate(-187.84 173.35) rotate(-31.96)"/>
    <ellipse class="cls-42" cx="208.76" cy="414.65" rx="85.16" ry="122.55" transform="translate(-187.84 173.35) rotate(-31.96)"/>
    <ellipse class="cls-29" cx="208.76" cy="414.65" rx="83.49" ry="120.15" transform="translate(-187.84 173.35) rotate(-31.96)"/>
    <ellipse class="cls-50" cx="208.76" cy="414.65" rx="81.82" ry="117.75" transform="translate(-187.84 173.35) rotate(-31.96)"/>
    <ellipse class="cls-15" cx="208.76" cy="414.65" rx="80.15" ry="115.34" transform="translate(-187.84 173.35) rotate(-31.96)"/>
    <ellipse class="cls-25" cx="208.76" cy="414.65" rx="78.48" ry="112.94" transform="translate(-187.84 173.35) rotate(-31.96)"/>
    <ellipse class="cls-46" cx="208.76" cy="414.65" rx="76.81" ry="110.54" transform="translate(-187.84 173.35) rotate(-31.96)"/>
    <ellipse class="cls-21" cx="208.76" cy="414.65" rx="75.14" ry="108.13" transform="translate(-187.84 173.35) rotate(-31.96)"/>
    <ellipse class="cls-39" cx="208.76" cy="414.65" rx="73.47" ry="105.73" transform="translate(-187.84 173.35) rotate(-31.96)"/>
    <ellipse class="cls-32" cx="208.76" cy="414.65" rx="71.8" ry="103.33" transform="translate(-187.84 173.35) rotate(-31.96)"/>
    <ellipse class="cls-37" cx="208.76" cy="414.65" rx="70.13" ry="100.93" transform="translate(-187.84 173.35) rotate(-31.96)"/>
    <ellipse class="cls-19" cx="208.76" cy="414.65" rx="68.46" ry="98.52" transform="translate(-187.84 173.35) rotate(-31.96)"/>
    <ellipse class="cls-18" cx="208.76" cy="414.65" rx="66.79" ry="96.12" transform="translate(-187.84 173.35) rotate(-31.96)"/>
    <ellipse class="cls-31" cx="208.76" cy="414.65" rx="65.12" ry="93.72" transform="translate(-187.84 173.35) rotate(-31.96)"/>
    <ellipse class="cls-38" cx="208.76" cy="414.65" rx="63.45" ry="91.31" transform="translate(-187.84 173.35) rotate(-31.96)"/>
    <ellipse class="cls-24" cx="208.76" cy="414.65" rx="61.78" ry="88.91" transform="translate(-187.84 173.35) rotate(-31.96)"/>
    <ellipse class="cls-17" cx="208.76" cy="414.65" rx="60.11" ry="86.51" transform="translate(-187.84 173.35) rotate(-31.96)"/>
    <ellipse class="cls-17" cx="208.76" cy="414.65" rx="58.44" ry="84.1" transform="translate(-187.84 173.35) rotate(-31.96)"/>
    <ellipse class="cls-44" cx="208.76" cy="414.65" rx="56.77" ry="81.7" transform="translate(-187.84 173.35) rotate(-31.96)"/>
    <ellipse class="cls-44" cx="208.76" cy="414.65" rx="55.1" ry="79.3" transform="translate(-187.84 173.35) rotate(-31.96)"/>
    <ellipse class="cls-47" cx="208.76" cy="414.65" rx="53.43" ry="76.9" transform="translate(-187.84 173.35) rotate(-31.96)"/>
    <ellipse class="cls-47" cx="208.76" cy="414.65" rx="51.76" ry="74.49" transform="translate(-187.84 173.35) rotate(-31.96)"/>
    <ellipse class="cls-43" cx="208.76" cy="414.65" rx="50.09" ry="72.09" transform="translate(-187.84 173.35) rotate(-31.96)"/>
    <ellipse class="cls-43" cx="208.76" cy="414.65" rx="48.43" ry="69.69" transform="translate(-187.84 173.35) rotate(-31.96)"/>
    <ellipse class="cls-43" cx="208.76" cy="414.65" rx="46.76" ry="67.28" transform="translate(-187.84 173.35) rotate(-31.96)"/>
    <ellipse class="cls-43" cx="208.76" cy="414.65" rx="45.09" ry="64.88" transform="translate(-187.84 173.35) rotate(-31.96)"/>
    <ellipse class="cls-27" cx="208.76" cy="414.65" rx="43.42" ry="62.48" transform="translate(-187.84 173.35) rotate(-31.96)"/>
    <ellipse class="cls-41" cx="208.76" cy="414.65" rx="41.75" ry="60.07" transform="translate(-187.84 173.35) rotate(-31.96)"/>
    <ellipse class="cls-41" cx="208.76" cy="414.65" rx="40.08" ry="57.67" transform="translate(-187.84 173.35) rotate(-31.96)"/>
    <ellipse class="cls-41" cx="208.76" cy="414.65" rx="38.41" ry="55.27" transform="translate(-187.84 173.35) rotate(-31.96)"/>
    <ellipse class="cls-41" cx="208.76" cy="414.65" rx="36.74" ry="52.87" transform="translate(-187.84 173.35) rotate(-31.96)"/>
    <ellipse class="cls-41" cx="208.76" cy="414.65" rx="35.07" ry="50.46" transform="translate(-187.84 173.35) rotate(-31.96)"/>
    <ellipse class="cls-23" cx="208.76" cy="414.65" rx="33.4" ry="48.06" transform="translate(-187.84 173.35) rotate(-31.96)"/>
    <ellipse class="cls-23" cx="208.76" cy="414.65" rx="31.73" ry="45.66" transform="translate(-187.84 173.35) rotate(-31.96)"/>
    <ellipse class="cls-23" cx="208.76" cy="414.65" rx="30.06" ry="43.25" transform="translate(-187.84 173.35) rotate(-31.96)"/>
    <ellipse class="cls-23" cx="208.76" cy="414.65" rx="28.39" ry="40.85" transform="translate(-187.84 173.35) rotate(-31.96)"/>
    <ellipse class="cls-23" cx="208.76" cy="414.65" rx="26.72" ry="38.45" transform="translate(-187.84 173.35) rotate(-31.96)"/>
    <ellipse class="cls-23" cx="208.76" cy="414.65" rx="25.05" ry="36.04" transform="translate(-187.84 173.35) rotate(-31.96)"/>
    <ellipse class="cls-23" cx="208.76" cy="414.65" rx="23.38" ry="33.64" transform="translate(-187.84 173.35) rotate(-31.96)"/>
    <ellipse class="cls-23" cx="208.76" cy="414.65" rx="21.71" ry="31.24" transform="translate(-187.84 173.35) rotate(-31.96)"/>
    <ellipse class="cls-23" cx="208.76" cy="414.65" rx="20.04" ry="28.84" transform="translate(-187.84 173.35) rotate(-31.96)"/>
    <ellipse class="cls-23" cx="208.76" cy="414.65" rx="18.37" ry="26.43" transform="translate(-187.84 173.35) rotate(-31.96)"/>
    <ellipse class="cls-23" cx="208.76" cy="414.65" rx="16.7" ry="24.03" transform="translate(-187.84 173.35) rotate(-31.96)"/>
    <path class="cls-23" d="M197.31,396.3c7.04-4.39,17.88.26,24.2,10.39,6.32,10.13,5.74,21.91-1.3,26.3-7.04,4.39-17.88-.26-24.2-10.39-6.32-10.13-5.74-21.91,1.3-26.3Z"/>
    <ellipse class="cls-23" cx="208.76" cy="414.65" rx="13.36" ry="19.22" transform="translate(-187.84 173.35) rotate(-31.96)"/>
    <ellipse class="cls-23" cx="208.76" cy="414.65" rx="11.69" ry="16.82" transform="translate(-187.84 173.35) rotate(-31.96)"/>
    <ellipse class="cls-23" cx="208.76" cy="414.65" rx="10.02" ry="14.42" transform="translate(-187.84 173.35) rotate(-31.96)"/>
    <path class="cls-23" d="M202.4,404.45c3.91-2.44,9.93.14,13.44,5.77,3.51,5.63,3.19,12.17-.72,14.61-3.91,2.44-9.93-.14-13.44-5.77-3.51-5.63-3.19-12.17.72-14.61Z"/>
    <path class="cls-23" d="M203.67,406.49c3.13-1.95,7.94.12,10.75,4.62,2.81,4.5,2.55,9.74-.58,11.69-3.13,1.95-7.94-.12-10.75-4.62s-2.55-9.74.58-11.69Z"/>
    <path class="cls-23" d="M204.94,408.53c2.35-1.46,5.96.09,8.07,3.46s1.91,7.3-.43,8.77c-2.35,1.46-5.96-.09-8.07-3.46-2.11-3.38-1.91-7.3.43-8.77Z"/>
    <path class="cls-23" d="M206.22,410.57c1.56-.98,3.97.06,5.38,2.31,1.4,2.25,1.28,4.87-.29,5.85s-3.97-.06-5.38-2.31c-1.4-2.25-1.28-4.87.29-5.85Z"/>
    <path class="cls-23" d="M207.49,412.61c.78-.49,1.99.03,2.69,1.15.7,1.13.64,2.43-.14,2.92-.78.49-1.99-.03-2.69-1.15s-.64-2.43.14-2.92Z"/>
  </g>
  <path class="cls-9" d="M243.11,382.02s-9.74,7.06-17.52,2.8c-7.79-4.26-9.86-8.03-13.51-7.42-3.65.61-3.65,11.56.12,16.79,3.77,5.23,18.85,13.35,25.12,12.21,6.27-1.14,11.02-23.16,5.79-24.38Z"/>
  <path class="cls-10" d="M206.66,529.6c-18.08-2.77-56.8,4.79-84.56-26.48-27.76-31.27-36.17-81.95-40.24-135.67-4.08-53.71,17.83-107.42,46.1-132.13,28.27-24.71,91.78-54.04,150.02-44.63,58.25,9.41,97.3,56.49,114.36,95.07,17.06,38.58,21.65,98.09,15.54,138.69-6.11,40.6-25.98,71.11-43.04,89.27-17.07,18.16-48.39,38.58-88.13,35.81-39.73-2.77-55.27-19.42-70.04-19.92h0ZM217.41,511.85c10.71.73,35.29,16.31,57.19,17.52,21.9,1.22,53.3-.24,83.97-43.32,30.67-43.08,38.94-88.34,28.23-150.41-10.71-62.06-42.1-99.3-76.42-113.66-34.32-14.36-100.7-20.66-146.76,13.87-46.06,34.53-58.9,72.04-59.38,106.84-.49,34.8,1.46,36.75,14.36,49.89,12.9,13.14,41.86,1.7,66.44-2.68,24.58-4.38,44.29,7.54,50.38,13.14,10.22,3.89-2.03,25.79-7.42,20.2-1.08-1.12-2.83-3.75-2.85-6.06-5.13-5.81-12.59-13.46-26.97-15.59-18-2.68-57.68,4.87-69.61,26.77-11.93,21.9-2.43,53.79,16.31,68.14,18.74,14.36,56.46,12.41,72.53,15.33Z"/>
  <path class="cls-2" d="M321.33,186.21c-6.57,2.19-46.97-20.2-63.04-46.24-16.06-26.04-23.61-61.33-11.93-85.18,11.68-23.85,26.53-29.2,42.35-22.63,15.82,6.57,17.28,15.82,25.07,13.87,7.79-1.95,31.64-20.93,56.22-16.31,24.58,4.62,31.4,38.94,16.79,66.2-14.6,27.26-38.21,36.02-49.89,53.05-11.68,17.04-6.81,34.07-15.58,37.24Z"/>
  <path class="cls-10" d="M321.33,186.21c-6.39,2.13-44.8-19-61.67-44.13-3.75-10.95-7.68-26.88-4.04-38.38,6.08-19.23,24.82-26.28,36.75-18.25,11.93,8.03,18.01,8.03,30.18,2.19,12.17-5.84,39.18-10.22,48.43-.24,9.25,9.98-3.06,30.14-10.41,39.04-9.12,7.66-17.86,14.08-23.66,22.53-11.68,17.04-6.81,34.07-15.58,37.24h0ZM378.04,224.91c-6.82,2.19-11.68-21.17-4.87-23.85,6.81-2.68,9.49,21.42,4.87,23.85h0ZM353.46,203.98c12.9-4.38,3.89-46.97-9.49-43.81-13.39,3.16-8.22,48.1,9.49,43.81Z"/>
  <path class="cls-10" d="M342.26,51.26c-3.16-5.84,8.52-16.31,19.96-15.82,11.44.49,19.23,5.23,21.54,15.45,2.31,10.22-1.46,13.39-3.41,13.75-1.95.36-7.18-6.21-14.72-7.06-7.55-.85-21.3-.49-23.36-6.33Z"/>
  <path class="cls-2" d="M209.13,536.67c-19.47-2.92-62.31,5.84-91.02-19.47-28.72-25.31-48.68-112.93-43.32-177.18,5.35-64.25,51.11-139.7,139.7-155.27,88.59-15.58,174.26,34.07,197.13,143.1,22.88,109.03-31.64,202-87.61,223.42-55.98,21.42-102.22-13.39-114.87-14.6h0ZM208.4,524.02c14.12.49,28.96,16.55,66.93,19.23,37.97,2.68,67.9-17.04,84.21-34.56,16.31-17.52,35.29-46.97,41.13-86.15,5.84-39.18,1.46-96.62-14.85-133.86-16.31-37.24-53.62-82.67-109.28-91.75-55.65-9.08-116.33,19.23-143.35,43.08-27.02,23.85-47.95,75.69-44.05,127.53,3.89,51.84,11.93,100.76,38.45,130.94,26.53,30.18,63.52,22.88,80.8,25.56Z"/>
  <path class="cls-7" d="M204.77,358.91c3.29,6.69,16.43,10.95,24.58,13.26,8.15,2.31,9.37,5.72,8.88,16.79-.15,3.47-.93,7.23-2.21,10.95-2.23.47-4.02,1.22-5.1,2.32-.04,1.87.6,3.68,1.71,5.27.96,1.51,2.74,2.62,4.97,3.35-.14,1.59-.51,3.2-1.04,4.69-1.72,4.88-5.15,8.48-7.97,5.53-1.06-1.11-2.19-2.44-3.45-3.87-1.21,1.11-2.5,2.09-3.83,2.92-9.61,5.96-14.85,9.01-21.42,13.14-6.57,4.14-19.84,10.47-21.3,12.9-1.46,2.43,1.22,12.05,9,11.8,7.79-.24,9.49-5.48,17.4-5.72,7.91-.24,17.04,3.29,17.04,5.11s-2.8,9.25-4.87,14.97c-2.07,5.72-6.57,8.88-9,10.47-2.43,1.58,3.41,7.42,9.13,6.69,5.72-.73,17.04-10.95,25.07-14.72,8.03-3.77,23-12.29,35.41-26.77,12.41-14.48,16.31-31.03,17.77-49.04,1.46-18.01-2.43-28.48-4.14-40.52-1.7-12.05,4.26-22.51,4.14-34.07-.12-11.56-78.24,11.19-90.78,34.56Z"/>
  <path class="cls-4" d="M230.03,482.53c4.23-2.92,8.64-6.03,12.34-7.77,8.03-3.77,23.85-11.32,36.26-25.8,12.41-14.48,17.77-31.88,19.23-49.89,1.46-18.01-2.8-29.45-4.5-41.5-1.7-12.05,2.31-21.66,2.19-33.22-.6,8.92-7.81,21.22-6.59,34.84,1.22,13.63,9.13,71.44-20.44,94.43-29.57,22.99-33.64,23.25-38.48,28.91h0ZM178.61,446.16s3.62,7.89,11.9,4.97c8.27-2.92,24.65-9.79,35.53-9.49,10.88.3,23.85,5.84,23.85,5.84l-27.84,9.87c0-1.83-9.13-5.35-17.04-5.11-7.91.24-9.61,5.48-17.4,5.72-7.79.24-10.47-9.37-9-11.8Z"/>
  <path class="cls-3" d="M204.77,358.91c-3.53-6.33-1.09-10.1-3.89-20.81-2.8-10.71-6.81-18.86-7.91-34.68-1.1-15.82,9.13-31.88,15.45-37.48,6.33-5.6,36.99-16.06,53.06-8.28,16.06,7.79,27.02,27.26,31.03,43.32,4.02,16.06,3.08,19.28,3.02,23.08-.06,3.8-10.69,23.04-24.44,31.32-13.75,8.27-48.31,19.83-66.32,3.53Z"/>
  <path class="cls-11" d="M216.72,351.36c-3.24-4.13-8.4-23.46,8.54-28.58,16.93-5.12,32.5,5.4,31.74,11.91-.75,6.51-17.97,3.45-24.72,6.83-6.75,3.38-10.82,11.41-15.56,9.85Z"/>
  <path class="cls-8" d="M197.08,325.4c-1.82-6.07-3.46-12.71-4.11-21.98-1.1-15.82,9.13-31.88,15.45-37.48,6.33-5.6,36.99-16.06,53.06-8.28,16.06,7.79,27.02,27.26,31.03,43.32.95,3.8,1.62,6.88,2.09,9.42-6.2-32.97-33.73-52.52-63.81-41.99-30.68,10.75-37.83,35.01-33.72,56.99h0Z"/>
  <path class="cls-14" d="M220.47,333.96s2.92,2.86,6.94,1.89c4.02-.97,6.27-3.95,6.27-3.95,0,0-.06,4.87-5.48,6.87-5.42,2.01-7.79-2.8-7.73-4.81h0ZM260.51,315.34s4.38-5.48,8.88-3.65c4.5,1.82,3.53,15.09,3.53,15.09,0,0,4.99-16.67-1.7-18.62-6.69-1.95-10.71,7.18-10.71,7.18Z"/>
  <path class="cls-13" d="M222.05,457.35c1.58-5.72,6.69-10.59,10.83-13.02,4.14-2.43,17.65-10.95,24.7-10.34,7.06.61,14.48,5.48,11.07,13.02-3.41,7.54-24.34,18.74-30.79,19.23-6.45.49-15.45-2.56-15.82-8.88h0ZM230.93,402.23c.16,3.43,9.01,4.14,15.58,2.8,6.57-1.34,19.1-4.75,27.01-10.95,7.91-6.21,11.68-12.9,10.1-19.96s-7.06-11.8-12.29-10.47c-5.23,1.34-11.32,11.56-14.6,18.25-3.29,6.69-9.62,9.34-14.6,11.8-4.98,2.47-11.32,3.53-11.19,8.52Z"/>
  <path class="cls-5" d="M224.08,452.83c2.31-3.71,5.81-6.74,8.8-8.5,3.79-2.23,15.44-9.56,22.8-10.31,15.39,4.07-15.16,22.95-24.65,22.46-4.22-.22-6.13-1.87-6.95-3.65Z"/>
  <path class="cls-1" d="M230.93,402.23c.49-2.29,8.25-4.4,17.01-6.71,8.76-2.31,17.76-31.42,25.18-32.09-.6,0-1.2.07-1.8.23-5.23,1.34-11.32,11.56-14.6,18.25-3.29,6.69-9.62,9.34-14.6,11.8-4.98,2.47-11.32,3.53-11.19,8.52Z"/>
  <path class="cls-12" d="M236.57,415.54c2.97.65,6.64.85,11.03.08,14.48-2.56,19.84-10.59,19.84-10.59,0,0-12.29,5.96-18.86,6.69-3.88.43-7.93.14-11.07-.91l.1.03c-.14,1.59-.51,3.2-1.04,4.69Z"/>
  <path class="cls-2" d="M99.86,338.98s-7.3,58.65,15.58,64.01c22.88,5.35,44.9-6.45,67.41-11.44,22.51-4.99,40.4,5.96,40.4,5.96,0,0-28.6-9.73-51.84.37-23.24,10.1-42.59,17.64-49.41,25.68-6.81,8.03-19.23-2.92-23-21.17-3.77-18.25-5.65-51.14.85-63.4Z"/>
</svg>